<ttFont>
          <CharString index="0">
            -104 callgsubr
            -157 hmoveto
            -107 callgsubr
            return
          </CharString>
          <CharString index="1">
            38 59 21 55 7 56 -28 10 -41 0 -25 -3 -5 -54 -12 -55 -21 -59 rrcurveto
            -6 22 20 -3 24 hhcurveto
            return
          </CharString>
          <CharString index="2">
            rmoveto
            10 13 1 2 10 hvcurveto
            21 47 24 32 52 47 -8 11 -16 15 -25 10 -39 -31 -24 -25 -20 -29 -22 30 -22 23 -40 30 -24 -9 -14 -14 -12 -14 46 -41 31 -33 22 -49 rrcurveto
            -2 12 14 -1 11 hhcurveto
            return
          </CharString>
          <CharString index="3">
            99 callgsubr
            103 16 1 24 -2 40 -7 22 -85 -19 -107 -11 -87 -2 -13 97 -10 97 -5 80 -44 callgsubr
            rrcurveto
            -4 89 0 78 2 67 rrcurveto
            13 91 95 7 104 hhcurveto
            5 25 4 31 -1 33 -163 -3 -118 -18 -138 -26 3 -194 28 -296 37 -239 rrcurveto
            endchar
          </CharString>
          <CharString index="4">
            167 -171 rmoveto
            -20 21 -32 17 -28 5 rrcurveto
            -61 -18 -54 -60 -48 hhcurveto
            -61 -31 74 90 14 1 14 1 15 hvcurveto
            39 -12 41 -6 37 53 46 4 35 hflex1
            13 33 11 50 51 vvcurveto
            83 -50 60 -91 -139 -102 -167 -154 -127 59 -103 126 111 82 86 59 19 vhcurveto
            endchar
          </CharString>
          <CharString index="5">
            rmoveto
            -7 107 -6 112 -2 104 -1 91 -1 81 1 76 110 -145 89 -169 91 -212 33 2 30 4 29 5 rrcurveto
            16 185 5 155 183 vvcurveto
            73 -3 68 -3 68 vhcurveto
            -44 -1 -35 -8 -34 -10 rrcurveto
            14 -92 4 -152 -143 vvcurveto
            -55 0 -54 -2 -51 vhcurveto
            -96 234 -97 151 -98 129 -48 -5 -33 -10 -32 -16 -2 -1 -2 -1 -2 -1 rrcurveto
            -215 13 -215 25 -283 vhcurveto
            31 36 5 6 21 hvcurveto
            return
          </CharString>
          <CharString index="6">
            rmoveto
            -136 -96 -123 -177 -134 59 -116 123 155 71 168 167 132 -65 83 -111 hvcurveto
            -23 -70 rmoveto
            58 33 -53 -137 -120 -44 -101 -54 -70 -28 109 86 127 51 89 54 hvcurveto
            endchar
          </CharString>
          <CharString index="7">
            rmoveto
            214 -82 116 -150 -179 -118 -171 -227 -197 84 -158 152 221 72 256 167 vhcurveto
            -112 -26 rmoveto
            -150 -42 -171 -123 -103 -37 161 134 182 68 123 97 93 47 -78 -201 vhcurveto
            endchar
          </CharString>
          <CharString index="8">
            97 -5 91 -11 57 -13 -32 callgsubr
            -138 18 -133 -80 callsubr
            return
          </CharString>
          <CharString index="9">
            rmoveto
            -28 3 -20 -2 -32 -5 3 -60 -6 -52 -20 -67 rrcurveto
            -7 19 20 -3 26 hhcurveto
            29 69 11 65 -2 59 rrcurveto
            endchar
          </CharString>
          <CharString index="10">
            -68 callgsubr
            -67 -34 86 213 107 17 115 24 108 vhcurveto
            -9 4 -15 3 -21 -19 -26 -3 -14 hflex1
            -23 -63 -29 -150 -144 vvcurveto
            -236 66 -114 132 185 77 171 289 vhcurveto
            endchar
          </CharString>
          <CharString index="11">
            80 31 44 41 39 hhcurveto
            43 16 -33 -71 -100 -16 -111 -19 -104 hvcurveto
            -7 31 38 -7 31 hhcurveto
            13 46 27 152 130 vvcurveto
            143 -48 48 -77 -55 -49 -33 -71 -43 vhcurveto
            2 40 3 36 3 28 rrcurveto
            4 -18 -16 1 -14 hhcurveto
            -29 -30 -6 -8 -17 hvcurveto
            -168 12 -262 10 -128 vhcurveto
            return
          </CharString>
          <CharString index="12">
            rmoveto
            9 199 1 159 156 vvcurveto
            66 -1 56 -3 59 vhcurveto
            3 -17 -12 2 -18 hhcurveto
            -29 -24 -8 -10 -17 hvcurveto
            19 -217 5 -242 -3 -234 33 1 38 5 19 5 rrcurveto
            endchar
          </CharString>
          <CharString index="13">
            hvcurveto
            -4 -7 272 callsubr
            -16 306 callgsubr
            return
          </CharString>
          <CharString index="14">
            -99 callsubr
            122 17 121 -68 callsubr
            return
          </CharString>
          <CharString index="15">
            rmoveto
            -20 59 -13 55 -5 53 -25 4 -41 0 -28 -10 7 -59 25 -56 34 -56 24 1 20 3 22 6 rrcurveto
            return
          </CharString>
          <CharString index="16">
            3 25 13 87 callgsubr
            18 -60 callsubr
            -28 -14 -13 -25 return
          </CharString>
          <CharString index="17">
            15 69 hintmask 11000000
            423 154 rmoveto
            -22 57 -5 89 71 vvcurveto
            65 4 46 11 55 vhcurveto
            hintmask 11100000
            25 -4 24 -5 20 -4 -99 callgsubr
            30 31 -2 -3 31 hvcurveto
            -1 -4 -1 -4 -1 -3 -128 -40 -120 -61 -65 -54 3 -28 10 -25 29 -26 rrcurveto
            hintmask 11000000
            103 -16 88 -49 69 -95 rrcurveto
            31 37 4 10 25 hvcurveto
            return
          </CharString>
          <CharString index="18">
            rrcurveto
            3 10 3 17 356 callgsubr
            -56 callsubr
            17 -56 -87 14 -99 hhcurveto
            -105 -96 -14 -17 -58 359 callsubr
            -13 227 callsubr
            -15 -12 flex1
            return
          </CharString>
          <CharString index="19">
            rmoveto
            -27 -26 -6 -11 -20 hvcurveto
            -25 -136 -5 -215 21 -156 rrcurveto
            -2 7 8 -1 11 hhcurveto
            21 23 4 7 15 hvcurveto
            -7 191 18 204 25 117 rrcurveto
            3 -14 -13 1 -12 hhcurveto
            endchar
          </CharString>
          <CharString index="20">
            vvcurveto
            -74 50 -83 81 55 42 41 46 35 vhcurveto
            6 -27 4 -31 -32 vvcurveto
            -103 -44 -59 -83 -128 -91 122 266 -75 vhcurveto
            -23 -8 -21 -11 -20 -13 rrcurveto
            -212 55 91 -236 207 hhcurveto
            return
          </CharString>
          <CharString index="21">
            rmoveto
            -26 24 -28 13 -25 6 -109 -282 -112 -234 -143 -268 19 -14 18 -14 28 -7 157 283 109 217 112 276 rrcurveto
            return
          </CharString>
          <CharString index="22">
            121 -22 114 -23 92 vhcurveto
            -37 -1 -44 -7 -33 -12 rrcurveto
            26 -101 20 -115 -144 vvcurveto
            -188 -41 -141 -90 return
          </CharString>
          <CharString index="23">
            -83 callgsubr
            endchar
          </CharString>
          <CharString index="24">
            89 93 -13 -13 52 -2 callgsubr
            16 -48 -96 14 -88 -24 callgsubr
            return
          </CharString>
          <CharString index="25">
            -88 callgsubr
            -15 3 return
          </CharString>
          <CharString index="26">
            107 -56 rmoveto
            34 46 5 7 22 hvcurveto
            -27 149 -13 159 3 217 13 19 24 15 37 9 7 21 2 41 -9 15 rrcurveto
            return
          </CharString>
          <CharString index="27">
            hhcurveto
            -123 -124 -19 -17 -69 -89 callgsubr
            15 71 return
          </CharString>
          <CharString index="28">
            -16 -19 -77 -97 callgsubr
            return
          </CharString>
          <CharString index="29">
            -60 -30 77 411 67 47 69 -65 63 hstemhm
            32 104 177 115 -112 105 hintmask 11101010
            251 callsubr
            hintmask 11011010
            135 0 183 5 141 vhcurveto
            hintmask 11011100
            33 3 34 4 33 5 2 22 1 22 -2 18 -33 -5 -33 -4 -33 -2 rrcurveto
            hintmask 11101100
            2 31 2 28 2 23 rrcurveto
            4 -17 -16 2 -14 hhcurveto
            -28 -30 -7 -8 -16 hvcurveto
            -24 0 -26 -27 vvcurveto
            -41 1 -41 2 -43 3 -3 -15 0 -26 1 -22 rrcurveto
            -4 40 44 -2 44 hhcurveto
            -17 1 -18 -18 vvcurveto
            50 callgsubr
            hvcurveto
            hintmask 11101010
            56 45 28 84 29 hvcurveto
            3 -47 4 -42 4 -35 rrcurveto
            -118 89 rmoveto
            -53 -37 65 131 154 68 61 69 18 14 -2 -3 11 hvcurveto
            2 -77 3 -79 4 -73 rrcurveto
            -137 -16 -44 -40 -39 hhcurveto
            endchar
          </CharString>
          <CharString index="30">
            5 74 3 75 74 vvcurveto
            156 -7 134 -15 143 vhcurveto
            62 4 64 2 76 1 2 12 3 16 -1 17 -1 17 -2 16 -5 15 -201 -2 -137 -14 -197 -35 rrcurveto
            -24 3 -31 9 -29 vhcurveto
            78 11 66 8 62 6 27 -201 12 -261 -5 -196 rrcurveto
            return
          </CharString>
          <CharString index="31">
            rrcurveto
            24 3 11 20 9 vhcurveto
            8 4 225 callgsubr
            4 9 3 16 304 callgsubr
            15 7 flex1
            -43 -9 -35 -13 -18 -9 rrcurveto
            -31 -15 -5 -21 -32 vvcurveto
            -8 0 -10 1 -10 vhcurveto
            93 -30 -57 58 -80 236 callgsubr
            60 -68 73 60 46 46 61 15 -3 14 -5 10 hvcurveto
            -19 18 -32 14 -28 4 rrcurveto
            8 -15 8 -21 -17 vvcurveto
            -30 -16 -27 -29 -29 -26 24 47 61 37 45 54 return
          </CharString>
          <CharString index="32">
            17 0 16 0 14 -42 callgsubr
            return
          </CharString>
          <CharString index="33">
            118 102 -13 -14 75 98 callgsubr
            -3 208 callgsubr
            -74 -102 14 -119 hhcurveto
            -126 -97 -14 -17 -71 hvcurveto
            -5 -8 -2 -14 0 -14 -7 callsubr
            -9 flex1
            return
          </CharString>
          <CharString index="34">
            95 117 79 336 115 -17 138 -18 74 hvcurveto
            -39 4 -46 -8 -27 -16 20 -66 18 -102 3 -129 rrcurveto
            -67 -25 -30 -31 -36 hhcurveto
            -55 -26 73 82 85 9 63 32 115 hvcurveto
            -35 9 -34 5 -31 1 rrcurveto
            -30 -100 -18 -72 -111 vvcurveto
            -144 68 -89 87 47 41 23 55 34 vhcurveto
            -190 -8 -42 -64 -46 hhcurveto
            -43 -21 39 91 -14 hvcurveto
            -33 -6 -33 -14 -26 -18 rrcurveto
            return
          </CharString>
          <CharString index="35">
            371 369 rmoveto
            -38 -34 13 20 -24 hvcurveto
            4 14 3 14 16 vvcurveto
            44 -18 36 -28 28 vhcurveto
            1 14 15 0 15 hhcurveto
            31 30 -1 -2 29 hvcurveto
            70 -7 34 -38 -51 vvcurveto
            -50 -37 -37 -66 vhcurveto
            return
          </CharString>
          <CharString index="36">
            hhcurveto
            73 48 71 98 100 -50 58 -62 -38 -26 -22 -28 -14 98 callsubr
            9 328 callgsubr
            -24 -41 -53 -32 -39 -43 return
          </CharString>
          <CharString index="37">
            36 338 69 -68 64 242 72 hstemhm
            59 118 -98 86 277 111 hintmask 10101100
            165 220 rmoveto
            hintmask 01101100
            42 0 39 38 vvcurveto
            44 2 45 5 45 8 2 21 1 23 -2 18 rrcurveto
            hintmask 01110100
            -47 -7 -44 -4 -43 -2 2 69 3 72 6 89 rrcurveto
            7 23 24 5 24 hhcurveto
            132 62 -79 -122 hvcurveto
            hintmask 10101100
            -163 -83 -137 -192 -75 vhcurveto
            -1 46 -1 47 58 vvcurveto
            6 -230 rmoveto
            233 72 149 187 194 vvcurveto
            168 -90 106 -210 vhcurveto
            hintmask 10110100
            -65 -63 -17 -29 -63 hvcurveto
            -2 -51 -1 -62 -50 vvcurveto
            -35 0 -35 1 -36 vhcurveto
            -26 1 -28 2 -28 2 -3 -16 0 -26 1 -21 rrcurveto
            hintmask 10101100
            28 -3 29 -2 29 -1 3 -104 6 -110 8 -125 rrcurveto
            -4 19 54 -5 19 hhcurveto
            endchar
          </CharString>
          <CharString index="38">
            -61 callsubr
            18 -64 -91 13 -95 -67 callsubr
            return
          </CharString>
          <CharString index="39">
            11 11 0 12 hhcurveto
            -3 -17 -3 -16 -3 -16 -126 -53 -118 -84 -65 -75 2 -36 11 -30 27 -35 rrcurveto
            return
          </CharString>
          <CharString index="40">
            hhcurveto
            -104 -88 -14 -17 -44 hvcurveto
            -3 -10 -2 -15 284 callgsubr
            2 -12 -12 flex1
            return
          </CharString>
          <CharString index="41">
            -16 rrcurveto
            5 12 2 283 callsubr
            12 -2 13 8 flex1
            19 -71 -96 16 -122 hhcurveto
            -125 -95 -16 -19 -71 hvcurveto
            -5 -9 -2 -13 0 -12 156 callgsubr
            return
          </CharString>
          <CharString index="42">
            26 callgsubr
            hintmask 11110000
            94 -4 87 -11 65 -13 -23 callsubr
            19 -77 -118 15 -126 hhcurveto
            -127 -111 -15 -19 -79 -36 callsubr
            hintmask 11101011
            17 81 109 13 125 4 4 0 5 hhcurveto
            -3 -71 -8 -79 -15 -78 rrcurveto
            92 -15 -69 57 -76 hhcurveto
            -79 -44 -48 -67 -76 51 -45 79 -1 hvcurveto
            16 15 3 4 295 callsubr
            -9 226 callsubr
            -43 -32 18 31 30 26 18 43 hvcurveto
            hintmask 11101111
            82 81 -76 -181 -46 hvcurveto
            19 -16 33 -19 25 -4 43 74 74 82 return
          </CharString>
          <CharString index="43">
            -31 369 callsubr
            9 189 callsubr
            62 66 vvcurveto
            36 157 callsubr
            64 return
          </CharString>
          <CharString index="44">
            rrcurveto
            3 10 4 15 0 18 0 13 -3 -56 callsubr
            return
          </CharString>
          <CharString index="45">
            -69 44 5 2 rcurveline
            88 42 43 68 71 vvcurveto
            45 -11 34 -18 25 vhcurveto
            -49 29 rlineto
            -43 -29 -48 -33 -42 hhcurveto
            -36 -16 20 36 16 4 17 10 14 hvcurveto
            -31 -32 -6 -13 -23 hvcurveto
            -7 -13 -3 -15 -20 vvcurveto
            -76 45 -45 73 51 57 34 48 36 vhcurveto
            1 -5 1 -6 -6 vvcurveto
            -51 -30 -40 -83 -42 vhcurveto
            -82 -43 3 -32 15 -30 22 -28 rlinecurve
            return
          </CharString>
          <CharString index="46">
            94 88 -13 -14 65 hvcurveto
            4 -20 callsubr
            return
          </CharString>
          <CharString index="47">
            -63 callgsubr
            -40 -9 -32 -9 -29 -14 return
          </CharString>
          <CharString index="48">
            -2 -41 callgsubr
            return
          </CharString>
          <CharString index="49">
            9 flex1
            return
          </CharString>
          <CharString index="50">
            36 3 32 11 43 9 -56 callgsubr
            -42 -9 -48 -18 -34 -3 return
          </CharString>
          <CharString index="51">
            12 -58 callsubr
            return
          </CharString>
          <CharString index="52">
            hhcurveto
            -25 -30 10 16 -18 hvcurveto
            26 -90 rlineto
            -8 190 callsubr
            return
          </CharString>
          <CharString index="53">
            hhcurveto
            -10 -13 -2 -1 -6 323 callgsubr
            -15 0 -14 207 callsubr
            hintmask 11010000
            2 9 8 1 9 hhcurveto
            36 24 -32 -51 3 hvcurveto
            hintmask 01010000
            -1 -169 8 -188 11 -143 rrcurveto
            endchar
          </CharString>
          <CharString index="54">
            -18 11 -24 9 -19 4 rrcurveto
            -55 -44 -42 -46 -30 hhcurveto
            -25 -13 15 45 27 2 30 5 30 hvcurveto
            -6 25 24 -3 22 hhcurveto
            return
          </CharString>
          <CharString index="55">
            94 104 -13 -15 50 hvcurveto
            3 10 2 16 0 17 -8 callsubr
            18 -45 -108 14 -94 hhcurveto
            -93 -115 -14 -18 20 callgsubr
            return
          </CharString>
          <CharString index="56">
            28 24 -34 45 hhcurveto
            45 25 32 62 -5 hvcurveto
            -15 7 -15 3 -20 -1 rrcurveto
            -30 1 -9 -9 -18 hhcurveto
            return
          </CharString>
          <CharString index="57">
            -10 callgsubr
            -11 284 callgsubr
            3 -17 -13 flex1
            return
          </CharString>
          <CharString index="58">
            rrcurveto
            24 4 10 19 9 vhcurveto
            9 5 16 5 17 5 203 callgsubr
            -3 -47 callsubr
            -38 -8 -34 -11 -21 -12 rrcurveto
            -25 -14 -13 -20 -24 vvcurveto
            -45 vlineto
            95 -22 -44 64 -62 hhcurveto
            -50 -39 -40 -59 -19 hvcurveto
            hintmask 10011111
            -55 callgsubr
            47 callgsubr
            hintmask 01101111
            7 callgsubr
            return
          </CharString>
          <CharString index="59">
            rrcurveto
            66 -42 -80 53 -80 hhcurveto
            266 callgsubr
            81 -1 hvcurveto
            17 354 callgsubr
            8 112 callsubr
            -45 -34 325 callsubr
            79 95 -57 -64 30 hvcurveto
            -3 0 -2 -2 vvcurveto
            -101 -45 -112 -68 -58 -51 1 -29 10 -27 22 -26 return
          </CharString>
          <CharString index="60">
            14 7 flex1
            return
          </CharString>
          <CharString index="61">
            rmoveto
            171 240 77 250 70 277 -33 19 -36 13 -42 7 -27 -159 -34 -138 -50 -129 -72 128 -51 131 -31 179 -43 -3 -35 -11 -34 -19 48 -198 61 -158 113 -152 -37 -80 -45 -78 -55 -80 rrcurveto
            22 -16 35 -15 28 -8 rrcurveto
            endchar
          </CharString>
          <CharString index="62">
            -10 56 -12 -23 callsubr
            18 -73 -111 16 -119 hhcurveto
            -120 -105 -16 -18 -75 -36 callsubr
            return
          </CharString>
          <CharString index="63">
            2 20 11 13 29 3 33 188 callgsubr
            36 3 32 11 44 9 0 callsubr
            -43 335 callgsubr
            -43 -4 -36 -19 -7 -50 -1 -4 rcurveline
            -42 -16 -41 19 callsubr
            return
          </CharString>
          <CharString index="64">
            138 callsubr
            14 0 16 return
          </CharString>
          <CharString index="65">
            -10 flex1
            return
          </CharString>
          <CharString index="66">
            453 343 rmoveto
            65 -55 37 -67 -35 -27 -9 -13 -19 vhcurveto
            -10 -11 -8 -20 -18 vvcurveto
            -8 3 -9 6 -5 vhcurveto
            13 13 24 14 30 hhcurveto
            29 21 -15 -31 -60 -88 -77 -60 -30 -21 19 35 100 10 112 18 88 hvcurveto
            1 17 17 0 18 hhcurveto
            -69 callsubr
            23 6 32 7 39 5 rrcurveto
            -12 -83 -8 -95 -105 vvcurveto
            -73 66 -48 78 107 128 106 99 vhcurveto
            return
          </CharString>
          <CharString index="67">
            121 callgsubr
            27 -104 -169 6 -181 hhcurveto
            -191 -139 -7 -26 -117 -35 callsubr
            return
          </CharString>
          <CharString index="68">
            -10 -16 -8 -25 -23 vvcurveto
            -11 3 -11 6 -7 vhcurveto
            16 return
          </CharString>
          <CharString index="69">
            hhcurveto
            -8 -11 -1 -2 -11 323 callgsubr
            -13 0 -16 207 callsubr
            2 10 13 2 8 hhcurveto
            40 20 -34 -54 2 hvcurveto
            -2 -201 -20 -148 -31 -130 rrcurveto
            return
          </CharString>
          <CharString index="70">
            315 328 rmoveto
            -30 -19 42 48 185 callgsubr
            -16 29 -38 -45 vvcurveto
            -26 -10 -12 -16 vhcurveto
            return
          </CharString>
          <CharString index="71">
            236 callsubr
            -15 0 -14 -7 callsubr
            -9 flex1
            return
          </CharString>
          <CharString index="72">
            hvcurveto
            -4 -8 -2 -12 227 callsubr
            191 callgsubr
            return
          </CharString>
          <CharString index="73">
            rmoveto
            39 33 6 13 27 hvcurveto
            97 -50 75 -110 -140 -90 -160 -182 -119 50 -105 131 113 74 80 62 17 vhcurveto
            -15 20 -22 15 -24 6 rrcurveto
            -60 -27 -43 -56 -55 hhcurveto
            -66 -27 75 88 134 51 139 69 49 16 -53 -75 hvcurveto
            endchar
          </CharString>
          <CharString index="74">
            rmoveto
            44 38 24 44 28 154 callsubr
            -18 -22 -21 hhcurveto
            -37 -18 75 157 203 34 77 96 19 hvcurveto
            return
          </CharString>
          <CharString index="75">
            103 callsubr
            51 41 13 hvcurveto
            5 -15 2 -16 -15 vvcurveto
            -53 -20 -40 -29 vhcurveto
            return
          </CharString>
          <CharString index="76">
            -67 -34 86 213 107 17 115 24 108 hvcurveto
            -9 4 -15 3 -21 -19 -26 -3 -14 hflex1
            -23 -63 -29 -150 -144 vvcurveto
            -236 66 -114 132 vhcurveto
            return
          </CharString>
          <CharString index="77">
            -3 14 callgsubr
            return
          </CharString>
          <CharString index="78">
            314 166 rmoveto
            252 callsubr
            -23 vhcurveto
            -49 83 -70 55 -72 35 56 55 80 53 64 52 callsubr
            return
          </CharString>
          <CharString index="79">
            vvcurveto
            45 0 39 2 36 vhcurveto
            88 -14 73 -31 -57 vvcurveto
            -44 -44 -38 -56 -20 vhcurveto
            15 -37 27 -26 24 -6 rrcurveto
            47 28 44 59 72 vvcurveto
            92 -83 88 -130 31 vhcurveto
            return
          </CharString>
          <CharString index="80">
            2 26 7 16 18 8 10 5 16 5 12 4 rrcurveto
            5 315 callgsubr
            -39 -8 -28 -10 -22 -11 -27 -12 -10 -24 -6 -29 -1 -11 -2 -12 -1 -12 rrcurveto
            92 -22 -44 62 -62 hhcurveto
            -50 -38 -40 -59 -19 hvcurveto
            return
          </CharString>
          <CharString index="81">
            73 -50 26 99 vvcurveto
            -27 15 -21 3 -26 -1 -21 -25 -15 -34 -16 -39 rrcurveto
            61 -20 -33 39 -48 hhcurveto
            -68 -46 -63 -77 -80 45 -56 57 46 33 37 50 13 -1 11 -5 9 hvcurveto
            -14 13 -25 11 -21 4 rrcurveto
            6 -13 7 -17 -14 vvcurveto
            -23 -12 -20 -22 -23 -20 20 38 43 28 33 42 43 37 -41 -61 13 vhcurveto
            9 -8 20 -5 17 -4 13 33 14 39 17 31 rrcurveto
            6 -35 13 -19 -31 vvcurveto
            -44 -29 -28 -73 -42 vhcurveto
            -84 -47 3 -34 13 -31 20 -28 rlinecurve
            95 -21 62 return
          </CharString>
          <CharString index="82">
            -5 -34 -51 -17 callgsubr
            return
          </CharString>
          <CharString index="83">
            103 -22 88 -67 69 -128 rrcurveto
            31 37 209 callgsubr
            return
          </CharString>
          <CharString index="84">
            rrcurveto
            3 10 3 16 0 14 85 callsubr
            return
          </CharString>
          <CharString index="85">
            -12 -22 -89 -50 callsubr
            20 100 return
          </CharString>
          <CharString index="86">
            82 65 66 83 17 hvcurveto
            24 -26 16 -34 -40 vvcurveto
            -77 -58 -40 -79 -40 -47 9 18 -54 vhcurveto
            return
          </CharString>
          <CharString index="87">
            86 callsubr
            -14 callgsubr
            return
          </CharString>
          <CharString index="88">
            56 callsubr
            -128 -123 -6 -28 -114 -50 callsubr
            119 23 111 5 112 1 -8 -62 -6 -66 -4 -72 rrcurveto
            71 -34 -64 62 -70 hhcurveto
            266 callgsubr
            82 -1 hvcurveto
            16 354 callgsubr
            8 19 7 30 108 callsubr
            17 43 hvcurveto
            return
          </CharString>
          <CharString index="89">
            16 -31 12 -31 7 -7 -14 -1 -41 8 -22 55 -12 35 -29 3 -52 -3 -197 -20 -145 -30 -128 177 callsubr
          </CharString>
          <CharString index="90">
            -19 31 -25 23 -34 15 -65 -38 -67 -54 -62 -71 rrcurveto
            11 69 6 71 48 vvcurveto
            31 vlineto
            4 48 52 3 55 hhcurveto
            133 127 -14 -18 77 hvcurveto
            -82 callgsubr
            19 -73 -127 17 -135 hhcurveto
            -135 -122 -17 -19 -75 -89 callgsubr
            30 7 37 6 42 5 -5 -111 -24 -125 -42 -114 18 -24 34 -19 28 -6 return
          </CharString>
          <CharString index="91">
            hhcurveto
            56 41 40 46 36 hvcurveto
            5 -27 4 -30 -32 vvcurveto
            -106 -71 -61 -141 -131 -127 49 129 -45 vhcurveto
            -24 -11 -18 -13 -14 -16 rrcurveto
            return
          </CharString>
          <CharString index="92">
            rmoveto
            36 78 14 64 7 78 -27 7 -39 3 -33 -3 -1 -78 -9 -61 -19 -77 22 -6 22 -4 27 -1 rrcurveto
            return
          </CharString>
          <CharString index="93">
            -5 rrcurveto
            3 -59 callgsubr
            return
          </CharString>
          <CharString index="94">
            -55 -66 -39 -48 hhcurveto
            -34 -28 19 47 28 10 42 16 29 hvcurveto
            -16 10 -21 6 -28 1 rrcurveto
            -21 -42 -17 -55 -47 vvcurveto
            -80 47 -55 76 vhcurveto
            return
          </CharString>
          <CharString index="95">
            39 24 24 42 51 vvcurveto
            43 -17 37 -28 28 vhcurveto
            25 -4 24 -4 22 -14 callsubr
            19 -68 -98 16 -121 hhcurveto
            -121 -86 -16 -19 -76 -10 callgsubr
            -12 0 -14 156 callgsubr
            57 12 60 11 75 5 rrcurveto
            -120 -6 -33 -52 -61 -55 callsubr
            63 47 331 callgsubr
            return
          </CharString>
          <CharString index="96">
            -164 -7 71 callsubr
            52 41 12 hvcurveto
            5 -14 2 -16 -15 vvcurveto
            -54 -20 -40 -29 vhcurveto
            return
          </CharString>
          <CharString index="97">
            45 10 77 14 94 8 rrcurveto
            -24 -45 -25 -67 -51 vvcurveto
            -43 callgsubr
            100 55 81 121 43 -6 46 -11 38 hvcurveto
            74 callsubr
            47 34 84 41 54 hvcurveto
            -83 return
          </CharString>
          <CharString index="98">
            -22 callgsubr
            51 -64 -108 2 hvcurveto
            -4 -60 -2 -64 -65 vvcurveto
            -61 3 -49 4 -38 vhcurveto
            40 -30 -36 21 -48 hhcurveto
            return
          </CharString>
          <CharString index="99">
            0 12 -14 callgsubr
            return
          </CharString>
          <CharString index="100">
            0 -16 3 -16 return
          </CharString>
          <CharString index="101">
            rmoveto
            23 42 7 8 19 hvcurveto
            -18 69 -9 70 68 vvcurveto
            73 11 70 22 66 vhcurveto
            -11 32 -20 26 -22 15 rrcurveto
            -14 -27 -29 -8 -32 hhcurveto
            -66 -39 34 60 -29 hvcurveto
            hintmask 11111000
            120 -3 117 -15 80 -16 rrcurveto
            4 10 2 16 0 16 0 13 -14 callgsubr
            21 -79 -138 17 -135 hhcurveto
            -135 -136 -17 -21 -83 -35 callgsubr
            return
          </CharString>
          <CharString index="102">
            vvcurveto
            37 1 33 2 30 vhcurveto
            86 -12 70 -28 -53 vvcurveto
            -39 -42 -35 -56 -17 vhcurveto
            14 -37 28 -26 23 -6 rrcurveto
            46 26 44 56 70 vvcurveto
            100 -97 90 -185 16 vhcurveto
            -12 -107 -4 -96 -127 vvcurveto
            return
          </CharString>
          <CharString index="103">
            -62 -71 -24 -47 hhcurveto
            -54 -29 33 38 -26 hvcurveto
            -14 -12 -17 -20 -12 -26 rrcurveto
            -49 31 43 -38 72 hhcurveto
            return
          </CharString>
          <CharString index="104">
            rmoveto
            -27 -20 19 25 32 24 21 41 13 15 -3 -8 13 hvcurveto
            -39 2 -17 -47 -44 hhcurveto
            161 -208 rmoveto
            -29 -19 19 28 hvcurveto
            return
          </CharString>
          <CharString index="105">
            78 94 -12 -12 50 hvcurveto
            2 10 3 16 0 17 -8 callsubr
            14 -45 -104 14 -78 hhcurveto
            -79 -93 -13 -15 20 callgsubr
            return
          </CharString>
          <CharString index="106">
            vvcurveto
            24 4 13 15 7 vhcurveto
            9 267 callgsubr
            5 9 3 18 196 callsubr
            -3 13 7 flex1
            -39 -9 -33 -9 -28 -14 rrcurveto
            -29 -14 -15 -27 -34 -16 3 -24 -45 vvcurveto
            return
          </CharString>
          <CharString index="107">
            rrcurveto
            4 315 callgsubr
            return
          </CharString>
          <CharString index="108">
            -118 -51 -110 -76 -60 -69 2 -36 11 -31 27 -34 return
          </CharString>
          <CharString index="109">
            rmoveto
            233 72 149 187 194 vvcurveto
            168 -91 106 -199 -75 -63 -16 -30 -63 vhcurveto
            -2 -51 -1 -62 -50 vvcurveto
            -162 7 -153 13 -194 vhcurveto
            -4 19 54 -5 19 hhcurveto
            -6 230 rmoveto
            144 1 104 11 165 vhcurveto
            7 23 23 5 25 hhcurveto
            132 62 -79 -122 -163 -83 -137 -192 -75 hvcurveto
            -1 46 -1 47 58 vvcurveto
            endchar
          </CharString>
          <CharString index="110">
            1 -20 -21 0 -20 hhcurveto
            -123 -118 -16 -19 -77 hvcurveto
            83 callsubr
            33 7 39 6 43 6 25 -3 23 -16 17 -25 rrcurveto
            -80 -13 -57 -42 -68 vvcurveto
            -61 44 -45 66 68 45 51 77 10 -1 10 -1 9 vhcurveto
            83 30 -20 -40 -12 0 -15 -2 -17 hvcurveto
            -97 -37 -130 -76 -52 -48 1 -30 11 -27 22 -27 return
          </CharString>
          <CharString index="111">
            -99 callsubr
            121 17 122 -68 callsubr
            return
          </CharString>
          <CharString index="112">
            rmoveto
            -36 123 -15 117 2 128 rrcurveto
            -42 -38 -4 -8 -33 hvcurveto
            3 -46 4 -44 7 -42 rrcurveto
            -91 -28 -48 -50 -63 hhcurveto
            -70 -50 80 179 196 62 132 82 hvcurveto
            return
          </CharString>
          <CharString index="113">
            42 -47 36 -48 24 vhcurveto
            51 42 42 29 53 hhcurveto
            42 40 -18 -35 31 hvcurveto
            -46 -56 -60 -57 return
          </CharString>
          <CharString index="114">
            hhcurveto
            -29 -23 15 38 25 45 callgsubr
            return
          </CharString>
          <CharString index="115">
            81 hstemhm
            0 return
          </CharString>
          <CharString index="116">
            33 -48 rlineto
            31 43 47 18 35 hhcurveto
            24 13 -11 -22 return
          </CharString>
          <CharString index="117">
            83 hintmask 01010000
            -81 callsubr
            hintmask 11100000
            -36 -8 -34 -13 return
          </CharString>
          <CharString index="118">
            -72 -50 -63 -87 -112 78 -74 98 -2 hvcurveto
            17 25 11 42 32 vvcurveto
            -3 -14 -15 -2 -14 hhcurveto
            -55 -47 30 51 40 26 24 40 42 39 -25 -42 29 hvcurveto
            20 -34 rlineto
            return
          </CharString>
          <CharString index="119">
            37 callsubr
            16 callgsubr
            rrcurveto
            90 callgsubr
            170 callgsubr
          </CharString>
          <CharString index="120">
            -19 83 -10 124 136 vvcurveto
            125 7 102 8 106 vhcurveto
            -70 -11 rlineto
            -21 -193 -1 -129 -202 vvcurveto
            -58 7 -53 2 -50 vhcurveto
            30 37 9 11 30 hvcurveto
            return
          </CharString>
          <CharString index="121">
            rmoveto
            16 callsubr
            hintmask 11110000
            12 callgsubr
            -208 95 -103 142 vhcurveto
            hintmask 11101000
            145 79 89 154 8 hvcurveto
            endchar
          </CharString>
          <CharString index="122">
            -56 15 -70 12 -75 3 rrcurveto
            -28 46 -18 44 48 vvcurveto
            46 21 84 callsubr
            -34 -43 -20 -55 -54 vvcurveto
            -54 19 -51 28 -46 vhcurveto
            return
          </CharString>
          <CharString index="123">
            -21 13 -31 6 -33 -2 rrcurveto
            -113 6 -46 -73 -86 hhcurveto
            -92 -50 94 167 202 80 118 80 hvcurveto
            return
          </CharString>
          <CharString index="124">
            rrcurveto
            4 9 3 16 244 callgsubr
            15 7 flex1
            return
          </CharString>
          <CharString index="125">
            2 17 0 16 -8 callsubr
            return
          </CharString>
          <CharString index="126">
            -96 callgsubr
            95 -23 85 -59 65 -116 rrcurveto
            21 -19 -24 10 -31 hhcurveto
            return
          </CharString>
          <CharString index="127">
            -85 callsubr
            vhcurveto
            hintmask 11101000
            -31 callsubr
            return
          </CharString>
          <CharString index="128">
            124 callgsubr
            45 37 28 22 30 19 vhcurveto
            return
          </CharString>
          <CharString index="129">
            10 18 callsubr
            return
          </CharString>
          <CharString index="130">
            -29 -33 -29 -10 -21 hhcurveto
            -33 -26 24 38 37 26 39 79 33 hvcurveto
            11 11 0 11 hhcurveto
            38 35 -2 -3 34 hvcurveto
            -14 -119 -7 -119 -138 vvcurveto
            return
          </CharString>
          <CharString index="131">
            rmoveto
            9 21 5 25 1 26 -62 -1 -49 2 -64 4 rrcurveto
            123 79 60 81 73 vvcurveto
            70 -53 47 -78 -72 -54 -38 -88 -22 vhcurveto
            -11 24 27 -5 31 hhcurveto
            65 13 21 27 29 hhcurveto
            27 15 -23 -34 -73 -53 -67 -141 -95 hvcurveto
            -6 -16 -1 -14 -1 -18 67 -20 106 -13 98 -4 rrcurveto
            endchar
          </CharString>
          <CharString index="132">
            136 callgsubr
            -15 54 -10 120 123 vvcurveto
            70 3 51 7 59 vhcurveto
            2 26 6 16 19 8 10 5 15 5 13 4 -56 callgsubr
            -40 -8 -29 -10 -23 -11 -26 -13 -11 -24 -5 -28 -2 -13 -3 -13 -2 -14 rrcurveto
            return
          </CharString>
          <CharString index="133">
            -54 -62 -24 -43 hhcurveto
            -35 -28 20 41 24 9 27 10 19 2 callgsubr
            -15 -33 return
          </CharString>
          <CharString index="134">
            vvcurveto
            46 -18 41 -31 32 vhcurveto
            29 -4 28 -5 27 -5 rrcurveto
            4 -59 callgsubr
            22 -84 -109 11 -135 hhcurveto
            hintmask 1101110000000000
            -142 -102 -10 -23 -99 18 callgsubr
            19 104 103 10 133 hhcurveto
            return
          </CharString>
          <CharString index="135">
            15 17 17 19 29 -67 46 -49 46 -38 48 58 39 47 47 48 59 -15 22 -25 19 -27 16 -54 -87 -60 -60 -65 -44 44 -83 60 -67 return
          </CharString>
          <CharString index="136">
            -128 1 callgsubr
            -64 -11 -77 -79 vvcurveto
            -48 4 -49 6 -48 vhcurveto
            34 -28 -37 17 -48 hhcurveto
            return
          </CharString>
          <CharString index="137">
            -33 -3 -32 -64 callsubr
            -46 -14 return
          </CharString>
          <CharString index="138">
            -45 -60 -28 -39 hhcurveto
            -30 -23 17 39 30 13 39 19 29 hvcurveto
            -16 8 -21 5 -28 1 rrcurveto
            -21 -40 -18 -51 -46 vvcurveto
            -72 41 -50 69 vhcurveto
            return
          </CharString>
          <CharString index="139">
            -61 -89 -37 -53 hhcurveto
            -36 -29 22 45 25 10 33 13 23 202 callsubr
            -34 -14 -44 -42 vvcurveto
            -72 49 -53 81 vhcurveto
            return
          </CharString>
          <CharString index="140">
            rrcurveto
            14 -59 -71 11 -67 hhcurveto
            -78 -96 -13 -15 -52 hvcurveto
            -4 -9 -59 callsubr
            -11 flex1
            41 10 59 8 59 4 rrcurveto
            -117 -5 -25 -49 -54 hhcurveto
            -25 -26 10 16 -17 hvcurveto
            26 -88 rlineto
            -9 16 17 -6 21 hhcurveto
            58 41 42 94 18 hvcurveto
            return
          </CharString>
          <CharString index="141">
            78 62 60 67 44 83 -64 46 -58 60 -54 86 -28 -16 -26 -20 -15 -22 47 -59 47 -47 58 -39 -38 -48 -49 -46 -67 -46 19 -29 return
          </CharString>
          <CharString index="142">
            4 -16 -13 2 -14 hhcurveto
            -17 -19 -2 -5 -11 hvcurveto
            4 -80 2 -66 2 -94 19 -2 27 1 13 4 15 109 6 66 2 63 rrcurveto
            return
          </CharString>
          <CharString index="143">
            -1 -56 callsubr
            return
          </CharString>
          <CharString index="144">
            rmoveto
            11 26 8 31 1 34 -118 -12 -79 4 -95 8 100 134 101 108 106 106 return
          </CharString>
          <CharString index="145">
            hvcurveto
            2 -32 12 -39 153 callsubr
            -23 -42 -53 -32 -39 -44 return
          </CharString>
          <CharString index="146">
            24 -3 23 -4 23 239 callsubr
            -111 14 -108 hhcurveto
            -101 -98 -22 callsubr
            92 9 95 hhcurveto
            52 52 -3 -5 51 hvcurveto
            return
          </CharString>
          <CharString index="147">
            -15 65 -7 64 179 callgsubr
            67 vhcurveto
            57 callsubr
            return
          </CharString>
          <CharString index="148">
            355 555 rmoveto
            hintmask 1111110000000000
            139 130 -12 -19 83 hvcurveto
            3 10 100 callgsubr
            13 -2 196 callgsubr
            21 -79 -130 14 -141 hhcurveto
            -148 -128 -14 -21 -81 hvcurveto
            -5 -9 -2 -15 76 callsubr
            -16 -11 flex1
            return
          </CharString>
          <CharString index="149">
            4 71 callgsubr
            return
          </CharString>
          <CharString index="150">
            318 429 rmoveto
            -54 24 -56 33 -25 64 62 6 71 4 78 2 -7 -55 -5 -63 -2 -59 -14 18 -20 14 -28 12 rrcurveto
            return
          </CharString>
          <CharString index="151">
            5 26 3 29 -2 28 rrcurveto
            -9 -14 -22 -4 -23 hhcurveto
            -37 -22 18 28 34 28 20 42 return
          </CharString>
          <CharString index="152">
            -25 rmoveto
            28 116 20 162 210 vvcurveto
            22 5 16 18 9 vhcurveto
            10 4 12 5 18 5 0 callsubr
            -37 -8 -31 -9 -25 -13 rrcurveto
            -26 -12 -15 -25 -27 vvcurveto
            -12 1 -11 1 -15 vhcurveto
            return
          </CharString>
          <CharString index="153">
            64 -15 45 -20 -45 vvcurveto
            -41 -40 -34 -49 -12 vhcurveto
            12 -35 24 -23 21 -6 rrcurveto
            45 22 43 53 68 vvcurveto
            73 -63 67 -98 return
          </CharString>
          <CharString index="154">
            vvcurveto
            -44 -22 -28 -43 vhcurveto
            -94 -25 132 -106 hhcurveto
            -58 -47 -41 -69 return
          </CharString>
          <CharString index="155">
            rmoveto
            32 34 8 15 24 hvcurveto
            -33 134 -28 202 151 vvcurveto
            return
          </CharString>
          <CharString index="156">
            vvcurveto
            40 -19 37 -30 27 vhcurveto
            60 25 51 32 37 hhcurveto
            42 31 -39 -53 -37 -15 -20 -20 -24 -16 30 26 -8 hvcurveto
            -14 -22 -12 -38 -2 -32 rrcurveto
            -24 12 23 -19 33 hhcurveto
            54 44 55 94 97 -46 70 -69 -34 -34 -16 -32 -28 hvcurveto
            return
          </CharString>
          <CharString index="157">
            -31 245 callsubr
            322 callgsubr
            9 189 callsubr
            62 66 vvcurveto
            36 5 208 callsubr
            -43 64 return
          </CharString>
          <CharString index="158">
            4 10 3 15 0 17 86 callgsubr
            return
          </CharString>
          <CharString index="159">
            32 rrcurveto
            -8 -72 -3 -73 -86 vvcurveto
            return
          </CharString>
          <CharString index="160">
            -23 callgsubr
            -25 -10 -23 -11 rrcurveto
            212 -27 -146 136 -212 hhcurveto
            -105 -74 -45 -76 -33 18 -28 30 -19 hvcurveto
            48 22 rlineto
            -22 8 -15 15 19 vvcurveto
            38 44 22 81 return
          </CharString>
          <CharString index="161">
            507 508 rmoveto
            -43 -41 19 29 -38 hvcurveto
            12 40 41 7 32 hhcurveto
            48 14 -15 -18 -21 -17 -13 -36 hvcurveto
            -352 -186 rmoveto
            -26 -18 15 27 36 38 19 58 6 hvcurveto
            2 -9 1 -9 -10 vvcurveto
            -47 -22 -28 -33 vhcurveto
            return
          </CharString>
          <CharString index="162">
            rmoveto
            30 26 -24 -39 -26 -11 -33 -19 -32 hvcurveto
            -43 24 336 callsubr
            -105 -261 rmoveto
            -30 -24 20 39 26 10 32 17 31 hvcurveto
            38 -31 45 -32 43 -25 rrcurveto
            -35 -29 -36 -25 -34 hhcurveto
            return
          </CharString>
          <CharString index="163">
            60 64 23 63 hhcurveto
            61 29 -41 -50 14 hvcurveto
            17 -88 -109 5 -112 hhcurveto
            return
          </CharString>
          <CharString index="164">
            48 callgsubr
            81 71 vvcurveto
            return
          </CharString>
          <CharString index="165">
            hvcurveto
            -10 -17 3 -39 7 -21 return
          </CharString>
          <CharString index="166">
            113 128 -10 -17 62 hvcurveto
            3 10 3 18 373 callsubr
            -2 375 callgsubr
            21 -57 -132 10 -110 hhcurveto
            -113 -110 -12 -19 -66 -35 callgsubr
            return
          </CharString>
          <CharString index="167">
            -8 -15 1 -42 7 -20 rrcurveto
            hintmask 10100000
            60 -13 26 -40 3 -37 rrcurveto
            -165 7 -184 11 -141 vhcurveto
            endchar
          </CharString>
          <CharString index="168">
            vvcurveto
            -20 3 -20 4 -18 vhcurveto
            34 -48 rlineto
            31 43 47 18 35 hhcurveto
            23 14 -11 -22 -37 -66 -62 -71 -58 hvcurveto
            16 -28 25 -26 32 -19 rrcurveto
            58 63 63 80 71 vvcurveto
            65 -48 53 -59 -26 -28 -8 -14 -27 vhcurveto
            return
          </CharString>
          <CharString index="169">
            46 -7 65 -7 63 -6 rrcurveto
            -1 -16 0 -16 -15 vvcurveto
            -21 0 -21 2 -19 vhcurveto
            7 -2 7 -1 13 -1 rrcurveto
            return
          </CharString>
          <CharString index="170">
            -30 7 -37 1 -29 -3 4 -60 -7 -77 -18 -103 19 -5 25 -5 26 -1 rrcurveto
            36 110 11 58 78 vvcurveto
            return
          </CharString>
          <CharString index="171">
            96 -4 81 -10 66 -15 rrcurveto
            4 12 3 283 callsubr
            12 -3 13 8 flex1
            23 -87 -117 12 -148 hhcurveto
            -139 -106 -14 -21 -79 108 callgsubr
            return
          </CharString>
          <CharString index="172">
            -63 -30 56 77 2 hvcurveto
            -25 1 -32 -5 -22 -9 rrcurveto
            -107 70 -76 100 vhcurveto
            return
          </CharString>
          <CharString index="173">
            29 -93 73 -61 129 -17 rrcurveto
            -4 -65 -2 -67 return
          </CharString>
          <CharString index="174">
            -64 callgsubr
            235 callgsubr
            return
          </CharString>
          <CharString index="175">
            89 98 -13 -14 49 hvcurveto
            3 10 2 18 373 callsubr
            -1 12 274 callgsubr
            -45 -101 14 -85 hhcurveto
            return
          </CharString>
          <CharString index="176">
            rrcurveto
            4 97 callgsubr
            return
          </CharString>
          <CharString index="177">
            rrcurveto
            83 callsubr
            return
          </CharString>
          <CharString index="178">
            rmoveto
            -16 -11 11 24 40 28 return
          </CharString>
          <CharString index="179">
            89 48 48 63 57 -43 44 -71 -75 -48 -45 -63 -26 hvcurveto
            -45 21 -43 28 -28 26 -16 -23 -11 -27 -8 -30 32 -24 48 -25 50 -19 rrcurveto
            -4 -25 -2 -27 -26 vvcurveto
            -102 54 -66 77 3 vhcurveto
            return
          </CharString>
          <CharString index="180">
            42 -32 -40 24 -44 hhcurveto
            -70 -51 -56 -79 -104 78 -69 95 -1 hvcurveto
            16 24 10 37 29 vvcurveto
            -3 -14 -14 -1 -12 hhcurveto
            -56 -44 28 48 38 25 23 39 42 38 -26 -43 29 hvcurveto
            16 -26 rlineto
            return
          </CharString>
          <CharString index="181">
            -17 17 -23 20 -19 11 rrcurveto
            -43 -34 -42 -32 -27 hhcurveto
            -16 -18 9 33 return
          </CharString>
          <CharString index="182">
            -12 -41 83 300 85 219 89 return
          </CharString>
          <CharString index="183">
            0 -12 0 -14 3 return
          </CharString>
          <CharString index="184">
            236 callgsubr
            59 -68 73 60 46 46 61 15 -3 14 -5 10 hvcurveto
            -19 18 -32 14 -28 4 rrcurveto
            9 -15 7 -21 -17 vvcurveto
            -30 -15 345 callsubr
            37 45 54 return
          </CharString>
          <CharString index="185">
            25 6 19 8 15 8 -15 26 rcurveline
            -4 8 -2 6 7 vvcurveto
            21 12 15 18 35 36 -66 -150 14 vhcurveto
            33 32 3 9 23 hvcurveto
            -15 72 -4 148 71 vvcurveto
            23 0 24 1 return
          </CharString>
          <CharString index="186">
            -115 -75 -91 -142 -108 47 -93 101 132 51 130 130 107 -51 67 -90 hvcurveto
            return
          </CharString>
          <CharString index="187">
            rmoveto
            -20 -14 13 19 19 13 16 24 hvcurveto
            20 -1 18 -11 15 -18 rrcurveto
            -23 -16 -19 -14 -21 hhcurveto
            return
          </CharString>
          <CharString index="188">
            4 12 224 callsubr
            375 callgsubr
            return
          </CharString>
          <CharString index="189">
            3 9 3 16 0 18 0 13 -42 callgsubr
            return
          </CharString>
          <CharString index="190">
            -4 -21 callgsubr
            191 callgsubr
            return
          </CharString>
          <CharString index="191">
            53 26 27 vhcurveto
            -17 17 -20 12 -23 10 rrcurveto
            return
          </CharString>
          <CharString index="192">
            0 15 87 callsubr
            return
          </CharString>
          <CharString index="193">
            109 callsubr
            15 return
          </CharString>
          <CharString index="194">
            -2 -54 callgsubr
            return
          </CharString>
          <CharString index="195">
            rmoveto
            -21 83 -23 146 -6 148 rrcurveto
            -1 20 21 -1 22 hhcurveto
            40 22 2 4 14 hvcurveto
            3 18 4 31 22 vvcurveto
            -3 -20 -30 -3 -35 hhcurveto
            -21 -21 0 1 -21 hvcurveto
            3 vlineto
            return
          </CharString>
          <CharString index="196">
            19 -63 callgsubr
            return
          </CharString>
          <CharString index="197">
            352 callsubr
            -33 134 -29 202 151 vvcurveto
            return
          </CharString>
          <CharString index="198">
            81 54 41 29 33 35 vhcurveto
            4 -17 3 -19 -20 vvcurveto
            -72 -41 -42 -78 -128 -93 86 193 -74 vhcurveto
            -23 -6 -21 -7 -20 -10 rrcurveto
            -154 55 91 -173 207 hhcurveto
            return
          </CharString>
          <CharString index="199">
            83 hintmask 10100000
            -81 callsubr
            hintmask 11000000
            -36 -8 -34 -13 return
          </CharString>
          <CharString index="200">
            63 63 24 61 hhcurveto
            62 21 162 callgsubr
          </CharString>
          <CharString index="201">
            335 157 rmoveto
            -24 1 -21 -20 vvcurveto
            -48 84 -71 57 -71 37 56 44 79 41 63 24 rrcurveto
            -5 -65 -4 -73 -84 vvcurveto
            31 -270 155 callsubr
            return
          </CharString>
          <CharString index="202">
            0 callgsubr
            99 -20 83 -62 66 -117 rrcurveto
            30 37 4 11 24 hvcurveto
            -19 78 -4 125 92 vvcurveto
            101 4 return
          </CharString>
          <CharString index="203">
            8 20 3 22 -1 26 rrcurveto
            -6 -10 -13 -6 -17 hhcurveto
            -29 -18 17 28 32 20 13 22 return
          </CharString>
          <CharString index="204">
            2 callgsubr
            -16 return
          </CharString>
          <CharString index="205">
            hvcurveto
            2 -33 12 -38 274 callsubr
            return
          </CharString>
          <CharString index="206">
            10 -25 10 -20 4 rrcurveto
            return
          </CharString>
          <CharString index="207">
            4 203 callgsubr
            -3 -47 callsubr
            -41 -8 -42 -15 -18 -9 rrcurveto
            -37 -18 -6 -28 -28 -31 8 -101 -121 vvcurveto
            -192 -21 -118 return
          </CharString>
          <CharString index="208">
            125 callgsubr
            -19 -22 -22 hhcurveto
            -36 -22 80 129 203 51 96 123 23 hvcurveto
            3 10 2 245 callgsubr
            -1 375 callgsubr
            return
          </CharString>
          <CharString index="209">
            4 -46 3 -42 1 -40 -45 1 -42 4 -43 5 rrcurveto
            -4 -24 -2 -19 -26 vvcurveto
            43 -6 46 -3 47 -2 -1 -44 -3 -43 -5 -44 23 -3 23 0 23 3 rrcurveto
            return
          </CharString>
          <CharString index="210">
            -164 -3 71 callsubr
            return
          </CharString>
          <CharString index="211">
            82 20 43 70 52 hhcurveto
            41 11 return
          </CharString>
          <CharString index="212">
            739 336 rmoveto
            195 -101 170 -224 -221 -155 -158 -230 -217 140 -135 203 228 130 147 228 vhcurveto
            return
          </CharString>
          <CharString index="213">
            13 22 hvcurveto
            9 -16 -21 6 -25 hhcurveto
            -17 -34 -15 -43 -42 vvcurveto
            -73 49 -52 82 vhcurveto
            return
          </CharString>
          <CharString index="214">
            82 callgsubr
            rrcurveto
            return
          </CharString>
          <CharString index="215">
            300 callsubr
            -45 -35 19 30 28 26 return
          </CharString>
          <CharString index="216">
            10 2 15 0 15 0 return
          </CharString>
          <CharString index="217">
            84 callgsubr
            234 callgsubr
            return
          </CharString>
          <CharString index="218">
            83 61 40 80 47 hvcurveto
            12 -45 14 -42 18 -42 30 1 29 4 22 6 rrcurveto
            return
          </CharString>
          <CharString index="219">
            19 6 260 callgsubr
            return
          </CharString>
          <CharString index="220">
            rmoveto
            -27 -42 3 15 -43 hvcurveto
            return
          </CharString>
          <CharString index="221">
            vvcurveto
            47 -18 41 -33 32 vhcurveto
            31 -4 28 -6 28 -14 callsubr
            18 -69 -85 15 -108 hhcurveto
            return
          </CharString>
          <CharString index="222">
            226 callgsubr
            -67 -55 66 114 -6 hvcurveto
            5 4 0 4 hhcurveto
            35 33 -1 -3 31 hvcurveto
            60 -10 34 -36 -51 vvcurveto
            -46 -29 -33 -49 vhcurveto
            return
          </CharString>
          <CharString index="223">
            hhcurveto
            51 12 -39 -36 19 hvcurveto
            endchar
          </CharString>
          <CharString index="224">
            -113 -125 -36 -90 hhcurveto
            -45 -33 21 45 26 10 29 10 21 hvcurveto
            -15 9 -21 6 -24 1 rrcurveto
            -17 -33 -15 -39 -41 vvcurveto
            -73 53 -51 return
          </CharString>
          <CharString index="225">
            27 35 8 12 22 hvcurveto
            -19 18 -20 21 26 vvcurveto
            24 15 16 31 60 56 -66 -67 -59 -42 -32 -76 -47 -56 11 22 -61 vhcurveto
            19 -104 rlineto
            return
          </CharString>
          <CharString index="226">
            -24 115 rmoveto
            -19 -12 13 18 20 16 15 21 17 17 -10 -15 12 hvcurveto
            -4 -6 0 0 0 vvcurveto
            1 -1 rlineto
            -23 -16 -16 -11 -17 hhcurveto
            return
          </CharString>
          <CharString index="227">
            -59 -64 -25 -48 hhcurveto
            -36 -28 20 45 25 10 29 11 21 hvcurveto
            -16 10 -20 6 -25 1 rrcurveto
            -17 -34 -15 -39 -40 vvcurveto
            -73 49 -52 84 vhcurveto
            return
          </CharString>
          <CharString index="228">
            rmoveto
            26 35 6 5 19 hvcurveto
            -2 49 -1 36 63 vvcurveto
            return
          </CharString>
          <CharString index="229">
            vvcurveto
            -60 3 -48 5 -38 vhcurveto
            38 -30 -34 21 -47 hhcurveto
            return
          </CharString>
          <CharString index="230">
            2 66 callsubr
            return
          </CharString>
          <CharString index="231">
            17 20 29 21 25 -10 -21 20 vhcurveto
            return
          </CharString>
          <CharString index="232">
            10 3 16 0 15 0 return
          </CharString>
          <CharString index="233">
            465 448 rmoveto
            -44 -39 36 65 -7 hvcurveto
            39 39 -2 -3 36 hvcurveto
            19 -11 10 -17 -21 vvcurveto
            -28 -19 -19 -34 vhcurveto
            116 32 rmoveto
            return
          </CharString>
          <CharString index="234">
            -7 0 -7 -6 vvcurveto
            7 -17 -17 4 -17 hhcurveto
            186 callsubr
            65 49 42 31 44 22 hvcurveto
            89 -44 83 -50 47 -87 rrcurveto
            return
          </CharString>
          <CharString index="235">
            207 callgsubr
            -349 198 rmoveto
            -31 -18 355 callgsubr
            27 24 22 -12 -26 15 hvcurveto
            -37 -7 -19 -17 -31 hhcurveto
            endchar
          </CharString>
          <CharString index="236">
            8 -15 -18 5 -24 hhcurveto
            -24 1 -18 -3 -18 -9 rrcurveto
            -9 -22 -4 -33 -22 vvcurveto
            -17 2 -14 3 -14 vhcurveto
            38 -1 30 1 21 4 return
          </CharString>
          <CharString index="237">
            68 101 53 -18 49 -26 38 hvcurveto
            -20 8 -25 7 -20 3 rrcurveto
            -46 -43 -41 -37 -31 hhcurveto
            -25 -16 13 25 30 20 53 21 49 hvcurveto
            return
          </CharString>
          <CharString index="238">
            -68 callgsubr
            vhcurveto
            return
          </CharString>
          <CharString index="239">
            67 102 55 -52 55 115 67 96 82 -68 73 -62 69 154 57 return
          </CharString>
          <CharString index="240">
            458 -94 rmoveto
            24 3 34 9 20 11 rrcurveto
            -19 87 -10 84 79 vvcurveto
            return
          </CharString>
          <CharString index="241">
            67 vvcurveto
            35 5 208 callsubr
            -43 65 return
          </CharString>
          <CharString index="242">
            -20 -38 -21 -111 -98 vvcurveto
            return
          </CharString>
          <CharString index="243">
            293 rmoveto
            -19 -8 10 22 52 4 67 6 58 hvcurveto
            23 -37 37 -26 50 -11 rrcurveto
            -2 0 -4 -3 vvcurveto
            -67 -48 -59 -45 vhcurveto
            return
          </CharString>
          <CharString index="244">
            81 49 74 -51 75 hstemhm
            0 244 callsubr
            return
          </CharString>
          <CharString index="245">
            rrcurveto
            4 9 3 17 0 return
          </CharString>
          <CharString index="246">
            vvcurveto
            60 -48 49 -60 -26 -28 -8 -12 -26 vhcurveto
            -1 4 253 callgsubr
            50 40 26 54 70 81 -59 -129 8 vhcurveto
            -3 return
          </CharString>
          <CharString index="247">
            -80 callsubr
            122 17 121 return
          </CharString>
          <CharString index="248">
            63 -165 rmoveto
            -51 1 -38 2 -31 vhcurveto
            -41 45 -64 30 -62 30 52 40 70 46 46 20 rrcurveto
            -2 -28 -2 -29 -34 vvcurveto
            return
          </CharString>
          <CharString index="249">
            -9 -34 -10 -29 -14 rrcurveto
            -26 -13 -17 -24 -32 -19 3 -30 -37 vvcurveto
            return
          </CharString>
          <CharString index="250">
            571 rmoveto
            -106 callsubr
            return
          </CharString>
          <CharString index="251">
            vhcurveto
            30 33 4 10 20 hvcurveto
            -26 60 -10 61 134 callsubr
            -49 -14 -47 -16 -48 -20 rlinecurve
            return
          </CharString>
          <CharString index="252">
            198 callsubr
            351 callsubr
            return
          </CharString>
          <CharString index="253">
            rmoveto
            -33 0 -27 1 -23 vhcurveto
            -47 94 -70 63 -73 39 56 44 79 175 callgsubr
            endchar
          </CharString>
          <CharString index="254">
            -5 6 18 4 39 -10 20 rrcurveto
            17 -51 -97 14 -95 hhcurveto
            -112 -88 -14 -17 -64 58 callsubr
            return
          </CharString>
          <CharString index="255">
            vvcurveto
            48 -21 40 -34 30 vhcurveto
            66 -6 61 -9 42 -8 -63 callsubr
            return
          </CharString>
          <CharString index="256">
            rcurveline
            3 -33 16 -32 33 -26 105 -21 88 -64 70 -122 rrcurveto
            return
          </CharString>
          <CharString index="257">
            59 75 77 52 25 17 -19 -36 -129 -9 -143 -17 -106 return
          </CharString>
          <CharString index="258">
            60 61 8 callsubr
            733 -706 74 49 88 170 75 return
          </CharString>
          <CharString index="259">
            66 74 41 56 hhcurveto
            58 14 -45 -42 22 hvcurveto
            return
          </CharString>
          <CharString index="260">
            274 callsubr
            10 328 callgsubr
            return
          </CharString>
          <CharString index="261">
            hvcurveto
            125 callgsubr
            return
          </CharString>
          <CharString index="262">
            357 callsubr
            8 23 hvcurveto
            return
          </CharString>
          <CharString index="263">
            -4 -24 -2 -20 -26 vvcurveto
            return
          </CharString>
          <CharString index="264">
            190 callgsubr
            -44 return
          </CharString>
          <CharString index="265">
            3 17 0 16 0 return
          </CharString>
          <CharString index="266">
            rmoveto
            252 callsubr
            -23 vhcurveto
            -49 83 -70 55 -72 35 13 13 16 13 15 13 56 -22 50 -41 39 -67 rrcurveto
            return
          </CharString>
          <CharString index="267">
            -66 81 16 84 54 72 22 70 -28 77 31 70 81 81 hstemhm
            167 63 274 63 172 58 68 76 return
          </CharString>
          <CharString index="268">
            2 -59 4 -50 6 -64 -74 8 -51 5 -47 -1 rrcurveto
            -2 -11 -2 -8 -12 vvcurveto
            -1 -17 5 -23 3 -12 rrcurveto
            return
          </CharString>
          <CharString index="269">
            -15 -42 callsubr
            return
          </CharString>
          <CharString index="270">
            153 -15 90 160 77 71 81 94 8 callsubr
            706 -520 67 185 61 54 78 hintmask 11110111
            return
          </CharString>
          <CharString index="271">
            124 63 32 59 hhcurveto
            25 21 -13 -18 15 hvcurveto
            14 14 10 25 4 21 rrcurveto
            17 -21 -28 13 -35 hhcurveto
            return
          </CharString>
          <CharString index="272">
            -57 -6 -51 -3 -61 -2 7 79 2 51 2 49 rrcurveto
            3 -12 -13 1 -11 hhcurveto
            -18 -20 -4 -4 -10 hvcurveto
            return
          </CharString>
          <CharString index="273">
            157 callgsubr
            hstem
            28 104 196 108 vstem
            return
          </CharString>
          <CharString index="274">
            90 -20 64 -53 50 -129 rrcurveto
            42 -22 -29 19 -42 hhcurveto
            return
          </CharString>
          <CharString index="275">
            rmoveto
            203 callsubr
            120 123 return
          </CharString>
          <CharString index="276">
            83 -46 83 14 85 49 83 49 84 16 83 -46 84 hstemhm
            return
          </CharString>
          <CharString index="277">
            207.5 return
          </CharString>
          <CharString index="278">
            -45 -63 -20 -42 hhcurveto
            -47 -23 32 43 -22 hvcurveto
            -16 -7 -26 -15 -16 -16 rrcurveto
            -63 27 45 -48 71 hhcurveto
            return
          </CharString>
          <CharString index="279">
            315 232 rmoveto
            -26 43 -34 33 -38 25 37 25 37 22 34 17 -6 -53 -3 -53 -1 -59 rrcurveto
            return
          </CharString>
          <CharString index="280">
            68 42 28 38 hhcurveto
            25 19 -11 -18 15 hvcurveto
            13 15 10 24 4 22 rrcurveto
            15 -19 -28 12 -33 hhcurveto
            return
          </CharString>
          <CharString index="281">
            182 callsubr
            50 return
          </CharString>
          <CharString index="282">
            -54 callgsubr
            98 -16 -51 80 -93 hhcurveto
            return
          </CharString>
          <CharString index="283">
            -1 -12 -1 -12 -11 vvcurveto
            -126 65 -88 return
          </CharString>
          <CharString index="284">
            rrcurveto
            109 callgsubr
          </CharString>
          <CharString index="285">
            19 18 18 19 14 21 return
          </CharString>
          <CharString index="286">
            58 -20 76 600 77 return
          </CharString>
          <CharString index="287">
            hhcurveto
            36 22 -17 -27 -17 -5 -17 -8 -17 hvcurveto
            18 -17 -25 13 -25 hhcurveto
            -45 -35 -35 -48 -49 35 return
          </CharString>
          <CharString index="288">
            350 callgsubr
            -59 77 -65 44 vhcurveto
            -66 12 -62 21 -39 43 rrcurveto
            2 30 31 1 return
          </CharString>
          <CharString index="289">
            7 callgsubr
            50 return
          </CharString>
          <CharString index="290">
            rmoveto
            -23 1 -19 1 -17 vhcurveto
            -48 63 -64 44 -69 26 return
          </CharString>
          <CharString index="291">
            -16 235 callsubr
            return
          </CharString>
          <CharString index="292">
            rmoveto
            -22 77 -5 122 100 return
          </CharString>
          <CharString index="293">
            -58 -45 -44 -67 -71 56 -51 return
          </CharString>
          <CharString index="294">
            -81 74 -79 61 -80 47 rrcurveto
            return
          </CharString>
          <CharString index="295">
            307 callgsubr
            7 return
          </CharString>
          <CharString index="296">
            20 hvcurveto
            -26 61 -10 return
          </CharString>
          <CharString index="297">
            17 21 -6 21 hhcurveto
            return
          </CharString>
          <CharString index="298">
            hvcurveto
            -232 3 rmoveto
            42 26 27 44 54 42 -37 -54 -43 -28 -28 -45 -52 -41 38 55 vhcurveto
            return
          </CharString>
          <CharString index="299">
            -167 -103 113 184 179 125 133 158 167 89 -119 -178 return
          </CharString>
          <CharString index="300">
            -13 57 283 58 -22 58 283 58 hstemhm
            33 91 147 93 111 91 148 92 return
          </CharString>
          <CharString index="301">
            58 65 36 48 hhcurveto
            56 15 -37 -36 19 hvcurveto
            endchar
          </CharString>
          <CharString index="302">
            45 41 11 43 hhcurveto
            66 28 -32 -29 18 hvcurveto
            endchar
          </CharString>
          <CharString index="303">
            0 15 0 15 return
          </CharString>
          <CharString index="304">
            -29 -33 -29 -10 -21 hhcurveto
            -33 -26 24 38 37 26 39 80 33 hvcurveto
            10 11 0 11 hhcurveto
            return
          </CharString>
          <CharString index="305">
            -32 132 callgsubr
            67 vvcurveto
            35 return
          </CharString>
          <CharString index="306">
            -8 21 36 -6 30 hhcurveto
            28 80 17 162 5 132 25 11 25 10 24 9 rrcurveto
            return
          </CharString>
          <CharString index="307">
            11 36 11 rrcurveto
            -4 -33 -3 -34 -32 vvcurveto
            -65 7 return
          </CharString>
          <CharString index="308">
            10 2 15 0 16 0 14 87 callsubr
            return
          </CharString>
          <CharString index="309">
            hvcurveto
            -16 9 -20 5 -25 1 rrcurveto
            -18 return
          </CharString>
          <CharString index="310">
            205 callsubr
            -16 54 -9 return
          </CharString>
          <CharString index="311">
            -44 -47 -67 -77 53 -45 return
          </CharString>
          <CharString index="312">
            33 34 9 22 27 hvcurveto
            return
          </CharString>
          <CharString index="313">
            5 253 callgsubr
            return
          </CharString>
          <CharString index="314">
            3 162 callsubr
            return
          </CharString>
          <CharString index="315">
            36 7 37 vhcurveto
            return
          </CharString>
          <CharString index="316">
            20 -2 14 hhcurveto
            19 17 4 6 14 hvcurveto
            -24 18 -9 24 28 vvcurveto
            46 33 32 76 return
          </CharString>
          <CharString index="317">
            334 callsubr
            -45 32 -39 206 callgsubr
            return
          </CharString>
          <CharString index="318">
            rmoveto
            29 -22 22 -30 -32 -29 -25 -36 -29 22 -21 29 34 28 26 34 vhcurveto
            endchar
          </CharString>
          <CharString index="319">
            58 19 -30 -23 22 hvcurveto
            endchar
          </CharString>
          <CharString index="320">
            19 callgsubr
            81 71 vvcurveto
            9 0 10 -1 9 vhcurveto
            return
          </CharString>
          <CharString index="321">
            vvcurveto
            93 -58 77 -66 44 vhcurveto
            -71 12 -65 24 -40 49 rrcurveto
            1 1 2 1 vvcurveto
            return
          </CharString>
          <CharString index="322">
            -6 -33 -4 -34 -3 -36 rrcurveto
            39 -17 -31 27 -36 hhcurveto
            -34 -29 -25 -41 -11 hvcurveto
            return
          </CharString>
          <CharString index="323">
            363 -124 rmoveto
            34 98 18 222 137 vvcurveto
            82 -8 83 -10 49 vhcurveto
            return
          </CharString>
          <CharString index="324">
            67 -35 71 66 55 -52 55 115 67 102 76 -68 73 -62 69 154 57 return
          </CharString>
          <CharString index="325">
            -55 rmoveto
            10 155 8 188 196 vvcurveto
            return
          </CharString>
          <CharString index="326">
            45 -32 42 -25 rrcurveto
            -34 -29 -36 -26 -33 hhcurveto
            return
          </CharString>
          <CharString index="327">
            92 170 77 -68 77 100 73 63 81 hstemhm
            return
          </CharString>
          <CharString index="328">
            26 -1 31 3 25 11 rrcurveto
            endchar
          </CharString>
          <CharString index="329">
            vvcurveto
            70 2 51 7 59 vhcurveto
            return
          </CharString>
          <CharString index="330">
            14 73 96 13 125 hhcurveto
            return
          </CharString>
          <CharString index="331">
            3 266 callsubr
            return
          </CharString>
          <CharString index="332">
            46 -3 47 -7 31 return
          </CharString>
          <CharString index="333">
            -13 -19 -5 -23 hhcurveto
            return
          </CharString>
          <CharString index="334">
            0 -13 0 -16 2 return
          </CharString>
          <CharString index="335">
            17 81 138 15 138 hhcurveto
            31 -643 155 callsubr
            return
          </CharString>
          <CharString index="336">
            679 178 rmoveto
            -45 -56 27 55 -43 hvcurveto
            2 35 1 36 1 39 rrcurveto
            return
          </CharString>
          <CharString index="337">
            91 -89 78 hstemhm
            0 773 -756 72 -36 71 76 66 75 50 48 83 return
          </CharString>
          <CharString index="338">
            470 68 hstemhm
            21 79 -60 102 return
          </CharString>
          <CharString index="339">
            13 37 40 vvcurveto
            74 -56 40 -64 return
          </CharString>
          <CharString index="340">
            55 -53 60 205 91 -89 77 return
          </CharString>
          <CharString index="341">
            -10 callgsubr
            -13 0 return
          </CharString>
          <CharString index="342">
            189 callgsubr
            -23 return
          </CharString>
          <CharString index="343">
            hvcurveto
            -4 -7 -3 return
          </CharString>
          <CharString index="344">
            61 -260 78 137 63 533 8 callsubr
            614 -405 66 return
          </CharString>
          <CharString index="345">
            -47 -54 -30 -30 -37 -38 rrcurveto
            -40 -40 -33 -51 -48 vvcurveto
            -72 67 -42 83 return
          </CharString>
          <CharString index="346">
            -5 rrcurveto
            4 11 1 16 0 16 0 15 -1 11 8 flex1
            20 -76 return
          </CharString>
          <CharString index="347">
            -7 18 -8 347 callgsubr
            return
          </CharString>
          <CharString index="348">
            -72 -247 69 182 72 375 71 return
          </CharString>
          <CharString index="349">
            9 -14 24 rcurveline
            -5 9 -2 6 8 vvcurveto
            return
          </CharString>
          <CharString index="350">
            3 -18 -42 callsubr
            return
          </CharString>
          <CharString index="351">
            486 -412 82 return
          </CharString>
          <CharString index="352">
            vvcurveto
            -65 7 -60 return
          </CharString>
          <CharString index="353">
            59 149 73 94 81 302 callsubr
            52 74 -55 75 hstemhm
            return
          </CharString>
          <CharString index="354">
            69 85 -69 -69 11 hvcurveto
            -2 -45 -1 -46 -48 vvcurveto
            -97 66 -64 78 return
          </CharString>
          <CharString index="355">
            30 364 callgsubr
            -113 -80 -41 -89 return
          </CharString>
          <CharString index="356">
            63 -13 26 -39 4 -38 -3 -201 -14 -148 -25 -131 rrcurveto
            return
          </CharString>
          <CharString index="357">
            -2 -16 1 callsubr
            return
          </CharString>
          <CharString index="358">
            344 -42 121 callsubr
            return
          </CharString>
          <CharString index="359">
            -32 1 -27 1 return
          </CharString>
          <CharString index="360">
            8 callsubr
            452 -393 79 186 93 hintmask 11011000
            417 return
          </CharString>
          <CharString index="361">
            55 269 81 hstemhm
            57 74 177 153 120 218 return
          </CharString>
          <CharString index="362">
            10 16 10 hvcurveto
            -2 20 -10 30 -10 20 rrcurveto
            -16 -9 -11 -12 return
          </CharString>
          <CharString index="363">
            -7 18 -9 15 -12 11 rrcurveto
            -31 -18 -18 -12 -22 hhcurveto
            -20 -13 return
          </CharString>
          <CharString index="364">
            7 0 callsubr
            return
          </CharString>
          <CharString index="365">
            rmoveto
            276 callgsubr
            return
          </CharString>
          <CharString index="366">
            74 hstemhm
            -30 73 -13 94 148 71 return
          </CharString>
          <CharString index="367">
            20 2 callgsubr
            return
          </CharString>
          <CharString index="368">
            84 hstemhm
            15 72 87 49 202 83 return
          </CharString>
          <CharString index="369">
            270 callsubr
            -373 rmoveto
            return
          </CharString>
          <CharString index="370">
            vvcurveto
            70 227 callgsubr
            return
          </CharString>
          <CharString index="371">
            -17 16 -28 18 -20 10 rrcurveto
            return
          </CharString>
          <CharString index="372">
            92 165 77 244 82 return
          </CharString>
          <CharString index="373">
            16 356 callgsubr
            return
          </CharString>
          <CharString index="374">
            31 35 8 15 24 hvcurveto
            return
          </CharString>
          <CharString index="375">
            -40 -6 -25 -22 -33 hhcurveto
            return
          </CharString>
          <CharString index="376">
            25 29 4 9 24 hvcurveto
            return
          </CharString>
          <CharString index="377">
            18 18 0 19 hhcurveto
            12 return
          </CharString>
          <CharString index="378">
            1 10 1 10 12 vvcurveto
            return
          </CharString>
          <CharString index="379">
            -3 -13 0 -15 0 return
          </CharString>
          <CharString index="380">
            9 3 11 11 vvcurveto
            return
          </CharString>
          <CharString index="381">
            15 -23 rrcurveto
            29 return
          </CharString>
          <CharString index="382">
            29 -1 36 2 25 12 rrcurveto
            -96 58 rmoveto
            -35 34 -56 22 return
          </CharString>
          <CharString index="383">
            373 callgsubr
            169 8 callsubr
            244 callsubr
            return
          </CharString>
          <CharString index="384">
            -45 76 vhcurveto
            35 363 callgsubr
            return
          </CharString>
          <CharString index="385">
            71 108 65 170 82 hstemhm
            0 580 -361 76 return
          </CharString>
          <CharString index="386">
            381 rmoveto
            -19 -18 -5 -8 -15 hvcurveto
            5 0 0 0 vhcurveto
            return
          </CharString>
          <CharString index="387">
            -49 callgsubr
            21 return
          </CharString>
          <CharString index="388">
            100 -24 86 -71 67 -138 rrcurveto
            31 37 209 callgsubr
            return
          </CharString>
          <CharString index="389">
            hvcurveto
            -4 -9 -2 return
          </CharString>
          <CharString index="390">
            18 0 14 0 return
          </CharString>
          <CharString index="391">
            64 15 80 13 103 2 rrcurveto
            -15 -42 -13 -45 -32 vvcurveto
            return
          </CharString>
          <CharString index="392">
            vvcurveto
            -15 -6 -15 -13 -10 vhcurveto
            -6 -4 -6 -5 -6 -4 return
          </CharString>
          <CharString index="393">
            12 2 283 callsubr
            12 -2 13 8 flex1
            23 return
          </CharString>
          <CharString index="394">
            1 -27 rrcurveto
            -3 -54 -1 -59 -57 vvcurveto
            -42 1 -46 1 return
          </CharString>
          <CharString index="395">
            114 556 81 hstem
            109 66 331 76 vstem
            return
          </CharString>
          <CharString index="396">
            -2 553 74 hstem
            30 94 148 71 64 79 vstem
            return
          </CharString>
          <CharString index="397">
            187 callsubr
            95 8 64 51 91 vvcurveto
            return
          </CharString>
          <CharString index="398">
            rmoveto
            -12 34 -4 46 48 vvcurveto
            21 1 25 3 25 vhcurveto
            return
          </CharString>
          <CharString index="399">
            -1 46 -3 45 -6 40 -23 2 -21 -1 -24 -4 rrcurveto
            return
          </CharString>
          <CharString index="400">
            8 callsubr
            743 -716 72 1 63 245 75 return
          </CharString>
          <CharString index="401">
            132 -41 121 -76 120 -128 rrcurveto
            endchar
          </CharString>
          <CharString index="402">
            8 hvcurveto
            9 19 6 30 29 vvcurveto
            return
          </CharString>
          <CharString index="403">
            -35 -34 -49 -49 35 -33 44 hvcurveto
            return
          </CharString>
          <CharString index="404">
            186 callsubr
            66 return
          </CharString>
          <CharString index="405">
            352 callsubr
            -34 return
          </CharString>
          <CharString index="406">
            hhcurveto
            37 35 -2 -3 33 hvcurveto
            -16 return
          </CharString>
          <CharString index="407">
            29 vvcurveto
            -10 226 callsubr
            return
          </CharString>
          <CharString index="408">
            rmoveto
            2 33 3 33 3 32 rrcurveto
            return
          </CharString>
          <CharString index="409">
            -73 78 174 82 return
          </CharString>
          <CharString index="410">
            237 550 rmoveto
            return
          </CharString>
          <CharString index="411">
            -113 87 92 54 return
          </CharString>
          <CharString index="412">
            16 -25 -24 -18 -18 return
          </CharString>
          <CharString index="413">
            -43 rlineto
            29 43 47 return
          </CharString>
          <CharString index="414">
            -61.5 136.5 hintmask 10100000
            return
          </CharString>
          <CharString index="415">
            8 -80 78 hstem
            49 115 232 113 vstem
            return
          </CharString>
          <CharString index="416">
            84 148 70 73 76 82 8 callsubr
            763 return
          </CharString>
          <CharString index="417">
            68 99 56 99 75 -63 66 117 80 -78 49 return
          </CharString>
          <CharString index="418">
            -16 -48 -18 -36 -22 rrcurveto
            -33 9 -28 22 -31 vhcurveto
            return
          </CharString>
          <CharString index="419">
            hhcurveto
            41 27 -41 -78 -171 -64 -108 -64 hvcurveto
            return
          </CharString>
          <CharString index="420">
            -60 444 86 hstem
            48 116 167 105 vstem
            return
          </CharString>
          <CharString index="421">
            -157 494 81 hstem
            42 107 138 90 vstem
            return
          </CharString>
          <CharString index="422">
            -18 vvcurveto
            -46 -39 -33 -85 -175 -125 132 return
          </CharString>
          <CharString index="423">
            hhcurveto
            -25 -30 9 16 -18 hvcurveto
            26 -89 rlineto
            -9 17 return
          </CharString>
          <CharString index="424">
            31 36 -21 hvcurveto
            -16 -8 -24 -15 -16 -19 rrcurveto
            -55 return
          </CharString>
          <CharString index="425">
            37 44 9 10 29 hvcurveto
            endchar
          </CharString>
          <CharString index="426">
            57 14 -39 -37 21 hvcurveto
            endchar
          </CharString>
          <CharString index="427">
            -14 -13 -25 -5 -32 -1 return
          </CharString>
          <CharString index="428">
            -15 16 -26 -26 -14 -16 return
          </CharString>
          <CharString index="429">
            -20 -13 -26 rrcurveto
            -49 32 return
          </CharString>
          <CharString index="430">
            -86 -25 83 400 89 return
          </CharString>
          <CharString index="431">
            vvcurveto
            -68 48 -48 82 vhcurveto
            return
          </CharString>
          <CharString index="432">
            19 30 28 26 17 43 return
          </CharString>
          <CharString index="433">
            -17 17 -25 -24 -16 -17 return
          </CharString>
          <CharString index="434">
            -17 17 -25 -25 -16 -17 return
          </CharString>
          <CharString index="435">
            -21 -8 -21 -10 -17 -15 return
          </CharString>
          <CharString index="436">
            10 35 27 vvcurveto
            endchar
          </CharString>
          <CharString index="437" raw="1">
            7c8b7d8b 0b  
          </CharString>
          <CharString index="438">
            -3 -14 -14 -2 return
          </CharString>
          <CharString index="439">
            55 259 81 hstemhm
            63 82 120 243 return
          </CharString>
          <CharString index="440">
            -46 81 17 82 55 81 53 83 16 81 -44 return
          </CharString>
          <CharString index="441">
            26 -24 -39 -26 -11 -34 -19 -32 hvcurveto
            -43 25 return
          </CharString>
          <CharString index="442">
            88 198 62 -26 66 62 81 hstemhm
            72 81 return
          </CharString>
          <CharString index="443">
            -45 32 -39 206 callgsubr
            34 hhcurveto
            return
          </CharString>
          <CharString index="444">
            237 -183 90 -54 87 47 79 -29 77 return
          </CharString>
          <CharString index="445">
            305 callsubr
            -24 -25 18 -18 24 25 return
          </CharString>
          <CharString index="446">
            -3 -29 5 -26 18 -25 45 -6 41 -10 37 return
          </CharString>
          <CharString index="447">
            hhcurveto
            41 11 -28 -44 -32 -7 -36 -7 -26 hvcurveto
            return
          </CharString>
          <CharString index="448">
            -107 46 -95 101 133 51 132 129 return
          </CharString>
          <CharString index="449">
            23 23 vvcurveto
            298 callgsubr
            return
          </CharString>
          <CharString index="450">
            5 5 0 5 hhcurveto
            11 -29 8 -39 -32 vvcurveto
            return
          </CharString>
          <CharString index="451">
            -175 43 105 -209 207 hhcurveto
            endchar
          </CharString>
          <CharString index="452">
            -27 -30 -29 -26 24 47 61 return
          </CharString>
          <CharString index="453">
            63 -32 -117 -133 rcurveline
            return
          </CharString>
          <CharString index="454">
            vvcurveto
            39 -16 32 -21 25 vhcurveto
            return
          </CharString>
          <CharString index="455">
            hstemhm
            0 282 -219 89 return
          </CharString>
          <CharString index="456">
            -35 11 27 31 44 19 95 return
          </CharString>
          <CharString index="457">
            -17 -58 rmoveto
            45 21 -46 -101 return
          </CharString>
          <CharString index="458">
            157 callsubr
            65 return
          </CharString>
          <CharString index="459">
            rmoveto
            267 callsubr
            return
          </CharString>
          <CharString index="460">
            70 76 66 74 51 return
          </CharString>
          <CharString index="461">
            10 2 10 2 11 return
          </CharString>
          <CharString index="462">
            21 18 3 4 4 return
          </CharString>
          <CharString index="463">
            -2 13 7 flex1
            return
          </CharString>
          <CharString index="464">
            rmoveto
            23 26 3 return
          </CharString>
          <CharString index="465">
            10 2 17 0 return
          </CharString>
          <CharString index="466">
            hvcurveto
            -4 -8 -2 return
          </CharString>
          <CharString index="467">
            66 44 51 46 38 38 65 -54 64 hstemhm
            return
          </CharString>
          <CharString index="468">
            -9 -28 -14 -29 320 callsubr
            return
          </CharString>
          <CharString index="469">
            30 32 4 10 20 hvcurveto
            -26 60 -10 61 return
          </CharString>
          <CharString index="470">
            399 -77 rmoveto
            -16 88 -4 141 100 return
          </CharString>
          <CharString index="471">
            hvcurveto
            1 1 rlineto
            -1 -25 0 -26 -28 vvcurveto
            return
          </CharString>
          <CharString index="472">
            -25 52 hvcurveto
            -20 99 callsubr
            return
          </CharString>
          <CharString index="473">
            -45 -42 -64 -64 49 -48 66 59 42 38 return
          </CharString>
          <CharString index="474">
            hhcurveto
            110 45 -60 -82 -114 -93 -74 return
          </CharString>
          <CharString index="475">
            109 147 hvcurveto
            -242 -178 rmoveto
            return
          </CharString>
          <CharString index="476">
            245 callsubr
            16 -57 vhcurveto
            30 32 4 return
          </CharString>
          <CharString index="477">
            77 -77 82 86 52 48 81 hstemhm
            32 57 return
          </CharString>
          <CharString index="478">
            rmoveto
            33 32 3 9 23 hvcurveto
            -16 93 -8 return
          </CharString>
          <CharString index="479">
            -3 hvcurveto
            -10 23 26 -5 28 hhcurveto
            endchar
          </CharString>
          <CharString index="480">
            0 17 0 12 return
          </CharString>
          <CharString index="481">
            -110 -10 71 return
          </CharString>
        <CharString name=".notdef">
          -553 endchar
        </CharString>
        <CharString name=".null">
          -553 endchar
        </CharString>
        <CharString name="A">
          359 callgsubr
          hstem
          13 600 vstem
          507 -107 -105 callgsubr
        </CharString>
        <CharString name="AE">
          289 -44 83 145 77 78 85 220 88 hstem
          367 117 vstem
          428 -44 99 callgsubr
          104 16 1 24 -3 41 -6 21 -86 -18 -106 -11 -87 -3 -14 98 -9 96 -5 81 79 13 67 7 100 5 1 33 -3 26 -6 26 -91 -6 -72 -12 -80 -16 rrcurveto
          -4 89 -1 77 3 68 91 12 94 7 104 1 rrcurveto
          5 24 4 31 33 vvcurveto
          -158 -3 -110 -17 -132 -23 -30 6 -29 5 -31 2 -71 -265 -68 -184 -137 -231 19 -22 30 -19 41 -8 35 63 34 65 31 67 60 9 68 5 68 2 8 -77 10 -77 10 -74 rrcurveto
          -188 291 rmoveto
          48 112 42 120 37 133 4 -104 9 -122 12 -125 -52 -3 -51 -4 -49 -7 rrcurveto
          endchar
        </CharString>
        <CharString name="Aacute">
          359 callgsubr
          470 170 hstem
          324 94 vstem
          352 748 rmoveto
          -106 callsubr
          155 -855 -105 callgsubr
        </CharString>
        <CharString name="Abreve">
          359 callgsubr
          483 60 hstem
          202 60 113 57 vstem
          202 881 -78 callgsubr
          305 -988 -105 callgsubr
        </CharString>
        <CharString name="Acircumflex">
          359 callgsubr
          hstem
          13 600 vstem
          406 741 -103 callgsubr
          101 -848 -105 callgsubr
        </CharString>
        <CharString name="Adieresis">
          359 callgsubr
          471 134 hstem
          13 600 vstem
          472 870 -107 callsubr
          192 -977 -105 callgsubr
        </CharString>
        <CharString name="Agrave">
          359 callgsubr
          470 177 hstem
          220 94 vstem
          352 758 -92 callsubr
          155 -865 -105 callgsubr
        </CharString>
        <CharString name="Amacron">
          359 callgsubr
          488 68 hstem
          213 170 callsubr
          vstem
          213 779 -92 callgsubr
          294 -886 -105 callgsubr
        </CharString>
        <CharString name="Aogonek">
          75 -292 59 434 77 hstem
          446 73 vstem
          533 -292 rmoveto
          48 33 22 37 24 hvcurveto
          240 callsubr
          -13 -23 hhcurveto
          -21 -12 14 23 33 18 36 42 37 hvcurveto
          12 4 11 5 11 7 -48 320 -70 217 -126 231 -32 8 -28 3 -42 1 -62 -258 -59 -186 -133 -238 20 -22 29 -18 41 -8 36 70 31 69 27 69 rrcurveto
          12 77 88 5 88 hhcurveto
          22 -90 19 -101 16 -115 rrcurveto
          -40 -34 -21 -36 -41 vvcurveto
          -46 34 -30 53 vhcurveto
          -307 554 rmoveto
          37 103 29 105 26 111 46 -97 36 -97 30 -109 -68 -1 -70 -6 -66 -9 rrcurveto
          endchar
        </CharString>
        <CharString name="Aring">
          359 callgsubr
          465 40 113 37 hstem
          228 63 72 65 vstem
          339 933 -25 callgsubr
          177 -1003 -105 callgsubr
        </CharString>
        <CharString name="Atilde">
          359 callgsubr
          468 64 -30 64 hstemhm
          198 51 137 50 hintmask 11011000
          360 810 rmoveto
          hintmask 10111000
          -51 callgsubr
          hintmask 11011000
          -51 callsubr
          147 -917 -105 callgsubr
        </CharString>
        <CharString name="B">
          37 -20 71 621 68 hstemhm
          74 114 210 107 -60 110 hintmask 11101000
          242 -20 rmoveto
          176 137 126 155 78 -51 60 -105 19 hvcurveto
          hintmask 11110000
          85 44 21 62 53 vvcurveto
          100 -81 63 -155 -68 -67 -15 -28 -60 vhcurveto
          -1 -62 1 -49 -48 vvcurveto
          -167 4 -133 13 -217 vhcurveto
          hintmask 11101000
          -24 39 56 -17 56 hhcurveto
          20 692 rmoveto
          hintmask 11110000
          93 43 -43 -66 -81 -55 -55 -165 -17 hvcurveto
          1 78 2 84 7 90 rrcurveto
          hintmask 11101000
          6 26 26 4 22 hhcurveto
          -8 -621 rmoveto
          -26 -24 6 10 -23 hvcurveto
          -2 55 -2 55 72 27 0 28 28 vvcurveto
          12 34 52 13 43 hhcurveto
          105 34 -50 -70 -95 -83 -91 -108 hvcurveto
          endchar
        </CharString>
        <CharString name="C">
          237 callgsubr
          512 208 14 callsubr
        </CharString>
        <CharString name="CR">
          -553 endchar
        </CharString>
        <CharString name="Cacute">
          11 -35 74 581 73 58 170 hstemhm
          43 116 175 94 -16 104 -89 85 hintmask 11111000
          362 751 rmoveto
          -106 callsubr
          hintmask 11010010
          150 -543 rmoveto
          16 callsubr
          hintmask 11010100
          12 callgsubr
          -208 95 -103 142 vhcurveto
          hintmask 11010010
          145 79 89 154 8 hvcurveto
          endchar
        </CharString>
        <CharString name="Ccaron">
          237 callgsubr
          338 740 -105 callsubr
          174 -532 14 callsubr
        </CharString>
        <CharString name="Ccedilla">
          11 -249 50 80 46 40 72 581 73 hstemhm
          43 116 166 73 14 104 -89 85 hintmask 11111100
          283 -249 rmoveto
          168 callgsubr
          7 15 4 14 2 13 rrcurveto
          hintmask 11111101
          131 9 71 87 8 146 16 callsubr
          hintmask 11111110
          12 callgsubr
          -193 82 -103 125 -13 vhcurveto
          -4 -25 -10 -24 -13 -21 rrcurveto
          hintmask 11111100
          -65 callgsubr
          178 callgsubr
        </CharString>
        <CharString name="D">
          316 callgsubr
          171 -10 2 callsubr
        </CharString>
        <CharString name="Dcaron">
          316 callgsubr
          269 756 -105 callsubr
          -98 -766 2 callsubr
        </CharString>
        <CharString name="Dcroat">
          -70 callsubr
        </CharString>
        <CharString name="E">
          75 callsubr
          hstem
          60 123 vstem
          128 -41 -104 callsubr
        </CharString>
        <CharString name="Eacute">
          75 callsubr
          22 170 hstemhm
          60 123 56 94 vstemhm
          267 757 rmoveto
          -106 callsubr
          -139 -798 99 callgsubr
          103 16 1 24 -2 40 -7 22 -85 -19 -107 -11 -87 -2 -13 97 -10 97 -5 80 -44 callgsubr
          rrcurveto
          hintmask 11101000
          -4 89 0 78 2 67 rrcurveto
          13 91 95 7 104 hhcurveto
          5 25 4 31 -1 33 -163 -3 -118 -18 -138 -26 rrcurveto
          hintmask 11111100
          3 -194 28 -296 37 -239 rrcurveto
          endchar
        </CharString>
        <CharString name="Ecaron">
          75 callsubr
          hstem
          60 123 vstem
          270 768 -105 callsubr
          -142 -809 -104 callsubr
        </CharString>
        <CharString name="Ecircumflex">
          75 callsubr
          hstem
          60 123 vstem
          349 761 -103 callgsubr
          -221 -802 -104 callsubr
        </CharString>
        <CharString name="Edieresis">
          75 callsubr
          36 134 hstem
          60 123 vstem
          419 892 -107 callsubr
          -134 -933 -104 callsubr
        </CharString>
        <CharString name="Edotaccent">
          75 callsubr
          40 134 hstem
          60 123 vstem
          347 896 -104 callgsubr
          -219 -937 -104 callsubr
        </CharString>
        <CharString name="Egrave">
          75 callsubr
          19 177 hstemhm
          60 123 -2 94 hintmask 11110100
          313 764 -92 callsubr
          hintmask 11101000
          -185 -805 -104 callsubr
        </CharString>
        <CharString name="Emacron">
          75 callsubr
          48 68 hstemhm
          60 123 -24 170 callsubr
          hintmask 11110100
          159 796 -92 callgsubr
          hintmask 11111000
          -31 -837 -104 callsubr
        </CharString>
        <CharString name="Eogonek">
          -12 -219 59 119 83 300 85 219 89 hstem
          60 123 181 74 vstem
          449 -219 rmoveto
          49 34 22 36 25 hvcurveto
          -7 19 -9 14 -13 11 rrcurveto
          -30 -17 -18 -13 -23 hhcurveto
          -21 -11 14 23 35 19 37 46 39 hvcurveto
          1 24 -2 40 -7 22 -85 -19 -107 -11 -87 -2 -13 97 -10 97 -5 80 -44 callgsubr
          -4 89 0 78 2 67 rrcurveto
          13 91 95 7 104 hhcurveto
          5 25 4 31 -1 33 -163 -3 -118 -19 -138 -25 3 -194 28 -296 37 -239 98 2 119 7 96 12 rrcurveto
          -51 -38 -26 -38 -45 vvcurveto
          -48 33 -30 52 vhcurveto
          endchar
        </CharString>
        <CharString name="Eth">
          -70 callsubr
        </CharString>
        <CharString name="Euro">
          -14 -40 72 151 66 69 74 -69 67 207 71 hstemhm
          101 114 198 98 hintmask 11101110
          304 -40 rmoveto
          114 60 74 139 32 hvcurveto
          -20 20 -27 15 -30 3 rrcurveto
          -111 -6 -37 -68 -64 hhcurveto
          -58 -34 59 93 -14 hvcurveto
          41 4 43 6 51 9 6 17 1 30 -2 17 -56 -8 -46 -5 -43 -3 rrcurveto
          hintmask 11011110
          -1 11 0 11 0 11 0 13 0 13 13 flex1
          41 3 45 7 52 8 6 17 1 29 -2 18 -52 -7 -44 -5 -41 -3 rrcurveto
          134 18 52 73 53 hhcurveto
          53 25 -47 -125 -9 hvcurveto
          45 1 24 6 29 13 rrcurveto
          151 3 -52 72 -99 hhcurveto
          -130 -93 -114 -167 -29 hvcurveto
          hintmask 11101110
          -31 1 -31 1 -35 3 -4 -20 2 -32 2 -18 rrcurveto
          -3 31 29 -1 29 hhcurveto
          -1 -16 -1 -16 -16 -7 0 -8 -6 vvcurveto
          -26 -28 2 2 -30 hvcurveto
          -4 -20 3 -32 2 -18 31 -3 29 -1 29 -1 rrcurveto
          -145 21 74 -73 102 hhcurveto
          endchar
        </CharString>
        <CharString name="F">
          -33 354 86 hstem
          106 101 vstem
          106 -80 rmoveto
          37 33 3 7 29 hvcurveto
          4 118 1 104 -3 175 rrcurveto
          3 0 2 3 vvcurveto
          70 9 75 7 72 3 rrcurveto
          34 -2 25 -7 27 vhcurveto
          -73 -3 -69 -9 -68 -14 -4 80 -6 78 -9 73 99 7 87 13 106 16 2 14 2 16 -1 17 -1 17 -3 16 -4 13 -145 -26 -103 -16 -169 -12 40 -241 14 -295 -4 -264 rrcurveto
          endchar
        </CharString>
        <CharString name="G">
          33 -21 85 587 73 hstemhm
          43 112 243 109 -107 113 hintmask 11101000
          562 -19 5 callsubr
          hintmask 11110000
          15 callgsubr
          hintmask 11101000
          111 callsubr
          endchar
        </CharString>
        <CharString name="Gbreve">
          33 -21 85 587 73 41 60 hstemhm
          43 112 32 60 113 57 -19 109 -107 113 hintmask 11111100
          187 885 -78 callgsubr
          hintmask 11111001
          375 -904 5 callsubr
          hintmask 11111010
          15 callgsubr
          hintmask 11111001
          111 callsubr
          endchar
        </CharString>
        <CharString name="H">
          70 320.5 94.5 hstem
          61 113 275 106 vstem
          555 -56 rmoveto
          205 -9 337 -12 241 vhcurveto
          8 -13 -20 7 -21 hhcurveto
          -19 -15 -3 -6 -20 hvcurveto
          7 -74 5 -118 4 -126 -94 -1 -85 -7 -89 -15 1 123 3 118 7 74 rrcurveto
          5 -19 -16 2 -19 hhcurveto
          -30 -25 -7 -9 -15 hvcurveto
          -213 10 -249 15 -230 vhcurveto
          31 -1 42 5 22 6 -4 79 -2 108 -1 109 89 12 92 4 89 1 rrcurveto
          3 -142 2 -142 -90 vvcurveto
          -6 21 49 -5 36 hhcurveto
          endchar
        </CharString>
        <CharString name="I">
          -295 -29 711 hstem
          83 100 vstem
          173 -18 -95 callsubr
        </CharString>
        <CharString name="Iacute">
          -295 -29 949 -179 170 hstemhm
          83 100 -71 94 hintmask 01010000
          140 741 rmoveto
          -106 callsubr
          hintmask 10100000
          33 -759 -95 callsubr
        </CharString>
        <CharString name="Icircumflex">
          -295 -29 926 hstem
          83 100 vstem
          197 734 -103 callgsubr
          -24 -752 -95 callsubr
        </CharString>
        <CharString name="Idieresis">
          -295 759 134 hstem
          83 100 vstem
          271 880 -107 callsubr
          59 -898 -95 callsubr
        </CharString>
        <CharString name="Idotaccent">
          -295 762 134 hstem
          83 100 vstem
          195 883 -104 callgsubr
          -22 -901 -95 callsubr
        </CharString>
        <CharString name="Igrave">
          -295 -29 946 -179 177 hstemhm
          19 94 -30 100 hintmask 01100000
          151 748 -92 callsubr
          hintmask 10010000
          22 -766 -95 callsubr
        </CharString>
        <CharString name="Imacron">
          -295 776 68 hstemhm
          16 170 callsubr
          -140.5 100 hintmask 11000000
          16 789 -92 callgsubr
          hintmask 10100000
          157 -807 -95 callsubr
        </CharString>
        <CharString name="Iogonek">
          -295 -227 59 hstemhm
          23 74 -14 100 hintmask 11000000
          110 -227 rmoveto
          49 32 22 36 25 hvcurveto
          -7 19 -9 14 -12 11 rrcurveto
          -30 -18 -18 -13 -22 hhcurveto
          -22 -11 14 23 35 19 37 45 38 hvcurveto
          hintmask 10100000
          5 1 4 1 3 1 rrcurveto
          9 199 1 159 156 vvcurveto
          66 -1 56 -3 59 vhcurveto
          3 -17 -12 2 -18 hhcurveto
          -29 -24 -8 -10 -17 hvcurveto
          19 -217 5 -242 -3 -234 rrcurveto
          hintmask 11000000
          6 5 0 1 6 hvcurveto
          -50 -38 -27 -38 -47 vvcurveto
          -46 34 -30 53 vhcurveto
          endchar
        </CharString>
        <CharString name="J">
          -77 -88 76 hstem
          293 112 vstem
          208 -88 rmoveto
          81 59 59 110 27 hvcurveto
          23 90 7 99 136 vvcurveto
          105 -9 111 -9 99 vhcurveto
          -19 3 -18 0 -18 -1 -29 -1 -26 -8 -15 -10 rrcurveto
          21 -178 10 -161 -138 vvcurveto
          -178 -33 -61 -53 -48 -25 46 151 -19 vhcurveto
          -33 -6 -29 -10 -25 -18 rrcurveto
          -145 15 68 -94 97 hhcurveto
          endchar
        </CharString>
        <CharString name="K">
          31 -93 797 hstem
          63 108 -26 callgsubr
          endchar
        </CharString>
        <CharString name="L">
          -61 -72 86 hstem
          69 111 vstem
          486 -72 rmoveto
          25 -6 42 -5 19 vhcurveto
          -40 callgsubr
          154 callgsubr
          endchar
        </CharString>
        <CharString name="Lacute">
          -61 -72 86 709 170 hstemhm
          69 111 -55 94 hintmask 11010000
          153 723 rmoveto
          -106 callsubr
          333 -795 rmoveto
          25 -6 42 -5 19 vhcurveto
          hintmask 10100000
          -40 callgsubr
          rrcurveto
          hintmask 11010000
          154 callgsubr
          endchar
        </CharString>
        <CharString name="Lcaron">
          -61 -72 86 440 227 hstem
          69 111 115 99 vstem
          337 454 -15 callsubr
          149 -526 rmoveto
          25 -6 42 -5 19 vhcurveto
          -40 callgsubr
          154 callgsubr
          endchar
        </CharString>
        <CharString name="Lslash">
          -71 -72 86 hstemhm
          77 98 -91 95 hintmask 10100000
          113 -100 rmoveto
          154 callgsubr
          25 -6 42 -4 19 vhcurveto
          -88 -97 -10 -15 -83 hvcurveto
          -12 81 -7 76 -4 73 71 47 69 49 71 55 -12 29 -15 24 -18 16 rrcurveto
          hintmask 11000000
          -58 -46 -56 -41 -55 -39 rrcurveto
          -1 23 0 22 23 vvcurveto
          -1 107 3 98 9 86 rrcurveto
          1 -10 -11 1 -12 hhcurveto
          -34 -27 -5 -8 -29 hvcurveto
          -2 -127 5 -145 11 -143 -42 -27 -43 -27 -45 -26 rrcurveto
          hintmask 10100000
          10 -27 11 -19 21 -20 33 19 31 19 31 19 8 -89 10 -87 11 -81 rrcurveto
          endchar
        </CharString>
        <CharString name="M">
          210 -55 813 hstem
          69 93 439 90 vstem
          583 -55 rmoveto
          46 32 7 12 31 hvcurveto
          6 226 3 314 -11 226 -29 14 -32 9 -31 5 -85 -138 -70 -139 -52 -151 -54 163 -81 149 -83 116 -36 -6 -38 -17 -30 -19 -7 -221 17 -293 33 -206 rrcurveto
          33 43 4 8 23 hvcurveto
          -32 168 -17 171 148 vvcurveto
          31 0 27 1 27 vhcurveto
          79 -126 58 -130 49 -143 21 -3 27 1 21 7 52 158 59 129 72 120 1 -245 -5 -206 -14 -197 rrcurveto
          endchar
        </CharString>
        <CharString name="N">
          95 -41 799 hstem
          65 111 301 101 vstem
          191 -30 -102 callsubr
          endchar
        </CharString>
        <CharString name="Nacute">
          95 743 170 hstem
          65 111 140 94 67 101 vstem
          344 743 rmoveto
          -106 callsubr
          -153 -773 -102 callsubr
          endchar
        </CharString>
        <CharString name="Ncaron">
          95 -41 951 hstem
          65 111 301 101 vstem
          317 745 -105 callsubr
          -126 -775 -102 callsubr
          endchar
        </CharString>
        <CharString name="Ntilde">
          95 784 64 -30 64 hstemhm
          65 111 13 51 137 50 50 101 hintmask 10101100
          351 848 rmoveto
          hintmask 01111100
          -51 callgsubr
          hintmask 10101100
          -51 callsubr
          -160 -878 -102 callsubr
          endchar
        </CharString>
        <CharString name="O">
          179 callsubr
          hstem
          39 112 305 112 vstem
          568 403 -100 callsubr
        </CharString>
        <CharString name="OE">
          350 -34 83 -77 75 295 85 218 88 -86 77 hstemhm
          41 112 280 113 hintmask 10110110
          491 -34 99 callgsubr
          103 16 1 24 -2 40 -7 22 -85 -19 -107 -11 -87 -2 -13 97 -10 91 -5 79 -44 callgsubr
          rrcurveto
          -4 89 0 77 2 67 91 13 95 6 104 1 5 25 4 30 -1 33 -159 -2 -116 -18 -133 -24 rrcurveto
          hintmask 01001110
          23 -31 -39 12 -45 hhcurveto
          -176 -102 -170 -228 -196 86 -158 155 89 62 47 70 40 hvcurveto
          hintmask 10110110
          6 -42 6 -41 6 -40 rrcurveto
          hintmask 01001110
          -58 402 rmoveto
          -172 1 -35 -149 -101 hhcurveto
          -107 -38 161 134 183 50 122 97 88 44 -92 -187 1 hvcurveto
          endchar
        </CharString>
        <CharString name="Oacute">
          179 callsubr
          29 170 hstemhm
          39 112 142 94 69 112 vstemhm
          321 762 rmoveto
          -106 callsubr
          247 -359 rmoveto
          hintmask 11010100
          214 -82 116 -150 -179 -118 -171 -227 -197 84 -158 152 vhcurveto
          hintmask 11111100
          221 72 256 167 hvcurveto
          hintmask 11010100
          -112 -26 rmoveto
          -150 -42 -171 -123 -103 -37 161 134 182 68 123 97 93 47 -78 -201 vhcurveto
          endchar
        </CharString>
        <CharString name="Ocircumflex">
          179 callsubr
          hstem
          39 112 305 112 vstem
          400 760 -103 callgsubr
          168 -357 -100 callsubr
        </CharString>
        <CharString name="Odieresis">
          179 callsubr
          49 134 hstem
          39 112 305 112 vstem
          466 903 -107 callsubr
          259 -500 -100 callsubr
        </CharString>
        <CharString name="Ograve">
          179 callsubr
          32 177 hstem
          39 112 80 94 131 112 vstem
          363 775 -92 callsubr
          205 -372 -100 callsubr
        </CharString>
        <CharString name="Ohungarumlaut">
          179 callsubr
          27 170 hstemhm
          39 112 93 94 43 94 -19 112 hintmask 11111100
          409 760 rmoveto
          -106 callsubr
          -137 hmoveto
          -106 callsubr
          hintmask 11010010
          296 -357 -100 callsubr
        </CharString>
        <CharString name="Omacron">
          179 callsubr
          72 68 hstem
          39 112 63 170 callsubr
          34.5 112 vstem
          214 818 -92 callgsubr
          354 -415 -100 callsubr
        </CharString>
        <CharString name="Oslash">
          47 -20 76 600 77 hstem
          36 111 303 113 vstem
          147 351 rmoveto
          182 68 123 96 35 28 -11 -25 22 vhcurveto
          -77 -163 -72 -146 -76 -137 rrcurveto
          -17 53 -7 65 59 vvcurveto
          139 -295 rmoveto
          -29 -24 13 23 -20 hvcurveto
          79 143 74 140 72 147 rrcurveto
          8 -39 4 -48 -58 vvcurveto
          -150 -42 -171 -122 vhcurveto
          -16 -76 rmoveto
          221 72 256 167 109 -22 84 -40 55 hvcurveto
          15 33 15 33 15 33 -21 20 -25 15 -23 7 -13 -29 -13 -28 -13 -28 rrcurveto
          17 -31 -36 9 -41 hhcurveto
          -177 -117 -171 -227 -109 25 -96 48 -65 hvcurveto
          -20 -35 -21 -35 -21 -34 21 -20 19 -10 31 -10 17 30 16 29 17 29 rrcurveto
          -19 29 34 -10 39 hhcurveto
          endchar
        </CharString>
        <CharString name="Otilde">
          179 callsubr
          53 64 -30 64 hstemhm
          39 112 49 51 137 50 18 112 hintmask 11101011
          362 850 rmoveto
          hintmask 11011101
          -51 callgsubr
          hintmask 11101011
          -51 callsubr
          hintmask 11001001
          206 -447 -100 callsubr
        </CharString>
        <CharString name="P">
          17 673 69 hstem
          66 105 249 111 vstem
          186 -68 rmoveto
          -9 111 -5 87 -1 97 rrcurveto
          230 68 130 371 callgsubr
          -70 -71 -13 -21 -62 vhcurveto
          -4 -49 -3 -73 -48 vvcurveto
          -198 5 -146 23 -256 vhcurveto
          23 -5 44 -2 25 1 rrcurveto
          -15 377 rmoveto
          111 3 111 13 131 vhcurveto
          7 24 27 4 27 367 callsubr
          -156 -40 hvcurveto
          6 0 0 0 vhcurveto
          endchar
        </CharString>
        <CharString name="Q">
          57 -40 76 560 77 hstem
          39 110 303 112 vstem
          530 -111 rmoveto
          29 19 24 23 12 27 -40 50 -35 39 -35 33 rrcurveto
          53 78 26 105 102 vvcurveto
          184 -72 124 -157 -174 -122 -166 -231 -189 86 -127 142 66 55 23 37 44 vhcurveto
          32 -38 31 -42 35 -51 rrcurveto
          -247 147 rmoveto
          -88 -46 111 144 183 69 122 102 88 44 -79 -178 -75 -12 -69 -24 -54 hvcurveto
          -26 20 -26 19 -30 19 -18 -11 -12 -18 -9 -15 30 -24 27 -25 25 -26 rrcurveto
          -28 -25 -32 -16 -37 hhcurveto
          endchar
        </CharString>
        <CharString name="R">
          27 700 70 hstem
          90 102 210 110 vstem
          470 -34 -84 callsubr
        </CharString>
        <CharString name="Racute">
          27 700 70 31 170 hstem
          90 102 48 94 68 110 vstem
          268 801 rmoveto
          -106 callsubr
          202 -835 -84 callsubr
        </CharString>
        <CharString name="Rcaron">
          27 700 70 hstem
          90 102 210 110 vstem
          268 808 -105 callsubr
          202 -842 -84 callsubr
        </CharString>
        <CharString name="S">
          -58 -40 242 callgsubr
          162 110 hintmask 11011000
          456 160 rmoveto
          -81 callgsubr
          hintmask 11101000
          38 callgsubr
          hintmask 11011000
          264 callgsubr
          endchar
        </CharString>
        <CharString name="Sacute">
          -58 -40 71 662 74 31 170 324 callgsubr
          80 94 -12 110 hintmask 11101100
          292 798 rmoveto
          -106 callsubr
          hintmask 11001010
          164 -638 rmoveto
          -81 callgsubr
          hintmask 11010010
          38 callgsubr
          hintmask 11001010
          264 callgsubr
          endchar
        </CharString>
        <CharString name="Scaron">
          -58 -40 242 callgsubr
          162 110 hintmask 11011000
          284 795 -105 callsubr
          172 -635 rmoveto
          -81 callgsubr
          hintmask 11101000
          38 callgsubr
          hintmask 11011000
          264 callgsubr
          endchar
        </CharString>
        <CharString name="T">
          35 699 93 hstem
          271 107 vstem
          271 24 rmoveto
          41 34 5 7 24 hvcurveto
          -77 callsubr
          endchar
        </CharString>
        <CharString name="Tcaron">
          35 699 93 hstem
          271 107 vstem
          285 816 -105 callsubr
          -14 -792 rmoveto
          41 34 5 7 24 hvcurveto
          -77 callsubr
          endchar
        </CharString>
        <CharString name="Thorn">
          6 531 69 hstem
          61 105 252 111 vstem
          181 -68 rmoveto
          -4 56 -3 50 -2 47 rrcurveto
          228 68 129 371 callgsubr
          -33 -33 -3 -5 -32 vhcurveto
          2 35 3 36 4 37 -34 11 -42 5 -41 -5 rrcurveto
          -4 -49 -3 -76 -48 vvcurveto
          -198 4 -146 23 -256 vhcurveto
          26 -6 38 -1 29 1 rrcurveto
          -15 377 rmoveto
          67 1 69 4 72 vhcurveto
          9 29 31 5 32 367 callsubr
          -157 -40 hvcurveto
          -1 48 -1 47 53 vvcurveto
          endchar
        </CharString>
        <CharString name="U">
          308 callsubr
          509 380 -97 callsubr
        </CharString>
        <CharString name="Uacute">
          8 -80 78 695 170 hstem
          49 115 86 94 52 113 vstem
          278 693 rmoveto
          -106 callsubr
          231 -313 -97 callsubr
        </CharString>
        <CharString name="Ucircumflex">
          308 callsubr
          347 729 -103 callgsubr
          162 -349 -97 callsubr
        </CharString>
        <CharString name="Udieresis">
          8 -80 78 741 134 hstem
          49 115 232 113 vstem
          424 860 -107 callsubr
          242 -480 -97 callsubr
        </CharString>
        <CharString name="Ugrave">
          8 -80 78 697 177 hstemhm
          49 115 -3 94 141 113 hintmask 11011000
          293 705 -92 callsubr
          216 -325 131 callsubr
          hintmask 10101000
          -31 callsubr
          hintmask 11011000
          185 77 171 289 hvcurveto
          endchar
        </CharString>
        <CharString name="Uhungarumlaut">
          8 -80 78 713 170 hstemhm
          49 115 15 94 43 94 -14 113 hintmask 11111000
          344 711 rmoveto
          -106 callsubr
          -137 hmoveto
          -106 callsubr
          hintmask 10100100
          302 -331 -97 callsubr
        </CharString>
        <CharString name="Umacron">
          8 -80 78 713 68 hstemhm
          49 115 -21 170 callsubr
          45.5 113 hintmask 11011000
          143 724 -92 callgsubr
          366 -344 rmoveto
          20 callsubr
          hintmask 11011000
          185 77 171 289 hvcurveto
          endchar
        </CharString>
        <CharString name="Uogonek">
          8 -275 57 138 78 hstemhm
          49 115 23 74 135 113 vstemhm
          275 -275 rmoveto
          45 35 20 36 25 hvcurveto
          -7 18 -9 347 callgsubr
          -12 -23 hhcurveto
          -19 -13 16 28 39 29 45 55 29 hvcurveto
          109 56 55 131 254 vvcurveto
          20 callsubr
          1 2 0 1 hhcurveto
          hintmask 11111000
          -43 -36 -21 -37 -41 vvcurveto
          -52 36 -29 52 vhcurveto
          endchar
        </CharString>
        <CharString name="Uring">
          8 -80 78 692 40 113 37 hstemhm
          49 115 -6 63 72 65 38 113 hintmask 11110110
          269 880 rmoveto
          hintmask 11101110
          -66 -45 -40 -62 -51 36 -37 54 68 42 45 65 hvcurveto
          hintmask 11110110
          49 -33 31 -56 vhcurveto
          hintmask 11101110
          -9 -37 rmoveto
          18 15 -13 -38 -37 -14 -25 -23 -19 -16 17 32 41 17 23 22 hvcurveto
          249 -463 131 callsubr
          hintmask 11110110
          -31 callsubr
          hintmask 11101110
          185 77 171 289 hvcurveto
          endchar
        </CharString>
        <CharString name="V">
          21 -96 859 hstem
          16 530 vstem
          305 312 callgsubr
          -34 12 -32 7 -34 1 -28 -284 -49 -215 -96 -238 -72 189 -47 212 -25 208 -42 -2 -36 -9 -35 -16 41 -256 68 -233 91 -215 rrcurveto
          33 31 3 8 25 hvcurveto
          endchar
        </CharString>
        <CharString name="W">
          235 -68 778 hstem
          11 771 vstem
          265 -54 rmoveto
          58 138 37 124 29 135 15 -119 31 -113 42 -148 31 2 24 3 26 5 122 248 63 214 39 242 -28 19 -34 12 -39 2 -22 -211 -43 -184 -83 -216 -44 170 -19 132 -11 155 rrcurveto
          -34 -43 -6 -8 -34 hvcurveto
          -19 -152 -29 -124 -62 -185 -63 225 -34 176 -14 190 -44 -2 -37 -7 -35 -12 30 -250 46 -185 95 -284 28 1 30 6 25 7 rrcurveto
          endchar
        </CharString>
        <CharString name="X">
          90 -35 808 hstem
          11 593 vstem
          509 -35 rmoveto
          28 14 31 20 19 20 -62 151 -55 121 -62 111 68 89 66 91 62 99 -19 28 -30 26 -28 13 -53 -99 -55 -85 -57 -81 -58 95 -66 92 -81 103 -37 -15 -37 -24 -29 -26 rrcurveto
          93 -100 74 -98 68 -112 -88 -116 -87 -99 -103 -114 12 -19 24 -23 21 -13 103 104 82 94 84 105 56 -100 55 -114 61 -138 rrcurveto
          endchar
        </CharString>
        <CharString name="Y">
          -28 -88 818 hstem
          9 488 vstem
          179 -88 -46 callsubr
        </CharString>
        <CharString name="Yacute">
          -28 729 170 hstem
          244 94 vstem
          272 729 rmoveto
          -106 callsubr
          -93 -817 -46 callsubr
        </CharString>
        <CharString name="Ydieresis">
          -28 771 134 hstem
          9 488 vstem
          416 892 -107 callsubr
          -80 -980 -46 callsubr
        </CharString>
        <CharString name="Z">
          33 -34 98 hstem
          20 543 vstem
          508 -34 -93 callgsubr
        </CharString>
        <CharString name="Zacute">
          33 -34 98 681 170 hstem
          337 94 vstem
          365 745 rmoveto
          -106 callsubr
          143 -779 -93 callgsubr
        </CharString>
        <CharString name="Zcaron">
          33 -34 98 hstem
          20 543 vstem
          346 745 -105 callsubr
          162 -779 -93 callgsubr
        </CharString>
        <CharString name="Zdotaccent">
          33 -34 98 691 134 hstem
          20 543 vstem
          426 876 -104 callgsubr
          82 -910 -93 callgsubr
        </CharString>
        <CharString name="a">
          58 callgsubr
          hstem
          26 107 186 104 vstem
          362 -35 -106 callgsubr
        </CharString>
        <CharString name="aacute">
          58 callgsubr
          34 170 hstemhm
          26 107 123 94 -31 104 hintmask 11111100
          284 577 rmoveto
          -106 callsubr
          hintmask 11101010
          78 -612 -106 callgsubr
        </CharString>
        <CharString name="abreve">
          58 callgsubr
          33 60 hstemhm
          26 107 17 60 109 104 -100 57 hintmask 11111101
          150 696 -78 callgsubr
          hintmask 11111010
          212 -731 -106 callgsubr
        </CharString>
        <CharString name="acircumflex">
          58 callgsubr
          hstem
          26 107 186 104 vstem
          348 574 -103 callgsubr
          14 -609 -106 callgsubr
        </CharString>
        <CharString name="acute">
          -293 571 170 hstem
          97 94 vstem
          125 143 callsubr
          endchar
        </CharString>
        <CharString name="adieresis">
          58 callgsubr
          44 134 hstem
          26 107 186 104 vstem
          424 708 -107 callsubr
          95 -743 -106 callgsubr
        </CharString>
        <CharString name="ae">
          190 -26 68 -48 60 159 53 -36 61 170 65 -61 66 hstemhm
          26 107 185 100 179 98 hintmask 1001011110000000
          542 291 rmoveto
          -27 -42 3 14 -42 hvcurveto
          hintmask 1001101110000000
          82 20 41 71 53 340 callsubr
          hintmask 1001011110000000
          -2 -8 -20 -2 -13 hhcurveto
          167 -171 rmoveto
          -20 21 -32 17 -28 5 rrcurveto
          -61 -17 -54 -60 -49 hhcurveto
          -61 -30 73 91 14 1 14 1 14 hvcurveto
          -12 39 40 -6 37 hhcurveto
          53 47 5 14 34 hvcurveto
          13 33 12 50 51 vvcurveto
          hintmask 1001101110000000
          83 -53 60 -85 -65 -57 -39 -55 -42 vhcurveto
          hintmask 0110011110000000
          54 -22 -41 45 -76 hhcurveto
          -101 -84 -71 -80 -17 hvcurveto
          14 -30 31 -17 48 -4 rrcurveto
          80 3 42 56 53 hhcurveto
          51 24 -39 -99 hvcurveto
          1 -17 0 -20 -1 -26 rrcurveto
          1 -18 -20 1 -33 hhcurveto
          -156 -65 -56 -82 -80 58 -54 95 63 55 20 52 51 hvcurveto
          hintmask 1001011110000000
          -56 30 50 -36 69 hhcurveto
          111 82 87 59 19 hvcurveto
          hintmask 0110011110000000
          -504 -66 rmoveto
          -47 -25 27 42 53 42 44 140 -7 hvcurveto
          -6 0 0 0 vhcurveto
          -37 5 -34 11 -31 vhcurveto
          -34 -39 -46 -17 -41 hhcurveto
          endchar
        </CharString>
        <CharString name="agrave">
          58 callgsubr
          34 177 hstem
          26 107 45 94 47 104 vstem
          310 587 -92 callsubr
          52 -622 -106 callgsubr
        </CharString>
        <CharString name="amacron">
          58 callgsubr
          47 68 hstemhm
          26 107 25 170 callsubr
          -46.5 104 hintmask 11111100
          158 603 -92 callgsubr
          hintmask 11111010
          204 -638 -106 callgsubr
        </CharString>
        <CharString name="ampersand">
          226 -61 75 646 61 hstem
          40 105 75 99 124 96 36 94 vstem
          319 528 rmoveto
          88 29 44 39 37 19 -32 -51 -62 -35 -53 -81 -24 vhcurveto
          -5 29 -3 30 31 vvcurveto
          29 -514 rmoveto
          -121 -82 76 116 75 40 52 57 26 hvcurveto
          38 -123 83 -102 109 -78 rrcurveto
          -26 -35 -43 -16 -46 hhcurveto
          330 -67 rmoveto
          29 17 22 27 12 31 -48 19 -43 20 -39 23 33 51 20 65 5 78 2 31 1 31 -3 36 -38 15 -38 0 -30 -8 rrcurveto
          8 -35 4 -30 -39 vvcurveto
          -55 -14 -51 -24 -43 vhcurveto
          -103 74 -66 88 -30 101 rrcurveto
          124 28 77 64 101 vvcurveto
          80 -56 55 -84 -117 -62 -88 -122 -36 3 -34 7 -34 vhcurveto
          -126 -33 -64 -87 -104 vvcurveto
          -138 108 -106 183 82 74 24 47 58 vhcurveto
          42 -24 45 -21 46 -18 rrcurveto
          endchar
        </CharString>
        <CharString name="aogonek">
          -79 -232 59 179 60 160 53 198 66 hstem
          26 107 47 74 65 104 vstem
          211 66 rmoveto
          -47 -31 28 45 50 38 42 145 -5 hvcurveto
          -2 -43 -5 -40 -9 -48 rrcurveto
          -19 -25 -30 -10 -34 hhcurveto
          162 -240 rmoveto
          240 callsubr
          -12 -23 hhcurveto
          -21 -12 14 22 35 18 34 43 37 hvcurveto
          -2 16 16 -2 15 hhcurveto
          29 107 32 173 100 vvcurveto
          99 -32 99 -137 -107 -79 -74 -77 -16 vhcurveto
          14 -30 31 -17 48 -4 rrcurveto
          81 3 42 55 53 hhcurveto
          54 22 -47 -111 hvcurveto
          -15 0 -14 -13 vvcurveto
          1 -19 -19 1 -34 hhcurveto
          -155 -66 -52 -83 -84 64 -54 96 41 35 11 17 27 hvcurveto
          -4 -16 -3 -18 -4 -19 rrcurveto
          -63 -42 -35 -43 -53 vvcurveto
          -45 35 -30 52 49 33 22 36 24 vhcurveto
          endchar
        </CharString>
        <CharString name="approxequal">
          -165 195 66 -27 66 45 66 -27 66 hstemhm
          29 51 225 53 hintmask 10101100
          260 411 rmoveto
          hintmask 10011100
          -42 -50 39 -52 hhcurveto
          81 callgsubr
          hintmask 10101100
          111 callgsubr
          1 -150 rmoveto
          -42 -50 39 -52 hhcurveto
          hintmask 01101100
          81 callgsubr
          hintmask 10101100
          111 callgsubr
          endchar
        </CharString>
        <CharString name="aring">
          58 callgsubr
          34 40 113 37 hstemhm
          26 107 32 63 72 65 -46 104 hintmask 1111111100000000
          276 767 -25 callgsubr
          hintmask 1111111010000000
          95 -765 -106 callgsubr
        </CharString>
        <CharString name="asa_ba">
          -61 callgsubr
          -289 -78 rmoveto
          59 -10 78 -41 40 -55 15 7 12 11 6 13 -33 64 -87 55 -62 20 282 callgsubr
        </CharString>
        <CharString name="asa_ba.half">
          -73 550 81 hstemhm
          314 82 -90 callsubr
          -109 125 183 callsubr
          56 37 73 36 61 21 rrcurveto
          -8 -52 -3 -53 -63 vvcurveto
          -45 -174 rmoveto
          -34 75 -75 47 -77 24 -33 -44 rcurveline
          81 -13 72 -39 50 -75 rrcurveto
          endchar
        </CharString>
        <CharString name="asa_ba_ukaar">
          -69 callgsubr
          122 17 121 11 11 0 12 hhcurveto
          -3 -17 -3 -16 -3 -16 -126 -53 -118 -84 -65 -75 2 -36 11 -30 27 -35 rrcurveto
          hintmask 11101100
          -24 callsubr
          -398 92 rmoveto
          77 -14 104 -73 49 -90 15 8 11 11 6 13 -43 97 -110 86 -81 26 282 callgsubr
        </CharString>
        <CharString name="asa_ba_uukaar">
          107 556 8 callsubr
          660 -346 82 104 69 hintmask 10110000
          -29 callsubr
          109 -170 185 callsubr
          10 0 9 10 vvcurveto
          38 17 38 17 36 14 rrcurveto
          -5 30 callsubr
          -46 -21 176 callgsubr
          hintmask 11000000
          -93 callsubr
          hintmask 10110000
          -24 callsubr
          -398 92 rmoveto
          77 -14 104 -73 49 -90 15 8 11 11 6 13 -43 97 -110 86 -81 26 282 callgsubr
        </CharString>
        <CharString name="asa_ra">
          -73 550 81 hstemhm
          316 80 -51 135 hintmask 11000000
          424 -2 rmoveto
          -22 76 -6 122 99 vvcurveto
          93 4 68 12 80 vhcurveto
          hintmask 10100000
          25 -3 23 -5 20 -4 rrcurveto
          3 10 3 15 0 17 0 13 87 callsubr
          16 -56 -92 14 -76 hhcurveto
          -92 -100 -14 -16 -64 hvcurveto
          -5 -9 -2 14 callgsubr
          -17 207 callsubr
          13 65 96 13 91 hhcurveto
          30 32 -2 -3 31 hvcurveto
          -2 -13 -2 -13 -2 -12 -126 -52 -119 -83 -64 -73 2 -38 11 -31 27 -36 rrcurveto
          hintmask 11000000
          103 -22 88 -67 69 -128 rrcurveto
          29 38 6 15 27 hvcurveto
          -108 233 rmoveto
          -28 45 -37 35 -40 26 39 27 40 24 36 17 -6 -54 -3 -55 -1 -60 rrcurveto
          2 -161 rmoveto
          -52 88 -74 59 -77 36 14 14 16 14 16 13 60 -21 53 -43 41 -71 rrcurveto
          -34 1 -30 2 -25 vhcurveto
          endchar
        </CharString>
        <CharString name="asa_ra.half">
          -73 550 81 hstemhm
          315 81 -90 callsubr
          -108 181 rmoveto
          -24 29 -30 24 -34 17 34 17 33 14 31 11 -6 -36 -3 -36 -1 -40 rrcurveto
          -1 -56 183 callsubr
          13 8 14 9 14 8 53 -17 48 -31 37 -48 rrcurveto
          -3 0 0 0 vhcurveto
          endchar
        </CharString>
        <CharString name="asa_ra_ukaar">
          107 135 90 157 80 94 8 callsubr
          660 -345 81 182 61 hintmask 11101100
          172 callsubr
          -1 -66 159 callsubr
          109 -170 rmoveto
          -17 60 -7 89 -2 83 rrcurveto
          -61 29 41 -32 51 -71 callsubr
          -41 -46 34 66 -20 hvcurveto
          1 84 6 65 12 79 rrcurveto
          hintmask 11110000
          -93 callsubr
          hintmask 11101100
          -24 callsubr
          endchar
        </CharString>
        <CharString name="asa_ra_uukaar">
          107 556 8 callsubr
          660 -345 81 104 69 hintmask 10110000
          172 callsubr
          108 -236 185 callsubr
          10 0 9 10 vvcurveto
          38 17 38 17 36 14 rrcurveto
          -5 30 callsubr
          -46 -21 176 callgsubr
          hintmask 11000000
          -93 callsubr
          hintmask 10110000
          -24 callsubr
          -109 170 159 callsubr
          endchar
        </CharString>
        <CharString name="asciicircum">
          -133 182 337 hstem
          18 383 vstem
          339 182 rmoveto
          24 5 14 6 24 10 -44 111 -61 117 -64 86 -45 2 rcurveline
          -63 -80 -64 -121 -42 -113 20 -11 18 -6 24 -4 40 94 41 82 47 69 48 -72 42 -79 41 -96 rrcurveto
          endchar
        </CharString>
        <CharString name="asciitilde">
          -165 275 66 -27 66 hstemhm
          29 51 225 53 hintmask 10110000
          260 341 rmoveto
          hintmask 01110000
          -42 -50 39 -52 hhcurveto
          81 callgsubr
          hintmask 10110000
          111 callgsubr
          endchar
        </CharString>
        <CharString name="asterisk">
          -96 304 413 hstemhm
          199 55 -54 66 hintmask 11000000
          268 312 rmoveto
          -8 52 -4 43 -2 55 54 -38 38 -26 40 -22 7 9 5 5 5 11 9 14 6 19 2 12 -47 21 -40 19 -47 24 59 27 42 20 36 23 -4 10 -2 7 -6 10 rrcurveto
          -8 15 -14 15 -9 8 rrcurveto
          hintmask 10100000
          -41 -33 -35 -26 -46 -29 rrcurveto
          6 66 2 46 45 vvcurveto
          2 -12 -7 1 -12 hhcurveto
          -16 -19 -4 -4 -11 hvcurveto
          4 -51 4 -44 3 -52 -52 37 -40 26 -37 20 -7 -9 -5 -5 -6 -11 -9 -14 -5 -19 -3 -12 49 -20 39 -17 48 -26 -60 -28 -40 -20 -38 -23 3 -10 3 -7 6 -10 rrcurveto
          7 -15 14 -15 9 -8 rrcurveto
          hintmask 11000000
          42 30 37 26 44 29 -7 -64 -3 -48 2 -42 rrcurveto
          -2 11 7 -1 12 hhcurveto
          16 20 4 4 11 hvcurveto
          endchar
        </CharString>
        <CharString name="at">
          336 -103 66 122 56 -45 65 312 58 128 64 hstemhm
          38 81 137 87 143 84 188 77 hintmask 1101111110000000
          416 -103 rmoveto
          89 77 21 40 67 hvcurveto
          -12 24 -12 18 -21 18 rrcurveto
          -37 -47 -55 -18 -78 hhcurveto
          -194 -111 134 208 214 134 140 203 201 101 -130 -169 -134 -54 -85 -64 -48 -22 47 121 63 2 67 7 113 hvcurveto
          -28 6 -30 0 -37 -9 rrcurveto
          -8 0 -8 -8 vvcurveto
          3 -14 -15 3 -14 hhcurveto
          -109 -76 -91 -150 hvcurveto
          hintmask 1011111110000000
          -115 51 -79 81 48 39 25 66 26 vhcurveto
          hintmask 1101111110000000
          -67 19 45 -35 68 hhcurveto
          105 97 101 172 185 -107 180 -260 -265 -165 -176 -261 -234 148 -155 230 hvcurveto
          hintmask 1011111110000000
          -7 264 rmoveto
          -39 -27 49 93 110 47 60 59 15 12 -2 -3 10 hvcurveto
          2 -72 2 -69 2 -52 rrcurveto
          -85 -17 -32 -29 -34 hhcurveto
          endchar
        </CharString>
        <CharString name="atilde">
          58 callgsubr
          54 64 -30 64 hstemhm
          26 107 6 51 129 104 -96 50 hintmask 1111010010000000
          301 661 rmoveto
          hintmask 1110101100000000
          -51 callgsubr
          hintmask 1111010010000000
          -51 callsubr
          hintmask 1111010100000000
          61 -696 -106 callgsubr
        </CharString>
        <CharString name="b">
          -77 -40 74 403 72 hstem
          55 99 177 108 vstem
          200 -40 rmoveto
          138 101 130 203 143 -53 73 -96 -56 -40 -25 -41 -30 hvcurveto
          7 96 10 94 13 77 rrcurveto
          3 -16 -11 2 -18 hhcurveto
          -29 -30 -3 -9 -19 hvcurveto
          -11 -86 -5 -144 -131 vvcurveto
          -71 1 -152 7 -112 vhcurveto
          -26 33 42 -21 62 hhcurveto
          7 74 rmoveto
          -21 -17 7 12 -14 hvcurveto
          -1 34 0 40 53 vvcurveto
          48 1 51 2 51 vhcurveto
          75 26 38 32 34 hhcurveto
          50 26 -45 -89 -146 -34 -123 -90 hvcurveto
          endchar
        </CharString>
        <CharString name="backslash">
          -89 -202 952 hstem
          -5 507 vstem
          431 -202 rmoveto
          26 9 28 13 17 14 -124 219 -185 405 -122 292 -23 -5 -28 -15 -25 -22 124 -295 169 -346 143 -269 rrcurveto
          endchar
        </CharString>
        <CharString name="bar">
          -285 -169 896 hstem
          86 84 vstem
          106 -169 rmoveto
          20 -2 32 4 18 5 -9 199 -1 455 15 233 -30 5 -37 -4 -28 -13 -1 -270 5 -347 16 -265 rrcurveto
          endchar
        </CharString>
        <CharString name="bn_a">
          106 77 94 261 67 57 80 hstem
          190 73 112 67 63 86 vstem
          526 -25 rmoveto
          42 92 23 187 149 vvcurveto
          49 -2 44 -3 41 vhcurveto
          27 -4 24 -4 22 -5 rrcurveto
          3 10 3 16 0 17 0 13 -2 -56 callsubr
          19 -74 -116 16 -129 hhcurveto
          -137 -117 -16 -19 -86 hvcurveto
          -4 228 callgsubr
          -13 0 -17 2 -17 -42 callsubr
          17 88 114 15 134 hhcurveto
          57 54 -3 -5 50 hvcurveto
          6 -49 2 -49 -70 vvcurveto
          -133 -8 -111 -25 -87 vhcurveto
          -17 35 -20 32 -22 29 rrcurveto
          19 32 10 42 46 vvcurveto
          116 -59 118 -97 -58 -38 -54 -66 -23 5 -21 7 -17 vhcurveto
          -7 17 34 -6 28 hhcurveto
          -12 20 -6 24 20 vvcurveto
          39 14 24 27 42 29 -54 -82 -77 -28 -48 -59 -92 -75 128 159 -53 vhcurveto
          -21 -7 -19 -12 -15 -13 rrcurveto
          -174 53 87 -175 142 hhcurveto
          28 24 7 13 20 hvcurveto
          31 -29 28 -35 24 -42 rrcurveto
          -9 18 32 -7 26 hhcurveto
          endchar
        </CharString>
        <CharString name="bn_aa">
          353 72 94 261 66 66 81 hstem
          190 73 112 67 54 81 146 93 vstem
          826 -34 rmoveto
          -14 151 -2 174 23 190 13 19 24 15 36 9 6 21 3 41 -9 15 -47 -11 -45 -19 -28 -28 rrcurveto
          70 -79 -181 27 -156 hhcurveto
          -143 -134 -17 -22 -93 58 callsubr
          rrcurveto
          19 97 129 16 140 hhcurveto
          52 57 -2 -6 53 hvcurveto
          -23 -93 -9 -148 -138 vvcurveto
          -39 1 -32 1 -26 vhcurveto
          -21 33 -25 29 -28 25 rrcurveto
          12 28 6 33 36 vvcurveto
          116 -59 118 -96 -59 -38 -53 -66 -24 5 -20 7 -17 vhcurveto
          -8 17 34 -5 28 hhcurveto
          -12 19 -6 25 20 vvcurveto
          38 14 25 27 43 28 -55 -81 -77 -27 -48 -60 -92 -75 128 159 -53 vhcurveto
          -21 -8 -19 -12 -15 -12 rrcurveto
          -175 53 87 -174 142 hhcurveto
          40 33 15 25 24 hvcurveto
          44 -34 40 -44 35 -57 rrcurveto
          30 37 209 callgsubr
          -21 77 -5 121 103 vvcurveto
          88 5 89 13 67 vhcurveto
          80 -15 62 -28 12 -49 -22 -208 -2 -146 -2 -135 21 -1 47 1 35 6 rrcurveto
          endchar
        </CharString>
        <CharString name="bn_aakaar">
          -58 659 hstemhm
          -6 258 117 callgsubr
          -47 -11 -45 -19 -29 -29 -33 28 -48 20 -44 11 -8 -15 1 -42 7 -20 rrcurveto
          hintmask 10100000
          249 callsubr
          -7 21 47 -5 35 hhcurveto
          endchar
        </CharString>
        <CharString name="bn_aakaar.b">
          529 77 hstemhm
          0 252 117 callgsubr
          -43 -10 -40 -16 -29 -25 -21 41 -37 16 -32 -1 rrcurveto
          -12 -16 -1 -4 -16 282 callsubr
          -14 0 -13 0 -16 207 callsubr
          hintmask 10100000
          4 17 10 1 9 hhcurveto
          32 21 -32 -61 4 hvcurveto
          -3 -202 -14 -149 -25 -131 rrcurveto
          -7 21 47 -5 35 hhcurveto
          endchar
        </CharString>
        <CharString name="bn_ai">
          118 230 callgsubr
          55 49 hintmask 01111111
          435 -25 rmoveto
          269 callsubr
          14 115 10 129 2 158 rrcurveto
          68 61 37 64 77 vvcurveto
          94 -55 55 -111 19 vhcurveto
          -74 13 -73 12 -34 20 -17 89 rlinecurve
          -18 -4 -26 -10 -22 -16 21 -127 64 -22 128 -20 rrcurveto
          104 -16 64 -11 -70 vvcurveto
          -41 -22 -39 -33 -29 vhcurveto
          93 -77 callgsubr
          hintmask 10111111
          -13 callsubr
          hintmask 01111111
          152 callsubr
          endchar
        </CharString>
        <CharString name="bn_aikaar">
          -271 -71 64 680 74 -56 74 348 callsubr
          hintmask 10101000
          225 -71 -33 callsubr
          hintmask 10110000
          4 9 2 17 0 16 86 callgsubr
          87 -12 -38 77 -79 hhcurveto
          hintmask 11010000
          -38 -43 -18 -32 hhcurveto
          -41 -24 317 callsubr
          31 40 -44 65 hhcurveto
          hintmask 10110000
          42 38 18 39 hhcurveto
          55 15 -49 -54 10 hvcurveto
          -38 -13 -28 -15 -18 -19 -33 25 -53 21 -63 14 rrcurveto
          -3 -9 -2 -13 0 -15 0 -15 2 162 callsubr
          hintmask 10101000
          122 callgsubr
          224 callgsubr
          endchar
        </CharString>
        <CharString name="bn_aikaar.init">
          -245 -71 64 680 74 -56 74 hstemhm
          44 90 124 50 hintmask 10111000
          211 -71 rmoveto
          43 39 24 44 29 hvcurveto
          101 callsubr
          87 -13 -38 77 -79 hhcurveto
          hintmask 11011000
          -37 -44 -18 -31 hhcurveto
          -43 -23 317 callsubr
          32 39 -44 65 hhcurveto
          hintmask 10111000
          42 39 18 38 hhcurveto
          55 15 -49 -54 10 hvcurveto
          -146 -48 -68 -120 -203 vvcurveto
          -171 68 -117 99 vhcurveto
          endchar
        </CharString>
        <CharString name="bn_anusvar">
          -108 326 64 162 64 hstem
          75 66 166 66 vstem
          373 193 callgsubr
          71 69 85 1 191 callsubr
          288 -486 rmoveto
          -80 146 -155 121 -135 51 -20 -24 -12 -26 -8 -33 124 -35 141 -104 90 -144 25 11 19 17 11 20 rrcurveto
          endchar
        </CharString>
        <CharString name="bn_au">
          192 367 callgsubr
          hstem
          217 91 43 49 165 72 31 49 vstem
          444 -25 rmoveto
          337 callgsubr
          16 20 13 24 9 26 rrcurveto
          60 60 41 70 78 vvcurveto
          90 -50 58 -114 21 vhcurveto
          -71 12 -83 15 -30 19 -16 86 rlinecurve
          -17 -4 -26 -8 -22 -14 22 -130 61 -20 129 -21 rrcurveto
          106 -18 62 -13 -68 vvcurveto
          -34 -16 -37 -25 -29 vhcurveto
          91 -15 -78 56 -98 hhcurveto
          -124 -98 -89 -133 3 hvcurveto
          78 callgsubr
          118 callgsubr
          107 callgsubr
        </CharString>
        <CharString name="bn_aukaar">
          645 -71 64 -15 169 callsubr
          0 282 -219 89 158 83 -47 82 16 82 55 82 53 82 16 82 -45 82 -45 70 87 82 -24 49 hintmask 100110100110111001100000
          1109 218 callsubr
          hintmask 000000100000000001010000
          5 callgsubr
          hintmask 000000100000000000100000
          24 callgsubr
          hintmask 100110100110111001100000
          -6 21 46 -4 34 hhcurveto
          -884 -16 -6 callgsubr
          hintmask 100110100110111001100000
          224 callgsubr
          hintmask 000000010000010000000000
          438 627 rmoveto
          27 -16 16 -26 -25 -15 -16 -27 -26 15 -15 25 26 16 15 26 vhcurveto
          hintmask 000000100000101000000000
          135 -37 rmoveto
          25 -16 17 -26 -25 -15 -17 -25 -25 15 -16 25 26 16 16 25 vhcurveto
          -272 hmoveto
          25 -16 17 -25 -24 -17 -17 -25 -25 17 -16 24 25 16 16 25 vhcurveto
          hintmask 000001000001000100000000
          370 -98 rmoveto
          25 -15 344 callgsubr
          15 17 26 vhcurveto
          -468 -1 rmoveto
          26 -15 16 -24 -25 -18 -17 -24 -24 18 -19 25 22 17 18 24 vhcurveto
          hintmask 000010000010000010000000
          -35 -132 rmoveto
          26 -15 15 -26 -25 -17 -16 -25 -26 17 -16 25 26 15 16 26 vhcurveto
          540 hmoveto
          26 -15 15 -26 -24 -17 -16 -25 -25 17 -17 24 26 15 16 26 vhcurveto
          hintmask 000100000001000100000000
          -37 -133 rmoveto
          26 -15 338 callsubr
          15 17 26 vhcurveto
          -468 hmoveto
          26 -16 16 -23 -25 -18 -17 -25 -25 18 -18 25 23 16 17 26 vhcurveto
          hintmask 001000000000101000000000
          370 -100 rmoveto
          26 -16 17 -26 -25 -15 -17 -26 -24 15 -16 25 26 16 16 24 vhcurveto
          -272 hmoveto
          26 -16 17 -25 -24 -17 -17 -26 -24 17 -16 24 25 16 16 24 vhcurveto
          hintmask 010000000000010000000000
          137 -36 rmoveto
          26 -16 16 -26 -25 -15 -16 -26 -25 15 -16 25 26 16 16 25 vhcurveto
          endchar
        </CharString>
        <CharString name="bn_aumark">
          -55 998 hstemhm
          -64 70 87 82 -24 49 hintmask 11100000
          157 218 callsubr
          hintmask 11010000
          5 callgsubr
          hintmask 11100000
          24 callgsubr
          -6 21 46 -4 34 hhcurveto
          endchar
        </CharString>
        <CharString name="bn_aumark_reph">
          -55 1071 hstemhm
          -64 70 87 82 -24 49 hintmask 11100000
          157 218 callsubr
          hintmask 11010000
          14 17 23 14 34 9 rrcurveto
          4 12 2 266 callsubr
          13 7 flex1
          -18 -4 -18 -6 -17 -6 rrcurveto
          5 14 2 15 17 vvcurveto
          45 -20 36 -42 37 vhcurveto
          74 75 70 91 27 74 -7 12 -16 10 -16 5 -31 -76 -71 -87 -76 -68 rrcurveto
          -51 35 -35 20 59 vvcurveto
          14 1 14 3 16 vhcurveto
          -20 1 -25 -2 -23 -8 rrcurveto
          -4 -18 -2 -17 -14 vvcurveto
          -75 35 -24 64 -47 vhcurveto
          -26 -19 -26 -15 -24 -12 13 -23 13 -19 19 -13 25 16 29 21 29 26 rrcurveto
          45 -36 19 -23 -29 vvcurveto
          -28 -11 -24 -16 -19 vhcurveto
          hintmask 11100000
          24 callgsubr
          -6 21 46 -4 34 hhcurveto
          endchar
        </CharString>
        <CharString name="bn_avagraha">
          -93 181 82 97 54 93 61 hstem
          63 64 190 79 vstem
          189 414 rmoveto
          -39 -23 22 28 26 19 17 36 32 30 -14 -23 24 hvcurveto
          -34 -15 -25 -22 -39 hhcurveto
          237 -473 rmoveto
          19 17 17 20 14 20 -80 75 -80 61 -79 47 rrcurveto
          95 8 64 50 91 vvcurveto
          52 -21 52 -33 42 vhcurveto
          19 51 9 46 7 47 -18 12 -27 7 -23 1 -3 -27 -6 -39 -13 -45 rrcurveto
          24 -35 -40 15 -41 hhcurveto
          -59 -49 -31 -62 -75 69 -40 70 49 34 21 35 20 hvcurveto
          8 -18 4 -20 -20 vvcurveto
          -61 -41 -34 -80 -50 -61 13 25 -62 vhcurveto
          20 -107 136 -42 123 -80 124 -131 rlinecurve
          endchar
        </CharString>
        <CharString name="bn_b_ba">
          285 562 81 hstemhm
          314 82 277 81 17 68 hintmask 11100000
          442 562 rmoveto
          hintmask 11110000
          101 89 -7 -9 73 hvcurveto
          -2 -13 -3 -13 -2 -13 -121 -51 -115 -79 -66 -73 rrcurveto
          98 5 72 13 88 vhcurveto
          hintmask 11100000
          10 9 0 9 hhcurveto
          340 -566 365 callgsubr
          67 12 81 vhcurveto
          hintmask 11110000
          302 callgsubr
          -4 rrcurveto
          3 -90 callgsubr
          19 -81 -140 23 -177 hhcurveto
          -196 -155 -20 -22 -90 -94 callsubr
          76 15 120 16 151 5 -3 -18 -3 -18 -3 -18 -126 -53 -118 -83 -64 -75 2 -36 11 -30 27 -35 -24 callsubr
          -19 66 -6 100 -2 90 7 -19 9 -19 16 -20 rrcurveto
          hintmask 11100000
          103 -22 89 -67 68 -128 rrcurveto
          327 callgsubr
          -109 170 rmoveto
          252 callsubr
          -23 vhcurveto
          -50 82 -69 56 -73 35 56 55 80 53 65 52 callsubr
          -359 hmoveto
          252 callsubr
          -23 vhcurveto
          -49 83 -70 55 -72 35 56 55 79 53 64 31 rrcurveto
          -7 -71 -3 -73 -86 vvcurveto
          endchar
        </CharString>
        <CharString name="bn_b_bha">
          237 callsubr
          147 79 17 66 hintmask 11100100
          422 210 rmoveto
          -11 0 -11 -10 vvcurveto
          -53 74 -66 48 -71 31 58 47 78 44 66 30 rrcurveto
          -8 -76 -4 -75 -91 vvcurveto
          -45 -470 rmoveto
          hintmask 11100110
          308 callgsubr
          hintmask 11100100
          -12 10 -16 11 -15 9 rrcurveto
          -8 68 2 83 69 vvcurveto
          89 4 60 11 73 vhcurveto
          hintmask 11110000
          37 -5 33 -5 28 -5 rrcurveto
          -60 callgsubr
          14 75 105 13 126 hhcurveto
          48 46 -2 -3 42 hvcurveto
          -120 -52 -122 -72 -65 -65 2 -30 9 -24 23 -29 105 -15 88 -61 62 -109 1 -12 1 -11 1 -11 rrcurveto
          hintmask 11101110
          -23 -37 -32 -14 -31 37 callgsubr
          hintmask 11100100
          344 callsubr
        </CharString>
        <CharString name="bn_b_da">
          85 554 8 callsubr
          638 -318 72 110 76 hintmask 10110000
          599 -43 rmoveto
          -14 65 -7 63 179 callgsubr
          68 26 callgsubr
          hintmask 11000000
          94 -4 87 -11 65 -13 -23 callsubr
          20 -77 -118 14 -126 hhcurveto
          -126 -112 -14 -20 -79 -36 callsubr
          hintmask 10110000
          17 81 109 13 125 4 4 0 5 hhcurveto
          -5 -1 -5 -5 vvcurveto
          -102 -42 -120 -58 -59 -50 1 -29 11 -27 22 -26 86 -18 67 -47 26 -93 19 -16 33 -19 25 -4 43 74 74 82 75 56 rrcurveto
          -16 -62 -10 -74 -76 vvcurveto
          -59 6 -60 13 -56 vhcurveto
          24 2 34 9 20 11 rrcurveto
          -322 256 rmoveto
          -28 67 -51 47 -56 32 53 34 70 33 55 25 -8 -78 -15 -82 -20 -78 rrcurveto
          endchar
        </CharString>
        <CharString name="bn_b_da_ukaar">
          -69 callgsubr
          121 17 122 11 11 0 12 hhcurveto
          -3 -17 -3 -16 -3 -16 -126 -53 -118 -84 -65 -75 2 -36 11 -30 27 -35 rrcurveto
          hintmask 11101100
          -24 callsubr
          endchar
        </CharString>
        <CharString name="bn_b_da_uukaar">
          107 556 8 callsubr
          660 -346 82 104 69 hintmask 10110000
          -29 callsubr
          109 -170 185 callsubr
          10 0 9 10 vvcurveto
          38 17 38 17 36 14 rrcurveto
          -5 -33 -3 -32 -64 callsubr
          -46 -15 -46 -20 176 callgsubr
          hintmask 11000000
          4 callsubr
          hintmask 10110000
          -24 callsubr
          endchar
        </CharString>
        <CharString name="bn_b_dha">
          50 554 8 callsubr
          603 -260 70 -65 67 65 69 hintmask 10011000
          348 332 rmoveto
          -8 0 -9 -8 vvcurveto
          -34 -15 -35 -17 -34 -19 -31 21 -37 14 -36 14 60 53 90 53 55 20 rrcurveto
          1 -31 1 -33 -35 vvcurveto
          132 -197 rmoveto
          74 callgsubr
          151 callgsubr
          hintmask 11000000
          79 -5 71 -45 callsubr
          219 callgsubr
          3 -11 2 -12 2 -12 351 callgsubr
          2 -30 9 -25 23 -29 36 -9 37 -6 32 -14 -46 -28 -40 -28 -28 -25 1 -29 10 -27 22 -26 74 -22 56 -54 36 -95 rrcurveto
          hintmask 10101000
          199 callsubr
          hintmask 10011000
          -5 -49 -2 -47 -49 vvcurveto
          hintmask 10101000
          -184 -185 42 callgsubr
        </CharString>
        <CharString name="bn_b_ja">
          163 callsubr
          186 377 rmoveto
          -7 0 -6 1 -6 vhcurveto
          -31 24 -33 19 -34 12 34 19 41 19 39 16 rrcurveto
          -10 -31 -7 -32 -27 vvcurveto
          388 -395 -6 callsubr
          61 13 84 12 92 5 -87 -35 -95 -43 -47 -40 1 -30 7 -26 14 -23 84 -6 58 -20 48 -51 rrcurveto
          -29 25 36 -16 34 hhcurveto
          hintmask 11110111
          43 41 25 28 36 hvcurveto
          2 -18 1 -20 -19 vvcurveto
          -98 -34 -58 -78 -94 -83 68 162 -40 vhcurveto
          -22 -7 -22 -10 -19 -12 rrcurveto
          -137 32 79 -154 166 33 callgsubr
        </CharString>
        <CharString name="bn_b_la">
          -73 -237 72 126 83 -76 77 505 81 hstemhm
          -23 54 282 79 -60 148 hintmask 11011100
          4 callgsubr
          -148 -330 rmoveto
          -3 -14 -15 -1 -13 hhcurveto
          -51 -41 25 42 36 20 23 31 34 26 -32 -46 27 hvcurveto
          13 -20 rlineto
          hintmask 10111100
          25 6 19 8 15 8 -15 26 rcurveline
          -4 8 -2 6 7 vvcurveto
          21 11 15 19 32 36 -51 -146 12 vhcurveto
          31 37 4 10 25 hvcurveto
          -27 135 -4 214 152 vvcurveto
          104 3 67 7 81 vhcurveto
          hintmask 10111010
          29 -4 27 -5 22 -5 -99 callgsubr
          26 27 -1 -3 27 hvcurveto
          -1 -14 -2 -13 -1 -13 1 callsubr
          90 -23 114 -64 33 -147 rrcurveto
          -1 0 -2 -1 vvcurveto
          52 -19 -27 22 -34 hhcurveto
          -30 -25 -23 -40 -11 hvcurveto
          hintmask 11011100
          39 -25 -30 23 -35 hhcurveto
          -61 -43 -54 -78 -90 74 -59 92 hvcurveto
          13 19 9 32 25 vvcurveto
          endchar
        </CharString>
        <CharString name="bn_b_ra">
          -73 -170 89 631 81 hstemhm
          -22 71 264 79 -60 148 hintmask 11010000
          4 callgsubr
          15 -384 rmoveto
          31 36 4 10 25 hvcurveto
          -25 131 -3 209 147 vvcurveto
          104 3 67 7 81 vhcurveto
          hintmask 11101000
          29 -4 27 -5 22 -5 -99 callgsubr
          26 27 -1 -3 27 hvcurveto
          -1 -14 -2 -13 -1 -13 1 callsubr
          91 -23 102 -67 43 -137 1 -47 2 -39 3 -34 rrcurveto
          38 -28 -32 19 -45 -39 -37 -8 -30 hhcurveto
          -36 -26 18 38 24 9 26 9 260 callsubr
          -14 -32 -14 -37 -39 vvcurveto
          -68 47 -48 82 vhcurveto
          42 39 8 41 hhcurveto
          hintmask 11010000
          252 callgsubr
        </CharString>
        <CharString name="bn_b_ra_ukaar">
          103 -170 89 216 90 157 80 94 81 hstem
          -22 71 264 79 181 61 vstem
          4 callgsubr
          15 -384 rmoveto
          31 36 4 10 25 hvcurveto
          -22 115 -5 174 -1 140 rrcurveto
          -61 29 42 -32 51 hhcurveto
          72 48 71 98 100 -50 58 -62 -37 -27 -22 -28 -14 hvcurveto
          3 -33 12 -38 274 callsubr
          9 19 35 28 hhcurveto
          25 18 -24 -41 -53 -31 -39 -44 -40 -45 33 64 -21 hvcurveto
          1 90 3 64 7 78 -57 callgsubr
        </CharString>
        <CharString name="bn_b_ra_uukaar">
          103 -170 89 637 81 hstem
          -22 71 264 79 104 69 vstem
          4 callgsubr
          15 -384 rmoveto
          31 36 4 10 25 hvcurveto
          -24 125 -4 197 146 vvcurveto
          37 17 39 14 36 13 rrcurveto
          -5 -33 -3 -33 -64 callsubr
          -47 -14 -47 -17 -48 -21 rlinecurve
          2 73 3 57 6 69 -57 callgsubr
        </CharString>
        <CharString name="bn_ba">
          -61 callgsubr
          endchar
        </CharString>
        <CharString name="bn_ba.half">
          -73 550 81 hstemhm
          314 82 -90 callsubr
          -109 125 183 callsubr
          56 37 73 36 61 21 rrcurveto
          -8 -52 -3 -53 -63 vvcurveto
          endchar
        </CharString>
        <CharString name="bn_ba_phala">
          -553 -279 301 hstem
          -44 72 vstem
          44 -269 rmoveto
          -12 34 -4 45 49 vvcurveto
          43 6 44 11 61 vhcurveto
          -68 15 -103 -33 -94 -35 -59 -42 rlinecurve
          1 -30 7 -27 21 -28 83 -15 84 -26 45 -65 27 -1 33 1 22 10 rrcurveto
          -88 63 rmoveto
          -36 37 -54 25 -55 22 45 25 55 23 51 15 rrcurveto
          -6 -51 0 -50 -46 vvcurveto
          endchar
        </CharString>
        <CharString name="bn_bh_la">
          -20 -110 72 125 84 -77 78 82 74 223 8 callsubr
          533 -511 55 23 63 245 75 hintmask 1101101010000000
          264 551 rmoveto
          hintmask 1101110000000000
          99 119 -13 -15 51 hvcurveto
          3 11 2 16 0 17 -8 callsubr
          17 -46 -123 14 -98 hhcurveto
          -98 -109 -14 -17 -59 -35 callsubr
          hintmask 1101101010000000
          14 60 106 13 98 hhcurveto
          -53 -584 rmoveto
          331 callsubr
          -14 hhcurveto
          -50 -42 25 42 35 20 23 31 26 22 -18 -29 20 hvcurveto
          32 -50 rlineto
          hintmask 1011101110000000
          25 6 20 7 14 242 callsubr
          20 12 15 18 34 34 -50 -147 6 vhcurveto
          28 35 2 10 26 hvcurveto
          14 123 10 142 174 347 callsubr
          264 callsubr
          -45 callgsubr
          -62 -10 -116 -11 -109 vhcurveto
          94 -21 -35 41 -48 hhcurveto
          -30 -25 -23 -40 -11 hvcurveto
          hintmask 1101101010000000
          39 -25 -30 23 -35 hhcurveto
          -61 -44 -55 -78 -88 71 -59 97 -1 hvcurveto
          13 19 8 33 25 vvcurveto
          endchar
        </CharString>
        <CharString name="bn_bh_ra">
          -20 -44 91 -59 87 179 74 223 8 callsubr
          533 -506 72 1 63 245 75 hintmask 01110011
          264 551 rmoveto
          hintmask 01111000
          99 119 -13 -15 51 hvcurveto
          3 11 2 16 0 17 -8 callsubr
          17 -46 -123 14 -98 hhcurveto
          -98 -109 -14 -17 -59 -35 callsubr
          hintmask 01110011
          14 60 106 13 98 hhcurveto
          124 -638 155 callsubr
          14 119 9 137 168 347 callsubr
          264 callsubr
          -45 callgsubr
          -68 -8 -151 -17 -109 vhcurveto
          53 -20 -26 26 -41 hhcurveto
          hintmask 10110101
          31 callsubr
          hintmask 01110011
          55 67 32 47 116 callsubr
        </CharString>
        <CharString name="bn_bh_ra_ukaar">
          192 -44 91 -59 87 60 90 29 74 54 80 94 293 callsubr
          178 61 hintmask 0101110011100000
          357 556 rmoveto
          hintmask 0101111000000000
          146 155 -13 -19 85 hvcurveto
          -82 callgsubr
          21 -81 -154 15 -149 hhcurveto
          -140 -141 -17 -19 -78 -89 callgsubr
          hintmask 0101110011100000
          228 callsubr
          hintmask 0111110011100000
          10 89 8 98 3 114 rrcurveto
          -59 29 41 -31 50 -71 callsubr
          -38 -44 30 59 -21 hvcurveto
          11 0 11 12 347 callsubr
          264 callsubr
          hintmask 0101110011100000
          -45 callgsubr
          -68 -8 -151 -17 -109 vhcurveto
          53 -20 -26 26 -41 hhcurveto
          hintmask 1001110101100000
          31 callsubr
          hintmask 0101110011100000
          55 67 32 47 116 callsubr
        </CharString>
        <CharString name="bn_bh_ra_uukaar">
          192 -44 91 -59 87 179 74 228 293 callsubr
          97 69 hintmask 0111001110000000
          357 556 rmoveto
          hintmask 0111100000000000
          146 155 -13 -19 85 hvcurveto
          -82 callgsubr
          21 -81 -154 15 -149 hhcurveto
          -140 -141 -17 -19 -78 -89 callgsubr
          hintmask 0111001110000000
          228 callsubr
          13 114 9 130 1 159 36 16 34 16 34 13 rrcurveto
          -4 -33 -3 -32 50 callsubr
          -50 -15 -48 -23 -51 -23 rlinecurve
          -6 13 -8 12 -9 11 264 callsubr
          -45 callgsubr
          -68 -8 -151 -17 -109 vhcurveto
          53 -20 -26 26 -41 hhcurveto
          hintmask 1011010110000000
          31 callsubr
          hintmask 0111001110000000
          55 67 32 47 116 callsubr
        </CharString>
        <CharString name="bn_bha">
          61 -24 94 172 73 236 8 callsubr
          614 -399 63 245 68 hintmask 11101100
          306 551 rmoveto
          hintmask 11110000
          125 107 -13 -14 76 hvcurveto
          -60 callgsubr
          hintmask 11101100
          14 75 105 13 126 hhcurveto
          75 -575 rmoveto
          131 79 90 141 58 -14 61 -20 48 hvcurveto
          -17 17 -23 19 -18 11 rrcurveto
          -64 -68 -52 -42 -49 hhcurveto
          -31 -21 16 27 35 39 32 59 14 hvcurveto
          -11 27 -29 24 -26 7 rrcurveto
          -46 -17 -49 -43 -65 vvcurveto
          -75 65 -55 74 59 50 34 48 49 vhcurveto
          7 -28 4 -32 -30 vvcurveto
          -106 -50 -58 -90 -132 -97 122 264 -75 vhcurveto
          -23 -8 -21 -11 -20 -13 rrcurveto
          -207 54 98 -241 214 hhcurveto
          endchar
        </CharString>
        <CharString name="bn_bha.half">
          61 139 76 118 58 160 8 callsubr
          614 -399 63 245 68 hintmask 11101100
          306 551 rmoveto
          hintmask 11110000
          125 107 -13 -14 76 hvcurveto
          -60 callgsubr
          hintmask 11101100
          14 75 105 13 126 hhcurveto
          75 -412 rmoveto
          131 79 68 103 42 -14 46 -20 35 hvcurveto
          -18 13 -24 14 -18 9 rrcurveto
          -47 -68 -53 -31 -48 hhcurveto
          -30 -20 11 19 26 39 23 59 10 hvcurveto
          -12 22 -31 17 -28 6 rrcurveto
          -43 -12 -47 -33 -49 vvcurveto
          -56 65 -42 75 59 50 24 36 49 vhcurveto
          6 -20 4 -22 -22 vvcurveto
          -74 -50 -40 -90 -130 -98 86 192 -74 vhcurveto
          -23 -6 -22 -8 -21 -9 rrcurveto
          -153 54 98 -178 214 hhcurveto
          endchar
        </CharString>
        <CharString name="bn_bisarga">
          -120 -5 64 151 65 51 64 162 64 hstemhm
          74 66 -62 66 156 66 -60 66 hintmask 11111001
          372 193 callgsubr
          72 69 85 191 callsubr
          hintmask 11110110
          226 -342 rmoveto
          76 -60 58 -79 -83 -66 -65 -83 -77 60 -55 77 84 67 64 82 vhcurveto
          -222 5 rmoveto
          39 25 25 42 52 37 -39 -50 -39 -25 -23 -41 -51 -39 37 50 vhcurveto
          endchar
        </CharString>
        <CharString name="bn_c_ca">
          218 -24 64 14 56 452 8 callsubr
          771 -714 74 246 79 186 93 hintmask 10101110
          318 429 rmoveto
          -55 24 -55 34 -26 64 rrcurveto
          7 64 74 4 82 6 6 0 6 hhcurveto
          -9 -53 -11 -74 -8 -74 -11 32 -25 20 -38 16 rrcurveto
          417 -147 rmoveto
          63 -29 32 -54 25 vhcurveto
          -61 28 -61 41 -25 82 rrcurveto
          2 1 2 2 vvcurveto
          hintmask 10110000
          113 -7 89 -16 63 -12 rrcurveto
          3 -90 callgsubr
          18 -75 -130 24 -165 hhcurveto
          -179 -141 -23 -19 -81 -94 callsubr
          hintmask 11101110
          25 5 31 6 36 5 rrcurveto
          -16 -96 -19 -144 -86 vvcurveto
          -121 67 -39 62 85 75 74 93 33 vhcurveto
          -1 -23 -1 -21 -19 vvcurveto
          hintmask 10101110
          -138 71 -44 66 120 101 152 154 vhcurveto
          hintmask 11101110
          -560 -172 rmoveto
          -29 -15 19 55 70 14 127 19 107 hvcurveto
          19 -47 38 -34 39 -21 rrcurveto
          33 -16 15 -11 -29 vvcurveto
          -100 -68 -120 -65 vhcurveto
          hintmask 10101110
          326 -70 rmoveto
          -30 -15 21 62 81 14 144 20 122 hvcurveto
          21 -54 40 -39 41 -24 rrcurveto
          33 -18 17 -13 -33 vvcurveto
          -114 -72 -135 -69 vhcurveto
          endchar
        </CharString>
        <CharString name="bn_c_ch_ba">
          246 54 56 128 254 callsubr
          -209 80 27 80 hintmask 11111001
          43 callsubr
          hintmask 11111100
          170 -136 -39 callgsubr
          hintmask 11111011
          415 -283 rmoveto
          -37 37 -57 26 -56 23 50 27 66 77 callgsubr
          hintmask 11111001
          350 callgsubr
          -58 77 -66 44 vhcurveto
          -71 13 -66 24 -39 48 rrcurveto
          1 1 1 2 vvcurveto
          hintmask 11111100
          44 callgsubr
          -196 -155 -20 -22 -90 -9 callgsubr
          hintmask 11111001
          -21 callsubr
          15 -97 41 -17 39 -21 39 -25 rlinecurve
          -87 -25 -75 -29 -47 -34 -1 -31 8 -28 21 -28 rrcurveto
          hintmask 11111011
          259 callgsubr
        </CharString>
        <CharString name="bn_c_ch_ra">
          246 -200 81 -67 81 159 56 128 55 269 81 hstemhm
          57 74 109 72 -4 153 120 218 -202 82 18 80 hintmask 1011110100100000
          43 callsubr
          hintmask 1011110110000000
          170 -136 -39 callgsubr
          hintmask 1011110101100000
          504 -339 rmoveto
          -2 48 -1 59 3 64 32 -28 31 -30 32 -33 123 callgsubr
          hintmask 1011110100100000
          103 12 75 55 103 214 callsubr
          hintmask 1011110110000000
          44 callgsubr
          -197 -155 -20 -22 -89 -9 callgsubr
          hintmask 1011110100100000
          -21 callsubr
          15 -97 rlineto
          hintmask 0111110101100000
          62 -27 60 -35 57 -43 -7 -54 -5 -56 -4 -51 rrcurveto
          46 -26 -38 15 -48 hhcurveto
          hintmask 1011111000100000
          -42 -46 -14 -33 hhcurveto
          -29 -23 16 34 21 9 24 8 18 hvcurveto
          -15 8 -21 6 -25 1 rrcurveto
          -14 -29 -14 -34 -36 vvcurveto
          -64 44 -46 76 vhcurveto
          hintmask 0111110101100000
          45 49 14 43 hhcurveto
          59 24 -30 -26 17 hvcurveto
          hintmask 1011110101100000
          221 callsubr
        </CharString>
        <CharString name="bn_c_cha">
          246 54 56 -22 82 68 254 callsubr
          -102 80 hintmask 10111101
          43 callsubr
          509 -523 rmoveto
          hintmask 01111101
          353 callgsubr
          107 9 80 56 106 214 callsubr
          hintmask 10111110
          44 callgsubr
          -196 -156 -20 -22 -89 -9 callgsubr
          hintmask 01111101
          -21 callsubr
          17 -107 120 -51 111 -76 107 -112 rlinecurve
          hintmask 10111101
          20 16 19 19 14 20 rrcurveto
          hintmask 10111110
          -339 387 -39 callgsubr
          endchar
        </CharString>
        <CharString name="bn_c_nya">
          300 -203 97 -56 95 -57 78 55 58 -16 84 -2 41 16 58 -9 74 43 64 142 8 callsubr
          853 -813 76 -70 75 58 97 -15 88 126 82 42 42 118 60 -55 59 hintmask 001101101100101110100000
          155 248 rmoveto
          -23 -11 14 38 51 12 91 15 77 hvcurveto
          16 -33 29 -24 31 -15 rrcurveto
          24 -12 13 -8 -20 vvcurveto
          -28 -8 -30 -13 -27 vhcurveto
          -12 -14 -11 -16 -9 -16 rrcurveto
          -17 -16 -19 -11 -18 hhcurveto
          542 -294 rmoveto
          -45 -57 27 55 -43 hvcurveto
          hintmask 001101011100110111000000
          2 34 1 36 1 37 rrcurveto
          65 43 53 31 50 hhcurveto
          35 22 -17 -28 -17 -5 -17 -8 -16 hvcurveto
          18 -16 -25 12 -25 hhcurveto
          -46 296 callsubr
          hintmask 001101011100110110100000
          29 26 16 26 20 hvcurveto
          7 -13 4 -15 -14 vvcurveto
          hintmask 001101101100101110100000
          -29 -22 -26 -45 vhcurveto
          hintmask 010101011100110111000000
          -25 113 184 callgsubr
          22 17 16 -10 -15 12 hvcurveto
          -1 -2 -1 -2 -2 -2 1 -1 rcurveline
          -23 -16 -16 -11 -17 hhcurveto
          -220 -317 rmoveto
          269 callsubr
          hintmask 001101011100110110100000
          7 61 7 64 4 70 rrcurveto
          -44 36 58 -38 63 hhcurveto
          67 51 43 71 38 -14 32 -24 30 hvcurveto
          hintmask 001101011100101111000000
          21 32 232 callsubr
          -55 -51 -29 -40 -36 vhcurveto
          5 0 5 5 vvcurveto
          98 -67 63 -76 -21 -23 -5 -9 -21 vhcurveto
          -4 40 -21 22 -40 15 -37 15 -38 19 -23 33 rrcurveto
          7 78 92 5 102 hhcurveto
          hintmask 001101011110000000000000
          174 134 -21 -17 87 hvcurveto
          3 -90 callgsubr
          19 -81 -138 23 -177 hhcurveto
          -204 -160 -19 -23 -93 -94 callsubr
          hintmask 010010101100110111000000
          20 4 24 4 27 4 rrcurveto
          -13 -68 -12 -90 -56 vvcurveto
          -98 61 -34 57 5 6 0 1 5 vhcurveto
          -1 -6 0 -6 -6 vvcurveto
          -78 56 -44 68 31 28 9 17 21 vhcurveto
          11 17 7 28 23 vvcurveto
          11 -1 9 -4 6 vhcurveto
          -16 -14 -25 -20 -32 hhcurveto
          -29 -20 16 35 23 9 26 14 24 hvcurveto
          8 9 7 10 6 11 rrcurveto
          38 31 41 29 33 hhcurveto
          29 21 -23 -44 -151 -10 -170 -18 -125 hvcurveto
          61 -23 -29 29 -47 hhcurveto
          hintmask 100101011101010111000000
          -55 -67 -39 -48 hhcurveto
          -34 -28 19 47 28 10 41 17 29 hvcurveto
          -16 10 -21 6 -29 1 rrcurveto
          -20 -42 -17 -54 -47 vvcurveto
          -80 46 -55 77 vhcurveto
          hintmask 010101011100110111000000
          65 75 41 56 hhcurveto
          57 14 -45 -43 22 hvcurveto
          endchar
        </CharString>
        <CharString name="bn_c_ra">
          -101 -199 82 -67 82 78 64 508 81 hstemhm
          -42 71 -29 452 -393 79 174 66 -54 93 hintmask 0111001010000000
          184 40 120 callgsubr
          hintmask 0111001100000000
          122 -278 rmoveto
          24 1 25 3 23 10 8 118 3 127 3 128 rrcurveto
          hintmask 0111001010000000
          16 41 9 46 46 vvcurveto
          63 -28 32 -54 25 vhcurveto
          -59 27 -61 40 -26 78 rrcurveto
          1 14 14 0 13 hhcurveto
          hintmask 0111010000000000
          -2 callsubr
          hintmask 0111001100000000
          26 6 35 6 38 4 rrcurveto
          -18 -108 -22 -172 -102 vvcurveto
          -138 71 -44 66 42 40 19 31 34 vhcurveto
          -2 -68 -3 -63 -5 -58 rrcurveto
          40 -28 -31 21 -45 hhcurveto
          hintmask 1011101100000000
          -39 -43 -15 -31 hhcurveto
          -31 -25 18 36 21 8 24 9 18 hvcurveto
          -16 9 -20 6 -24 1 rrcurveto
          -14 -29 -14 -34 -37 vvcurveto
          -67 42 -48 72 vhcurveto
          hintmask 0111001100000000
          46 48 15 45 hhcurveto
          55 17 -30 -24 23 hvcurveto
          endchar
        </CharString>
        <CharString name="bn_ca">
          -101 -24 64 508 253 callsubr
          282 rmoveto
          63 -28 32 -54 25 vhcurveto
          -59 27 -61 40 -26 78 rrcurveto
          1 14 14 0 13 hhcurveto
          hintmask 11100000
          -2 callsubr
          hintmask 11011000
          26 6 35 6 38 4 rrcurveto
          -18 -108 -22 -172 -102 vvcurveto
          -138 71 -44 66 121 100 152 154 vhcurveto
          -233 -242 120 callgsubr
          endchar
        </CharString>
        <CharString name="bn_ca.half">
          -101 138 48 362 253 callsubr
          360 rmoveto
          46 -28 23 -54 19 vhcurveto
          -57 19 -58 28 -27 52 rrcurveto
          1 12 13 0 12 hhcurveto
          hintmask 11100000
          -2 callsubr
          hintmask 11011000
          26 6 34 6 37 4 rrcurveto
          -17 -79 -21 -119 -72 vvcurveto
          -100 71 -32 66 121 100 111 111 vhcurveto
          -233 -174 rmoveto
          -31 -15 16 43 58 15 105 20 89 hvcurveto
          21 -40 39 -30 41 -17 rrcurveto
          34 -14 16 -9 -25 vvcurveto
          -80 -71 -96 -69 vhcurveto
          endchar
        </CharString>
        <CharString name="bn_ch_ba">
          -45 238 332 callsubr
          -234 80 27 80 hintmask 11110000
          172 136 callsubr
          hintmask 11101100
          102 -466 rmoveto
          -37 37 -57 26 -57 23 52 27 65 77 callgsubr
          hintmask 11100100
          181 callsubr
          29 hhcurveto
          hintmask 11110000
          -52 callsubr
          20 5 26 5 29 5 rrcurveto
          -7 -63 -5 -72 -62 vvcurveto
          -65 57 -39 57 vhcurveto
          hintmask 11100100
          -21 callsubr
          15 -97 40 -18 40 -20 38 -25 rlinecurve
          -86 -25 -76 -29 -46 -34 -1 -31 7 -28 22 -28 rrcurveto
          hintmask 11101100
          259 callgsubr
        </CharString>
        <CharString name="bn_ch_ra">
          -45 -178 89 327 55 259 81 hstemhm
          -27 71 18 82 120 244 -227 81 18 80 hintmask 11101100
          171 136 callsubr
          hintmask 11101010
          191 -522 rmoveto
          -2 48 -1 59 3 64 32 -28 31 -30 32 -33 123 callgsubr
          hintmask 11101011
          181 callsubr
          30 hhcurveto
          hintmask 11101100
          -52 callsubr
          19 5 26 5 29 4 rrcurveto
          -7 -62 -5 -72 -62 vvcurveto
          -65 57 -39 57 vhcurveto
          hintmask 11101011
          -21 callsubr
          15 -97 rlineto
          hintmask 11111010
          62 -27 59 -35 58 -43 -7 -53 -5 -55 -3 -49 rrcurveto
          54 -24 -28 19 -41 -33 -34 -8 -26 hhcurveto
          -29 -22 16 33 21 8 24 8 17 188 callsubr
          -24 hhcurveto
          -14 -29 -13 -34 -36 vvcurveto
          -64 43 277 callsubr
          hintmask 11101010
          221 callsubr
        </CharString>
        <CharString name="bn_cha">
          -45 88 82 68 332 callsubr
          -127 80 hintmask 11111000
          172 293 rmoveto
          -19 -8 10 22 49 3 62 5 55 hvcurveto
          24 -31 38 -21 50 -11 rrcurveto
          -3 0 -3 -3 vvcurveto
          -67 -48 -59 -45 vhcurveto
          286 -442 rmoveto
          20 16 19 19 14 20 353 callgsubr
          hintmask 11110100
          107 9 80 56 106 vvcurveto
          93 -59 77 -65 44 vhcurveto
          -70 13 -69 18 -39 43 1 1 rcurveline
          2 33 34 2 33 hhcurveto
          hintmask 11111000
          -52 callsubr
          19 5 26 5 30 4 rrcurveto
          -8 -61 -4 -74 -61 vvcurveto
          -65 57 -39 57 vhcurveto
          hintmask 11110100
          -21 callsubr
          17 -107 rlineto
          hintmask 11111000
          120 -51 110 -76 108 -112 rrcurveto
          endchar
        </CharString>
        <CharString name="bn_cha.half">
          -45 214 62 46 43 187 81 hstemhm
          63 82 113 250 -127 80 hintmask 11111000
          172 365 rmoveto
          -19 -8 7 16 35 3 45 5 39 hvcurveto
          23 -23 35 -17 47 -9 rrcurveto
          -2 vlineto
          -48 -44 -43 -42 vhcurveto
          286 -319 rmoveto
          20 12 19 13 14 14 -77 51 -73 43 -75 35 rrcurveto
          hintmask 11110100
          101 8 74 41 78 vvcurveto
          66 -59 56 -65 32 vhcurveto
          -70 8 -69 14 -39 31 rrcurveto
          2 34 34 2 33 hhcurveto
          hintmask 11111000
          -52 callsubr
          19 5 26 5 29 4 rrcurveto
          -7 -44 -4 -50 -45 vvcurveto
          -49 57 -28 56 vhcurveto
          hintmask 11110100
          81 65 46 61 18 hvcurveto
          25 -19 16 -23 -27 vvcurveto
          -55 -58 -29 -79 -40 -47 5 14 -54 vhcurveto
          17 -76 rlineto
          hintmask 11111000
          120 -38 110 -54 108 -81 rrcurveto
          endchar
        </CharString>
        <CharString name="bn_chandrabindu">
          -553 672 72 61 99 hstem
          -42 96 vstem
          54 853 rmoveto
          28 -20 23 -29 -25 -22 -21 -27 -27 20 -24 29 27 20 21 27 vhcurveto
          99 -33 rmoveto
          -48 15 rlineto
          -52 -13 -35 -39 -50 hhcurveto
          -43 -35 32 36 -10 hvcurveto
          -67 -21 rlineto
          -65 10 57 -54 77 hhcurveto
          80 62 63 85 15 hvcurveto
          endchar
        </CharString>
        <CharString name="bn_currency1">
          -11 -28 607 hstem
          59 469 192 callgsubr
          -87 -239 -139 -171 -178 -104 rrcurveto
          endchar
        </CharString>
        <CharString name="bn_currency16">
          -21 167 73 275 73 hstem
          64 58 259 60 vstem
          441 408 rmoveto
          112 -59 68 -112 -140 -66 -133 -108 -111 59 -69 111 141 66 132 109 vhcurveto
          -319 -54 rmoveto
          92 59 69 87 64 49 -34 -81 -91 -57 -69 -88 -63 -51 34 80 vhcurveto
          endchar
        </CharString>
        <CharString name="bn_currency2">
          -11 211 77 104 76 hstem
          4 57 180 53 192 callgsubr
          -44 -121 -58 -104 -69 -86 rrcurveto
          1 9 1 9 9 vvcurveto
          116 -83 57 -75 -79 -53 -49 -71 -79 59 -58 76 23 21 5 5 5 vhcurveto
          276 callgsubr
          -24 20 30 34 28 20 43 48 61 -38 -68 -82 -75 -74 -107 -65 hvcurveto
          endchar
        </CharString>
        <CharString name="bn_currency3">
          -11 -15 64 393 57 hstemhm
          21 90 -49 78 129 81 hintmask 11011000
          202 442 rmoveto
          41 26 -28 -36 hvcurveto
          hintmask 11101000
          -138 -248 17 -144 vvcurveto
          -66 60 -62 118 192 114 209 365 62 vhcurveto
          -21 9 -23 7 -21 4 rrcurveto
          -315 -57 -118 -215 -137 hhcurveto
          -42 -37 17 39 hvcurveto
          86 239 -1 177 vvcurveto
          77 -70 55 -88 vhcurveto
          hintmask 11011000
          -77 -53 -55 -72 -22 5 -19 4 -5 hvcurveto
          22 -5 35 -1 26 2 rrcurveto
          -8 13 -6 22 22 vvcurveto
          40 20 23 42 vhcurveto
          endchar
        </CharString>
        <CharString name="bn_currency4">
          -274 -81 676 hstem
          56 77 vstem
          162 -81 rmoveto
          -19 83 -10 124 136 vvcurveto
          125 8 102 7 106 vhcurveto
          -70 -11 rlineto
          -21 -193 -1 -129 -202 vvcurveto
          -39 3 -35 1 -33 vhcurveto
          endchar
        </CharString>
        <CharString name="bn_currencyless">
          -60 -23 656 hstem
          109 66 162 76 vstem
          357 -23 rmoveto
          23 3 35 9 20 10 rrcurveto
          40 callsubr
          40 -1 39 -2 36 vhcurveto
          -63 -9 rlineto
          -146 -21 -178 -46 -151 vhcurveto
          1 callgsubr
          -62 -10 -75 -76 vvcurveto
          -59 7 -61 13 -55 vhcurveto
          endchar
        </CharString>
        <CharString name="bn_d_ba">
          -19 420 77 54 8 callsubr
          534 -417 66 224 64 hintmask 11011000
          471 333 rmoveto
          104 -59 60 -63 -52 -67 -43 -61 -61 vhcurveto
          9 49 5 50 44 4 0 4 4 vvcurveto
          2 31 33 1 34 hhcurveto
          hintmask 11100000
          103 98 -13 -14 52 hvcurveto
          3 10 4 16 373 callsubr
          -3 -54 callgsubr
          17 -48 -100 14 -101 hhcurveto
          hintmask 11011000
          -113 -108 -14 -17 -64 -88 callgsubr
          -19 3 -15 -8 flex1
          31 7 40 6 46 5 -5 -89 -24 -103 -39 -90 18 -23 33 -20 27 -6 rrcurveto
          90 63 117 119 61 hhcurveto
          26 13 -19 -34 -18 -1 -20 -2 -22 hvcurveto
          -98 -38 -129 -76 -53 -49 1 -29 11 -26 22 -26 75 -23 60 -54 38 -94 rrcurveto
          -8 21 36 -6 31 hhcurveto
          33 100 19 210 145 vvcurveto
          -121 -382 rmoveto
          -29 73 -51 53 -57 33 54 40 76 44 50 21 -7 -98 -14 -90 -22 -76 rrcurveto
          endchar
        </CharString>
        <CharString name="bn_d_bh_ra">
          61 -227 76 -44 76 74 63 533 8 callsubr
          614 -557 70 82 66 -63 64 140 68 hintmask 0111010110000000
          517 -264 rmoveto
          23 3 35 9 19 11 -16 108 -5 113 -23 87 -16 13 -22 14 -18 10 -2 -2 -2 -1 -3 -2 rrcurveto
          -2 28 -1 26 26 vvcurveto
          91 23 80 27 81 140 callgsubr
          hintmask 1011100000000000
          125 107 -13 -14 76 hvcurveto
          -60 callgsubr
          hintmask 1011010110000000
          103 callgsubr
          hintmask 0111011010000000
          -23 -36 -32 -14 -30 hhcurveto
          -31 -21 13 22 29 34 29 53 10 hvcurveto
          -10 22 -25 19 -23 5 rrcurveto
          -45 -13 -50 -35 -54 vvcurveto
          -64 68 -46 77 49 44 20 30 41 vhcurveto
          8 -66 5 -57 7 -62 rrcurveto
          41 -29 -38 20 -52 hhcurveto
          hintmask 1011010110000000
          -60 -87 -32 -52 hhcurveto
          -35 -28 20 43 27 11 35 14 25 hvcurveto
          -16 8 -21 5 -25 1 rrcurveto
          -17 -33 -16 -44 -42 vvcurveto
          -71 49 -50 79 vhcurveto
          hintmask 0111010110000000
          72 82 32 62 hhcurveto
          69 23 -33 -36 24 hvcurveto
          endchar
        </CharString>
        <CharString name="bn_d_bha">
          237 callsubr
          -63 64 140 76 26 66 hintmask 11100110
          377 -260 rmoveto
          hintmask 11100111
          308 callgsubr
          hintmask 11100110
          -15 12 -19 12 -17 10 rrcurveto
          -5 33 -2 32 31 vvcurveto
          84 18 77 24 73 140 callgsubr
          hintmask 11110000
          125 107 -13 -14 76 hvcurveto
          -60 callgsubr
          hintmask 11100110
          103 callgsubr
          hintmask 11101011
          -23 -36 -32 -14 -30 37 callgsubr
          hintmask 11100110
          344 callsubr
        </CharString>
        <CharString name="bn_d_d_ba">
          288 callsubr
          620 -227 rmoveto
          -22 93 -16 87 81 vvcurveto
          90 17 73 35 70 vhcurveto
          -19 31 -26 23 -34 15 -67 -41 -76 -44 -62 -72 14 90 31 85 35 70 -17 callsubr
          46 78 79 85 83 63 -33 -74 -27 -101 -4 -98 23 -26 26 -15 27 -5 42 65 80 58 79 49 rrcurveto
          -13 -37 -9 -43 -5 -44 -76 -40 -81 -58 -47 -40 3 -28 7 -20 18 -26 83 -14 71 -45 52 -77 28 3 30 9 20 11 rrcurveto
          -114 228 rmoveto
          -55 6 -55 11 -55 vhcurveto
          -37 45 -48 31 -51 19 36 30 46 32 37 22 rrcurveto
          -4 0 -5 -5 vvcurveto
          endchar
        </CharString>
        <CharString name="bn_d_da">
          288 callsubr
          604 -146 rmoveto
          -15 64 -7 60 56 vvcurveto
          87 18 71 34 68 vhcurveto
          -19 31 -26 23 -34 15 -74 -45 -76 -64 -68 -89 15 108 37 103 41 82 -17 callsubr
          48 81 83 89 86 63 -43 -90 -38 -130 -5 -128 18 -23 35 -19 28 -6 44 81 81 89 84 62 rrcurveto
          -21 -63 -12 -75 -73 vvcurveto
          -57 7 -59 14 -54 vhcurveto
          28 3 29 9 20 11 rrcurveto
          endchar
        </CharString>
        <CharString name="bn_d_dh_ba">
          89 429 76 51 8 callsubr
          642 -528 63 185 68 -39 63 63 70 hintmask 11001010
          459 -215 rmoveto
          -22 54 -7 91 70 vvcurveto
          96 7 76 13 89 vhcurveto
          26 11 26 9 25 9 rrcurveto
          -7 -55 -3 -53 -52 vvcurveto
          -83 9 -79 17 -71 vhcurveto
          30 32 8 13 20 hvcurveto
          -27 76 -11 80 84 vvcurveto
          51 4 53 8 53 vhcurveto
          hintmask 11010110
          -51 67 -31 -10 -31 -12 -32 -13 rlinecurve
          98 -57 60 -61 -50 -63 -41 -59 -58 vhcurveto
          8 44 4 47 47 3 0 2 2 vvcurveto
          4 43 47 2 51 39 callgsubr
          43 6 -4 -87 -25 -99 -39 -87 17 -24 31 -19 25 -6 rrcurveto
          89 62 114 118 60 hhcurveto
          24 12 -20 -33 -16 0 -15 -1 -15 hvcurveto
          -98 -43 -121 -76 -55 -48 2 -28 10 -28 21 -26 31 -8 30 -13 24 -18 -35 -23 -32 -23 -23 -20 3 -28 7 -21 18 -26 rrcurveto
          hintmask 11001010
          83 -13 71 -45 52 -77 rrcurveto
          26 32 6 13 23 hvcurveto
          -184 282 rmoveto
          -21 25 -24 21 -27 16 51 39 70 43 57 30 -7 -41 -5 -41 -3 -41 -30 -15 -31 -17 -30 -19 rrcurveto
          87 -73 rmoveto
          -53 2 -55 4 -46 vhcurveto
          -37 51 -52 35 -55 21 42 33 56 37 41 22 rrcurveto
          -1 -15 0 -15 -15 vvcurveto
          endchar
        </CharString>
        <CharString name="bn_d_dha">
          89 419 78 59 8 callsubr
          642 -527 66 198 74 -62 64 64 70 hintmask 11010110
          519 126 rmoveto
          -85 9 -80 15 -74 vhcurveto
          30 33 6 12 20 hvcurveto
          -26 79 -11 81 87 vvcurveto
          48 3 48 7 49 vhcurveto
          -51 65 -31 -10 -31 -11 -31 -13 rlinecurve
          2 0 1 2 vvcurveto
          104 -58 60 -61 -50 -61 -40 -57 -57 vhcurveto
          8 48 5 49 46 3 0 2 2 vvcurveto
          4 42 46 2 49 39 callgsubr
          44 6 -5 -89 -25 -103 -39 -90 17 -24 33 -21 25 -6 rrcurveto
          89 60 116 119 59 hhcurveto
          24 11 -19 -33 -17 -1 -21 -2 -21 hvcurveto
          -100 -45 -113 -69 -59 -50 2 -29 10 -27 22 -26 73 -22 57 -55 36 -95 rrcurveto
          hintmask 11011010
          -8 21 35 -6 30 hhcurveto
          28 81 17 150 6 133 25 11 25 10 24 8 rrcurveto
          hintmask 11010110
          -5 -48 -3 -49 -46 vvcurveto
          hintmask 11011010
          -183 -175 rmoveto
          -27 73 -48 52 -55 33 50 38 66 40 57 29 -8 -100 -14 -89 -21 -76 rrcurveto
          endchar
        </CharString>
        <CharString name="bn_d_ga">
          374 399 69 71 89 -77 81 hstemhm
          109 66 162 76 50 71 132 57 59 82 hintmask 10111111
          816 45 callsubr
          hintmask 11011111
          97 -30 -59 62 -82 hhcurveto
          -54 -44 -24 -37 -28 hvcurveto
          2 vlineto
          hintmask 10111111
          12 -1 12 -4 8 vhcurveto
          17 -45 -101 14 -85 hhcurveto
          -102 -100 -14 -17 -60 -35 callgsubr
          29 7 38 6 42 5 -4 -123 -25 -144 -38 -126 1 callgsubr
          -62 -10 -75 -76 vvcurveto
          -59 7 -61 13 -55 vhcurveto
          23 3 35 9 20 10 rrcurveto
          40 callsubr
          10 0 10 -1 10 vhcurveto
          2 27 28 1 28 hhcurveto
          80 87 -10 -13 53 hvcurveto
          -9 -22 -5 -24 -26 61 callsubr
          hintmask 11011111
          105 callgsubr
          hintmask 10111111
          -7 23 38 -5 32 hhcurveto
          endchar
        </CharString>
        <CharString name="bn_d_gha">
          374 556 81 hstem
          109 66 162 76 42 78 222 82 vstem
          435 -1 rmoveto
          40 callsubr
          9 0 10 -1 9 vhcurveto
          6 87 99 4 99 16 17 0 16 hhcurveto
          -36 -31 -17 -35 -41 95 callsubr
          66 11 80 vhcurveto
          28 -3 25 -4 22 -4 rrcurveto
          -82 callgsubr
          23 -98 -188 13 -180 hhcurveto
          -180 -182 -13 -23 -99 -89 callgsubr
          30 6 37 5 42 5 -4 -123 -26 -143 -37 -125 1 callgsubr
          -62 -10 -75 -76 vvcurveto
          -59 7 -61 13 -55 vhcurveto
          23 3 35 9 20 10 rrcurveto
          268 331 147 callgsubr
          -29 -33 -29 -10 -21 hhcurveto
          -33 -26 24 38 37 27 40 82 33 hvcurveto
          47 -2 45 -3 42 -4 rrcurveto
          -16 -125 -5 -107 -131 167 callgsubr
          endchar
        </CharString>
        <CharString name="bn_d_ma">
          269 -112 73 90 55 456 81 hstemhm
          139 56 -51 66 106 64 162 82 hintmask 11101110
          465 424 rmoveto
          -19 31 -25 23 -34 15 -65 -38 -67 -54 -62 -71 rrcurveto
          11 69 6 71 48 vvcurveto
          35 vlineto
          6 60 68 3 74 hhcurveto
          56 51 -2 -3 48 hvcurveto
          -18 -109 -7 -134 -120 vvcurveto
          -139 12 -92 14 -68 vhcurveto
          -52 64 -80 55 -56 32 7 105 28 171 50 102 rrcurveto
          131 -648 298 callsubr
          134 -28 202 151 vvcurveto
          126 3 55 9 84 vhcurveto
          75 -8 63 -10 48 -9 rrcurveto
          3 -90 callgsubr
          20 -83 -146 22 -182 hhcurveto
          -182 -140 -21 -21 -89 -94 callsubr
          39 8 48 8 57 7 -4 -112 -24 -128 -43 -115 18 -24 34 -19 28 -6 49 82 85 91 87 63 -30 -77 -20 -117 -8 -101 rrcurveto
          15 -21 -26 7 -27 hhcurveto
          hintmask 11110110
          -58 366 callsubr
          52 14 hvcurveto
          hintmask 11101110
          94 -45 80 -54 53 -101 rrcurveto
          hintmask 11110110
          -352 183 rmoveto
          -30 -19 19 25 25 240 callgsubr
        </CharString>
        <CharString name="bn_d_na">
          35 -188 78 107 78 476 8 callsubr
          588 -422 57 -18 65 161 76 hintmask 11100110
          349 -177 rmoveto
          5 21 2 35 -2 27 rrcurveto
          hintmask 11101010
          -10 184 callsubr
          19 32 35 25 21 46 85 68 -75 -102 24 hvcurveto
          -1 0 0 -1 vvcurveto
          23 3 35 8 19 11 rrcurveto
          -26 121 -15 112 106 vvcurveto
          81 13 76 21 70 vhcurveto
          -22 33 -24 22 -34 14 rrcurveto
          hintmask 11100110
          19 callgsubr
          82 70 vvcurveto
          11 0 11 -1 11 vhcurveto
          5 6 0 5 hhcurveto
          hintmask 11110000
          59 callsubr
          hintmask 11100110
          51 11 73 10 81 4 -4 -125 -26 -147 -38 -128 1 callgsubr
          -64 -11 -77 -79 vvcurveto
          -55 4 -55 7 -55 vhcurveto
          63 -42 -54 32 -55 hhcurveto
          hintmask 11101010
          -72 -53 -52 -74 -79 58 -58 76 hvcurveto
          hintmask 11100110
          24 20 6 5 5 hvcurveto
          endchar
        </CharString>
        <CharString name="bn_d_ra">
          35 -68 82 -45 82 500 81 hstemhm
          -10 70 -60 588 -383 65 161 76 hintmask 01110110
          133 callsubr
          81 13 76 21 70 vhcurveto
          48 callgsubr
          82 70 vvcurveto
          11 0 11 -1 11 vhcurveto
          5 6 0 5 hhcurveto
          hintmask 10101000
          59 callsubr
          hintmask 01110110
          51 11 73 10 81 4 -4 -125 -26 -147 -38 29 callsubr
          hintmask 10110110
          32 callsubr
          hintmask 01110110
          194 callgsubr
        </CharString>
        <CharString name="bn_d_ra_ukaar">
          236 -68 82 -45 82 84 90 157 80 94 290 callgsubr
          199 61 hintmask 0111110111000000
          133 callsubr
          29 2 28 3 27 vhcurveto
          -83 28 46 -45 61 hhcurveto
          72 48 71 98 100 -50 58 -61 -38 -27 -22 -28 -13 98 callsubr
          9 20 35 28 hhcurveto
          24 18 -24 -41 -53 -31 -39 -43 -42 -49 36 70 -19 hvcurveto
          5 26 7 25 7 24 48 callgsubr
          82 70 vvcurveto
          12 0 12 -1 11 vhcurveto
          2 38 39 1 39 hhcurveto
          hintmask 1011101000000000
          152 163 -13 -19 89 hvcurveto
          -82 callgsubr
          21 -84 -163 15 -155 hhcurveto
          -151 -152 -15 -21 -84 -89 callgsubr
          hintmask 0111110111000000
          51 11 73 9 81 6 -4 -126 -25 -147 -39 29 callsubr
          hintmask 1011110111000000
          32 callsubr
          hintmask 0111110111000000
          194 callgsubr
        </CharString>
        <CharString name="bn_d_ra_uukaar">
          237 -68 82 -45 82 505 290 callgsubr
          122 69 hintmask 01110111
          133 callsubr
          27 1 26 3 25 vhcurveto
          41 19 43 20 41 16 rrcurveto
          -4 30 callsubr
          -47 -22 -47 -21 rlinecurve
          4 18 5 18 5 18 48 callgsubr
          82 70 vvcurveto
          12 0 12 -1 11 vhcurveto
          2 38 39 1 39 hhcurveto
          hintmask 10101000
          152 163 -13 -19 89 hvcurveto
          -82 callgsubr
          21 -84 -163 15 -155 hhcurveto
          -151 -152 -15 -21 -84 -89 callgsubr
          hintmask 01110111
          51 11 73 9 81 6 -4 -126 -25 -147 -39 29 callsubr
          hintmask 10110111
          32 callsubr
          hintmask 01110111
          194 callgsubr
        </CharString>
        <CharString name="bn_da">
          -60 551 8 callsubr
          493 -384 66 162 76 hintmask 10110000
          435 -1 rmoveto
          40 callsubr
          10 0 10 -1 10 vhcurveto
          2 27 28 1 28 hhcurveto
          hintmask 11000000
          68 callsubr
          hintmask 10110000
          -102 -100 -14 -17 -60 -35 callgsubr
          29 7 38 6 42 5 -4 -123 -25 -144 -38 -126 1 callgsubr
          -62 -10 -75 -76 vvcurveto
          -59 7 -61 13 -55 vhcurveto
          23 3 35 9 20 10 rrcurveto
          endchar
        </CharString>
        <CharString name="bn_da.half">
          -60 551 8 callsubr
          493 -384 66 161 77 hintmask 10110000
          435 156 rmoveto
          -15 49 -7 46 43 vvcurveto
          58 12 53 21 49 vhcurveto
          -22 24 -24 15 -34 11 -70 -31 -71 -45 -68 -59 rrcurveto
          11 55 7 60 51 5 0 4 4 vvcurveto
          2 26 28 1 28 hhcurveto
          hintmask 11000000
          68 callsubr
          hintmask 10110000
          -102 -100 -14 -17 -60 -35 callgsubr
          29 7 38 6 42 5 -6 -87 -25 -101 -36 -88 20 -12 41 -11 30 -2 50 63 88 69 90 47 rrcurveto
          -16 -44 -9 -53 -54 vvcurveto
          -42 7 -45 13 -42 vhcurveto
          23 2 36 6 20 8 rrcurveto
          endchar
        </CharString>
        <CharString name="bn_da_ukaar">
          -60 -257 68 88 71 581 8 callsubr
          493 -450 56 10 66 hintmask 11100100
          419 -275 rmoveto
          17 16 14 20 9 20 -123 87 rcurveline
          63 139 2 229 45 170 57 callsubr
          10 0 10 -1 10 vhcurveto
          2 27 28 1 28 hhcurveto
          hintmask 11110000
          68 callsubr
          hintmask 11100100
          -102 -100 -14 -17 -60 -35 callgsubr
          29 7 38 6 42 5 -4 -123 -25 -144 -38 -126 21 -18 39 -13 31 -4 50 85 85 95 88 66 -36 -149 -3 -191 -47 -113 rrcurveto
          35 -32 -39 28 -48 hhcurveto
          hintmask 11101100
          -59 -49 -44 -70 -71 48 -42 69 64 46 26 43 33 hvcurveto
          -152 -1 rmoveto
          -31 -21 18 26 27 21 17 31 34 30 -21 -26 23 hvcurveto
          -26 -22 -28 -15 -37 hhcurveto
          endchar
        </CharString>
        <CharString name="bn_da_uukaar">
          -60 -257 68 152 73 510 81 hstemhm
          30 56 23 66 hintmask 11110000
          459 -219 rmoveto
          -195 105 rlineto
          -48 -26 -36 -27 -45 hhcurveto
          -42 -29 29 44 49 47 30 68 57 53 -25 -31 40 hvcurveto
          45 147 8 203 42 149 -22 33 -24 22 -34 14 rrcurveto
          hintmask 11111000
          213 callsubr
          2 1 0 2 hhcurveto
          93 5 103 -9 61 -9 40 -1 19 3 2 13 1 15 0 15 -1 11 -30 18 -63 14 -73 6 -98 5 -94 -9 -80 -11 -38 -8 -24 -11 -3 -10 -1 -13 2 -15 2 -14 rrcurveto
          26 -1 39 0 47 2 -4 -123 -25 -144 -38 -126 20 -18 41 -13 30 -4 50 85 85 94 88 66 -27 -107 -4 -144 -22 -110 rrcurveto
          25 -31 -34 13 -49 hhcurveto
          hintmask 11110000
          -88 -71 -58 -93 -90 56 -52 81 59 40 17 38 30 hvcurveto
          123 -73 17 16 14 20 9 20 rlinecurve
          endchar
        </CharString>
        <CharString name="bn_danda">
          33 -101 696 hstem
          363 77 vstem
          469 -81 rmoveto
          13 callsubr
          endchar
        </CharString>
        <CharString name="bn_dd_dda">
          459 -24 92 165 77 242 84 hstem
          222 72 359 72 201 64 vstem
          799 68 rmoveto
          -103 -84 71 159 -62 hvcurveto
          -8 38 -12 35 -14 29 -20 99 callsubr
          -62 -43 -41 -52 -31 hhcurveto
          -25 -17 18 34 43 22 77 21 70 hvcurveto
          56 2 59 1 64 57 55 -1 52 hflex1
          -15 -58 -12 -61 -43 vvcurveto
          -74 50 -83 81 56 41 40 46 36 vhcurveto
          5 -27 4 -30 -32 vvcurveto
          -103 -43 -59 -84 vhcurveto
          -4 -92 rmoveto
          125 70 93 139 72 -17 68 -26 52 hvcurveto
          -19 99 callsubr
          134 callgsubr
          42 21 75 21 69 hvcurveto
          94 -6 82 -8 69 -10 rrcurveto
          4 12 3 283 callsubr
          12 -3 13 8 flex1
          21 -121 -166 14 -209 hhcurveto
          -221 -168 -13 -22 -127 108 callgsubr
          71 10 82 8 94 6 rrcurveto
          -13 -57 -12 -59 -42 -87 callsubr
          107 67 67 106 17 hvcurveto
          -99 53 76 -74 112 hhcurveto
          endchar
        </CharString>
        <CharString name="bn_dd_ra">
          27 -196 81 -58 82 67 265 callsubr
          hstemhm
          -13 70 -57 580 -358 72 100 68 33 64 hintmask 0111110111000000
          390 -226 rmoveto
          25 1 24 3 23 9 4 70 3 75 2 74 rrcurveto
          57 38 31 72 92 vvcurveto
          72 -18 68 -25 52 vhcurveto
          -20 99 callsubr
          -62 -43 -41 -52 -31 hhcurveto
          -25 -17 18 34 44 22 77 22 71 hvcurveto
          hintmask 1011101000000000
          98 -3 80 -11 64 -66 callsubr
          hintmask 0111110111000000
          65 15 81 13 103 2 rrcurveto
          -14 -58 -13 -63 -43 -87 callsubr
          11 10 1 1 10 hvcurveto
          -2 -46 -2 -45 -3 -39 rrcurveto
          40 -29 330 callgsubr
          hintmask 1011110111000000
          26 callsubr
          -13 -36 -39 vvcurveto
          -71 47 -50 82 vhcurveto
          hintmask 0111110111000000
          94 callgsubr
        </CharString>
        <CharString name="bn_dda">
          27 -24 265 callsubr
          hstemhm
          0 580 -358 72 201 64 hintmask 11101100
          363 -24 rmoveto
          -3 callgsubr
          77 22 71 hvcurveto
          hintmask 11110000
          98 -3 80 -11 64 -66 callsubr
          hintmask 11101100
          65 15 81 13 103 2 rrcurveto
          -14 -58 -13 -63 -43 -87 callsubr
          endchar
        </CharString>
        <CharString name="bn_dda.half">
          27 140 278 callsubr
          193 72 hintmask 11101100
          363 140 rmoveto
          126 71 130 callsubr
          hintmask 11110000
          98 -2 81 -12 65 -66 callsubr
          hintmask 11101100
          284 callsubr
          -56 51 -60 91 callsubr
          endchar
        </CharString>
        <CharString name="bn_ddh_ra">
          310 callgsubr
          hstemhm
          -31 71 -40 244 callsubr
          134 68 0 95 hintmask 1111101100000000
          317 callgsubr
          hintmask 1111101010000000
          50 52 36 72 70 vvcurveto
          -101 callgsubr
          149 14 168 21 124 vhcurveto
          1 15 16 0 17 hhcurveto
          hintmask 1111010000000000
          -69 callsubr
          hintmask 1111101100000000
          -5 callgsubr
        </CharString>
        <CharString name="bn_ddha">
          -67 -24 276 callsubr
          202 95 hintmask 11101100
          453 248 rmoveto
          -101 callgsubr
          149 14 168 21 124 vhcurveto
          1 15 16 0 17 hhcurveto
          hintmask 11110000
          -69 callsubr
          hintmask 11101100
          -8 callgsubr
          114 callgsubr
          vhcurveto
          endchar
        </CharString>
        <CharString name="bn_ddha.half">
          -67 138 58 183 66 106 81 hstem
          74 85 73 9 117 95 vstem
          -41 callsubr
          endchar
        </CharString>
        <CharString name="bn_dh_ba">
          309 550 81 hstemhm
          29 78 228 81 280 81 17 68 hintmask 11110000
          805 -4 365 callgsubr
          68 12 80 vhcurveto
          hintmask 11111000
          25 -3 23 -5 20 -4 rrcurveto
          3 10 3 15 0 17 0 13 87 callsubr
          16 -55 -85 14 -84 hhcurveto
          -104 -88 -28 -32 -48 hvcurveto
          -24 -17 -11 -22 -5 -35 rrcurveto
          -3 -1 -4 -3 vvcurveto
          -42 -16 -42 -96 callgsubr
          281 callsubr
          -13 69 -5 105 -1 93 6 -23 10 -22 19 -24 rrcurveto
          hintmask 11110000
          104 -22 88 -67 68 -128 rrcurveto
          327 callgsubr
          -382 463 rmoveto
          3 27 3 19 19 11 rrcurveto
          hintmask 11111000
          22 42 45 12 99 hhcurveto
          30 32 -2 -3 32 hvcurveto
          -2 -13 -3 -12 -2 -13 -123 -52 -116 -80 -66 -74 rrcurveto
          hintmask 11110000
          51 3 56 4 51 vhcurveto
          273 -293 rmoveto
          252 callsubr
          -24 vhcurveto
          -49 83 -70 56 -73 35 56 55 80 53 65 52 callsubr
          -361 -9 146 callsubr
        </CharString>
        <CharString name="bn_dh_na">
          -54 -126 78 103 76 421 79 hstemhm
          29 78 -50 57 221 339 callgsubr
          hintmask 11101100
          335 157 rmoveto
          -24 0 -21 1 -19 vhcurveto
          -49 84 -70 56 -71 37 57 44 78 175 callgsubr
          -95 -272 rmoveto
          5 21 2 35 -3 27 rrcurveto
          -10 -15 -25 -6 -24 hhcurveto
          -42 -24 20 29 33 28 21 42 86 77 -88 -90 16 hvcurveto
          24 29 3 8 24 hvcurveto
          -22 163 -2 104 140 348 callgsubr
          hintmask 11110010
          2 24 2 10 18 10 17 callgsubr
          -26 -14 -10 -21 -5 -35 rrcurveto
          -3 -1 -4 -3 vvcurveto
          -42 -16 -42 -96 callgsubr
          79 -19 73 -44 59 -81 rrcurveto
          41 -39 -45 24 -39 hhcurveto
          hintmask 11101100
          -69 -51 -50 -71 -78 58 -58 76 24 20 6 5 5 hvcurveto
          endchar
        </CharString>
        <CharString name="bn_dh_ra">
          -54 255 callgsubr
          -58.5 141.5 hintmask 01101100
          335 157 rmoveto
          -24 1 -21 -20 vvcurveto
          -48 84 -71 57 -71 37 57 44 78 175 callgsubr
          31 -270 155 callsubr
          -21 160 -1 102 135 348 callgsubr
          hintmask 01101010
          2 24 2 10 18 10 17 callgsubr
          -26 -14 -10 -21 -5 -35 rrcurveto
          -3 -1 -4 -3 vvcurveto
          -42 -16 -42 19 callsubr
          hintmask 10110100
          31 callgsubr
          hintmask 01101100
          194 callsubr
        </CharString>
        <CharString name="bn_dh_ra_ukaar">
          115 -76 91 -55 83 81 90 157 81 100 79 hstemhm
          -2 73 -42 78 228 82 169 60 hintmask 0111101110000000
          94 callsubr
          -16 118 -4 87 -1 91 rrcurveto
          -46 27 37 -24 44 hhcurveto
          73 48 72 97 100 -50 59 -62 -38 -26 -23 -28 -14 38 callsubr
          -34 -37 23 45 -23 hvcurveto
          4 0 5 4 vvcurveto
          53 3 58 5 54 vhcurveto
          -44 callsubr
          hintmask 1011110110000000
          31 callgsubr
          hintmask 0111101110000000
          194 callsubr
        </CharString>
        <CharString name="bn_dh_ra_uukaar">
          115 255 callgsubr
          99 69 hintmask 01101110
          94 callsubr
          -19 144 -3 98 116 vvcurveto
          36 17 36 16 34 14 rrcurveto
          -4 -32 -3 -32 198 callsubr
          5 208 callsubr
          -43 65 -45 -14 -45 -22 -46 -21 rlinecurve
          1 39 3 39 3 38 -44 callsubr
          hintmask 10110110
          31 callgsubr
          hintmask 01101110
          194 callsubr
        </CharString>
        <CharString name="bn_dha">
          -54 552 79 hstemhm
          29 78 228 339 callgsubr
          hintmask 11100000
          435 -4 rmoveto
          -15 77 -4 122 100 348 callgsubr
          hintmask 11010000
          2 24 2 10 18 10 17 callgsubr
          -26 -14 -10 -21 -5 -35 rrcurveto
          -3 -1 -4 -3 vvcurveto
          -42 -16 -42 -96 callgsubr
          rrcurveto
          hintmask 11100000
          281 callsubr
          -100 161 146 callsubr
        </CharString>
        <CharString name="bn_dha.half">
          -54 571 60 hstem
          29 78 228 81 vstem
          435 155 rmoveto
          -15 58 -4 91 75 vvcurveto
          41 1 -14 4 54 vhcurveto
          2 23 2 9 20 11 17 callgsubr
          -19 -10 -11 -13 -8 -18 -46 -14 -44 -15 -41 -15 rrcurveto
          -5 -17 -17 -4 -16 hhcurveto
          -35 -38 19 33 30 20 16 29 31 24 -16 -25 2 hvcurveto
          26 7 25 15 16 18 rrcurveto
          35 -20 -48 26 -52 hhcurveto
          -82 -49 -42 -54 -48 46 -33 59 -13 hvcurveto
          -32 -16 -29 -16 -24 -18 2 -27 11 -23 27 -26 100 -17 86 -54 67 -104 rrcurveto
          31 37 4 11 25 hvcurveto
          -100 121 rmoveto
          -25 0 -20 1 -17 vhcurveto
          -47 70 -68 48 -71 30 56 33 78 30 63 18 rrcurveto
          -8 -57 -4 -30 -80 vvcurveto
          endchar
        </CharString>
        <CharString name="bn_doubledanda">
          283 -101 696 hstem
          363 77 173 77 vstem
          719 -81 rmoveto
          13 callsubr
          -250 hmoveto
          13 callsubr
          endchar
        </CharString>
        <CharString name="bn_e">
          49 230 callgsubr
          hintmask 01111110
          435 -25 rmoveto
          269 callsubr
          17 137 10 157 202 vvcurveto
          98 -77 callgsubr
          hintmask 10111110
          -13 callsubr
          hintmask 01111110
          152 callsubr
          endchar
        </CharString>
        <CharString name="bn_eight">
          -3 -24 83 223 74 -43 72 hstemhm
          73 70 -56 89 189 80 hintmask 11010100
          222 -24 rmoveto
          118 105 147 100 24 -7 23 -13 19 hvcurveto
          -4 13 13 -3 11 hhcurveto
          35 31 21 17 16 hvcurveto
          -3 30 -7 28 -12 28 rrcurveto
          -20 -21 -38 -30 -44 hhcurveto
          hintmask 10110100
          -44 -29 29 -52 hhcurveto
          -38 -36 -15 -9 -19 hvcurveto
          -28 5 -28 9 -28 vhcurveto
          17 27 37 19 33 hhcurveto
          24 29 -11 -50 -89 -79 -104 -81 -42 -20 29 50 hvcurveto
          hintmask 10101100
          60 33 154 113 vvcurveto
          70 -16 32 -76 23 vhcurveto
          -28 -16 -23 -21 -22 -24 74 -22 3 -26 -1 -69 rrcurveto
          hintmask 10110100
          -116 -14 -108 -46 vvcurveto
          hintmask 11010100
          -116 78 -50 71 vhcurveto
          endchar
        </CharString>
</ttFont>
